<?xml version="1.0" encoding="UTF-8" standalone="no"?>
<!-- Created with Inkscape (http://www.inkscape.org/) -->

<svg
   xmlns:dc="http://purl.org/dc/elements/1.1/"
   xmlns:cc="http://creativecommons.org/ns#"
   xmlns:rdf="http://www.w3.org/1999/02/22-rdf-syntax-ns#"
   xmlns:svg="http://www.w3.org/2000/svg"
   xmlns="http://www.w3.org/2000/svg"
   xmlns:sodipodi="http://sodipodi.sourceforge.net/DTD/sodipodi-0.dtd"
   xmlns:inkscape="http://www.inkscape.org/namespaces/inkscape"
   width="165.26471"
   height="372.43701"
   viewBox="0 0 165.26472 372.437"
   id="svg3341"
   version="1.1"
   inkscape:version="0.91 r13725"
   sodipodi:docname="ico_full_body.svg">
  <defs
     id="defs3343" />
  <sodipodi:namedview
     id="base"
     pagecolor="#ffffff"
     bordercolor="#666666"
     borderopacity="1.0"
     inkscape:pageopacity="0.0"
     inkscape:pageshadow="2"
     inkscape:zoom="1.5674954"
     inkscape:cx="54.409578"
     inkscape:cy="199.21298"
     inkscape:document-units="px"
     inkscape:current-layer="layer1"
     showgrid="false"
     inkscape:window-width="1536"
     inkscape:window-height="801"
     inkscape:window-x="-8"
     inkscape:window-y="-8"
     inkscape:window-maximized="1"
     fit-margin-top="10"
     fit-margin-left="10"
     fit-margin-right="10"
     fit-margin-bottom="10"
     units="px" />
  <metadata
     id="metadata3346">
    <rdf:RDF>
      <cc:Work
         rdf:about="">
        <dc:format>image/svg+xml</dc:format>
        <dc:type
           rdf:resource="http://purl.org/dc/dcmitype/StillImage" />
        <dc:title></dc:title>
      </cc:Work>
    </rdf:RDF>
  </metadata>
  <g
     inkscape:label="Layer 1"
     inkscape:groupmode="layer"
     id="layer1"
     transform="translate(-7.7449999,-661.59705)">
    <path
       inkscape:connector-curvature="0"
       class="st1"
       d="m 103.75631,710.49702 c 2.5,-2.1 3.5,-7.6 3.5,-7.6 4.2,-3.2 4,-8 2.1,-7.9 -1.6,0 -1.2,-1.1 -1.2,-1.1 2.6,-21.4 -16.300001,-22.3 -16.300001,-22.3 l -2.9,0 c 0,0 -18.9,0.9 -16.3,22.2 0,0 0.3,1.2 -1.2,1.2 -2,-0.1 -2.1,4.6 2.1,7.9 0,0 1,5.6 3.5,7.6 0,0 0.5,2.1 0.5,5.1 l 25.700001,0 c 0,-3 0.5,-5.1 0.5,-5.1 z"
       id="head"
       onclick="alert(1)"
       inkscape:label="#path5-4" />
    <path
       inkscape:connector-curvature="0"
       class="st1"
       d="m 60.81299,910.07272 c 1.5,5.3 0.6,18.8 1.8,22.1 0.5,1.4 0.3,2.9 -0.9,6.2 -4.1,11.5 -3.6,19.6 6.7,50 0,0 3.2,6.7 1.6,18.89998 0,0 -6.6,13.5 -2.3,13.8 0,0 0.3,0.9 1.7,0.2 0,0 2.2,2.3 4.7,1.1 0,0 2.3,1.8 4.2,0.2 0,0 1.6,1.8 3.9,0.3 0,0 3,2 4.7,-0.2 0,0 3.2,0.7 -2.5,-13.5 0,0 -2.2,-14.99998 -3.3,-17.89998 -2.2,-5.6 -0.7,-20.9 -0.2,-24.2 0.8,-5.5 0.3,-14.8 -1.1,-22.1 -1,-5.2 1.8,-15.4 2.8,-21.4 1.8,-10.6 5,-35.5 5.7,-46.5 l -32.8,0 c 1.5,12 3.4,26.2 5.3,33 z"
       id="left-leg"
       inkscape:label="#path5" />
    <path
       inkscape:connector-curvature="0"
       class="st1"
       d="m 97.684157,923.80155 c 1,6 3.799993,16 2.799993,21.2 -1.399993,7.3 -1.799993,16.7 -0.999993,22.2 0.499997,3.3 2.099993,18.7 -0.2,24.3 -1.2,2.9 -3.3,18.00005 -3.3,18.00005 -5.6,14.2 -2.5,13.5 -2.5,13.5 1.7,2.2 4.7,0.2 4.7,0.2 2.299993,1.4 3.899993,-0.3 3.899993,-0.3 1.9,1.6 4.2,-0.2 4.2,-0.2 2.5,1.2 4.7,-1.1 4.7,-1.1 1.4,0.7 1.7,-0.2 1.7,-0.2 4.2,-0.3 -2.3,-13.7 -2.3,-13.7 -1.6,-12.10005 1.6,-18.80005 1.6,-18.80005 10.2,-30.6 10.7,-38.6 6.6,-50.1 -1.2,-3.3 -1.4,-4.6 -0.9,-6.1 1.2,-3.3 0.3,-17.1 1.8,-22.4 1.9,-6.8 3.8,-21 5.3,-33 l -32.699993,0 c 0.7,11 3.8,35.9 5.6,46.5 z"
       id="right-leg"
       inkscape:label="#path7" />
    <path
       inkscape:connector-curvature="0"
       class="st1"
       d="m 60.538347,823.43679 c 0,0 -9.1,22 -7.1,38.3 0.4,3.5 1,8.3 1.6,13.3 l 33.200001,0 c 0,-1 0,-2.1 0,-2.7 l 1.7,0.6 c 1.3,0 2.1,-0.5 2.1,-0.5 -0.1,0.6 -0.1,1.7 0,2.7 l 33.300012,0 c 0.6,-5 1.1,-9.7 1.6,-13.2 2,-16.3 -7.1,-38.4 -7.1,-38.4 -1.1,-5 -0.7,-17.4 -0.1,-27.4 l -59.200013,0 c 0.6,9.9 1.1,22.3 0,27.3 z"
       id="abdomen"
       inkscape:label="#path5-40" />
    <path
       inkscape:connector-curvature="0"
       class="st1"
       d="m 60.518419,794.24838 59.400011,0 c 0,0 -0.2,0 -0.2,-0.2 l 0,-64.3 c -13,-2.3 -14.9,-6.9 -14.9,-6.9 -1,-1.5 -1.4,-3.6 -1.6,-5.6 l -25.900011,0 c -0.2,2 -0.5,4.2 -1.6,5.6 0,0 -2,4.7 -15,6.9 l 0,63.6 c 0,0.4 -0.2,-0.1 -0.2,0.9 z"
       id="torso"
       inkscape:label="#path5-2" />
    <path
       inkscape:connector-curvature="0"
       class="st1"
       d="m 154.61605,845.906 c -2.1,-2.6 -4.8,-6.1 -5.5,-8.2 -1.3,-3.5 -2.2,-14.8 -2.2,-14.8 -0.4,-13.3 -3.7,-19.1 -3.7,-19.1 -5.6,-9 -6.7,-25.8 -6.7,-25.8 l -0.2,-28.4 c -1.6,-16.2 -12,-19 -15,-19.5 l 0,57.1 c 2,6.3 2.1,14 2.1,14 -0.6,11.7 9.4,29.6 9.4,29.6 4.9,7.4 6.7,14.4 6.7,14.9 0,2.1 -0.5,7.3 -0.5,7.3 l 0.2,4.5 c 0.1,1.2 0.7,5.1 0.6,7 -0.7,11.7 1.1,9.5 1.1,9.5 1.6,0 3.3,-9.4 3.3,-9.4 0,2.4 -0.6,9.7 0.7,12.5 1.6,3.2 2.7,-0.6 2.7,-1.3 0.4,-14.9 1.3,-11 1.3,-11 0.9,12.1 1.9,14.9 3.9,13.9 1.5,-0.7 0.1,-14.5 0.1,-14.5 2.5,8.2 4.4,9.5 4.4,9.5 4.1,2.9 1.6,-5.1 1,-6.7 -3.1,-8.4 -3.1,-11.3 -3.1,-11.3 3.8,7.6 6.7,7.3 6.7,7.3 3.8,-1.3 -3.2,-11.9 -7.3,-17.1 z"
       id="right-arm"
       inkscape:label="#path7-5" />
    <path
       inkscape:connector-curvature="0"
       class="st1"
       d="m 44.300203,749.42785 -0.2,28.4 c 0,0 -1,16.8 -6.7,25.8 0,0 -3.2,5.8 -3.6,19.1 0,0 -0.9,11.3 -2.2,14.8 -0.8,2.1 -3.4,5.6 -5.500001,8.2 -4.1,5.1 -11,15.8 -7.3,17 0,0 2.9,0.3 6.7,-7.3 0,0 -0.1,2.9 -3.1,11.3 -0.6,1.6 -3.1,9.5 1,6.7 0,0 1.9,-1.3 4.400001,-9.5 0,0 -1.300001,13.8 0.1,14.5 2,0.9 3,-1.8 3.9,-13.9 0,0 0.9,-3.9 1.3,11 0,0.8 1.2,4.6 2.7,1.3 1.3,-2.7 0.7,-10 0.7,-12.5 0,0 1.7,9.4 3.3,9.4 0,0 1.9,2.2 1.1,-9.5 -0.2,-1.9 0.5,-5.9 0.6,-7 l 0.2,-4.5 c 0,0 -0.5,-5.1 -0.5,-7.3 0,-0.5 1.8,-7.6 6.7,-14.9 0,0 9.9,-17.9 9.3,-29.6 0,0 0,-7.7 2,-13.9 l 0,-57 c -3.1,0.5 -13.3,3.5 -14.9,19.4 z"
       id="left-arm"
       inkscape:label="#path5-0" />
  </g>
</svg>
