<?xml version="1.0" encoding="utf-8"?>
<!-- Generator: Adobe Illustrator 19.1.0, SVG Export Plug-In . SVG Version: 6.00 Build 0)  -->
<svg version="1.1" id="Layer_1" xmlns="http://www.w3.org/2000/svg" xmlns:xlink="http://www.w3.org/1999/xlink" x="0px" y="0px"
	 viewBox="0 0 180 180" style="enable-background:new 0 0 180 180;" xml:space="preserve">
<style type="text/css">
	.st0{fill:#3FA9F5;}
	.st1{clip-path:url(#SVGID_2_);fill:none;stroke:#0091DE;stroke-width:8;stroke-miterlimit:10;}
	.st2{clip-path:url(#SVGID_2_);}
	.st3{clip-path:url(#SVGID_4_);}
	.st4{fill:#0091DE;}
	.st5{clip-path:url(#SVGID_6_);fill:none;stroke:#CCCCCC;stroke-width:3;stroke-miterlimit:10;}
	.st6{display:none;}
	.st7{display:inline;fill:#3FA9F5;}
	.st8{display:inline;}
</style>
<g id="to_export">
	<path class="st0" d="M71.8,101.6c11.9,14.4,40.9,28.2,47.9,25.1s8.5-9.8,8.2-12.9s-16.2-12.6-20.2-14.4s-8.6,4-10.8,6.5
		c-2.3,2.4-11.1-4.9-14.9-8.6c0,0-10-11.2-7.7-13.6c2.3-2.4,8-7.2,6-11.1c-2-3.9-12.1-19.5-15.3-19.7c-3.1-0.2-9.7,1.6-12.5,8.7
		S63.1,95.8,78,107.1"/>
	<g class="st6">
		<path class="st7" d="M108,115.4c5.9-5.6,9.7-13.5,9.7-22.3c0-16.9-13.7-30.6-30.6-30.6c-16.2,0-29.3,12.5-30.5,28.4
			c-0.1,0.7-0.1,1.4-0.1,2.1c0,0,0,0.1,0,0.1c0,1,0.1,2,0.1,2.9c0.8,7.9,4.6,15,10.2,20c-0.2,0.3-0.4,0.5-0.6,0.8
			c-3.9,6.2-4.9,14.3-4.9,22.9c0.1,1.8,1.1,2.2,1.4,2.5c0.7,0.5,1.2,0.6,1.9,0.8c0.7,0.2,1.5,0.4,2.1,0.6c0.5,3.9,2.8,6.9,5.9,8.2
			c3.4,1.4,7.3,1.4,11.6,1.5c1.1,0,2.2,0,3.3,0c5.1,0,9.7,0.1,13.7-1.2c2-0.7,3.8-1.7,5.1-3.5c1.1-1.4,1.7-3.1,2-5
			c0.5-0.2,1.1-0.3,1.7-0.5c0.5-0.2,1-0.3,1.5-0.6c0.3-0.1,0.6-0.3,0.9-0.6c0.3-0.3,1-0.9,1.1-2.2c0-8.5-0.8-16.5-4.5-22.8
			C108.7,116.4,108.4,115.9,108,115.4z M61.8,93.1C61.8,93.1,61.8,93.1,61.8,93.1l3.8-5.8c0,0,5.7,4.1,17.8,6.8
			c12.1,2.7,23.5-0.1,23.5-0.1s2.2,4.2,4.4,6.7c-3.3,10.2-12.8,17.6-24.1,17.6C73.1,118.4,61.8,107.1,61.8,93.1z M91.5,123.4
			c-0.2,0.3-0.3,0.6-0.6,0.9c-0.7,0.8-1.6,1.5-3.9,1.5c-3.1-0.1-3.9-1.2-4.7-2.4c0,0,0,0,0,0c1.6,0.3,3.2,0.4,4.9,0.4
			C88.6,123.8,90,123.6,91.5,123.4z M106.7,138.5c-0.5,0.2-1,0.3-1.5,0.6c0,0,0,0,0,0l-1.8-13.1c0,0,0.3,5.7,0.5,9.4
			c0.1,2.2-0.1,4-0.3,5.1c-0.2,0.3-0.3,0.7-0.4,1.3c-0.1,1.8-0.6,2.8-1.1,3.5c-0.8,1.1-2.3,1.8-4.9,2.2c-2.5,0.4-5.9,0.4-9.8,0.4
			c-1.1,0-2.2,0-3.3,0c-4.2,0-7.6-0.2-9.5-1c-1.7-0.9-2.5-1.6-2.8-5.1c-0.1-0.6-0.3-1.1-0.5-1.4c-0.2-1.1-0.4-2.8-0.2-5
			c0.2-3.7,0.5-9.4,0.5-9.4l-1.8,13.1c-1.1-0.5-2-0.7-3-1c-0.1,0-0.1,0-0.2-0.1c0.1-7.5,1.3-14,4.1-18.4c0.1-0.2,0.2-0.3,0.3-0.5
			c1.6,1,3.4,1.9,5.2,2.5c0.1,0.9,0.4,2.5,1.3,4.1c1.3,2.6,4.5,5.3,9.4,5.3c0.1,0,0.2,0,0.2,0c4.7,0,7.8-2.8,9-5.3
			c0.7-1.5,1-2.9,1.2-3.8c2.3-0.8,4.4-1.9,6.4-3.2c0.2,0.3,0.4,0.6,0.6,0.9c2.7,4.4,3.7,10.9,3.8,18.5
			C107.8,138.2,107.2,138.4,106.7,138.5z M94.2,107.1c1.7,0,3.1-2.2,3.1-5s-1.4-5-3.1-5s-3.1,2.2-3.1,5S92.5,107.1,94.2,107.1z
			 M71.2,110.9c0.1,0.1,6.7,5.3,16.6,5.3c10,0,16.3-6.2,16.4-6.3c0.5-0.5,0.5-1.4,0-1.9c-0.5-0.5-1.4-0.5-1.9,0c0,0-0.3,0.3-1,0.8
			c-2,1.6-7,4.8-13.6,4.8c-4.5,0-8.2-1.2-10.9-2.4c-1.3-0.6-2.4-1.2-3-1.6c-0.7-0.4-1-0.7-1-0.7c-0.6-0.5-1.4-0.4-1.9,0.2
			C70.5,109.6,70.6,110.4,71.2,110.9L71.2,110.9z M80.6,107.1c1.7,0,3.1-2.2,3.1-5s-1.4-5-3.1-5c-1.7,0-3.1,2.2-3.1,5
			S78.9,107.1,80.6,107.1z"/>
	</g>
	<g class="st6">
		<path class="st7" d="M87.1,107.1c-2.6,0-4.8,1-4.8,2.3c0,1.3,2.1,2.3,4.8,2.3c2.6,0,4.8-1,4.8-2.3
			C91.9,108.1,89.7,107.1,87.1,107.1z M113.3,91.4c0-14.3-11.6-25.9-25.9-25.9c0,0,0,0-0.1,0c0,0,0,0,0,0l0,0c-0.1,0-0.2,0-0.3,0
			l0,0c-0.4,0-0.7,0-1.1,0c-0.2,0-0.4,0-0.6,0c-0.1,0-0.3,0-0.4,0c-0.1,0-0.2,0-0.3,0c-0.4,0-0.9,0.1-1.3,0.2
			c-0.2,0-0.4,0.1-0.5,0.1c-0.5,0.1-1,0.2-1.5,0.3c-0.2,0-0.3,0.1-0.5,0.1c-0.5,0.1-1.1,0.3-1.6,0.5c-0.1,0-0.1,0-0.2,0.1l0,0
			c-1.7,0.6-3.4,1.4-5,2.3l-0.2,0.2c-1.6,1-3.1,2.1-4.4,3.5l-0.5,0.5c0,0,0,0,0,0c0,0,0,0,0,0l-0.1,0.1l0,0
			c-4.8,4.7-7.8,11.3-7.8,18.6c0,8.1,3.7,15.3,9.4,20.1c-7.4,6.1-9.2,16.7-9.2,28.2c0.1,1.1,0.7,1.4,1,1.6c0.6,0.4,1.1,0.5,1.6,0.7
			c0.9,0.3,1.8,0.5,2.6,0.8c0.1,0,0.2,0.1,0.3,0.1c0.3,4.2,2.4,7.1,5.5,8.4c3.2,1.4,7.1,1.4,11.6,1.4c1.1,0,2.2,0,3.4,0
			c5.3,0,10.1,0,13.9-1.2c1.9-0.6,3.6-1.7,4.8-3.2c1.1-1.4,1.7-3.2,2-5.3c0.5-0.2,1.3-0.4,2.1-0.6c0.6-0.2,1.2-0.4,1.7-0.6
			c0.3-0.1,0.5-0.2,0.8-0.5c0.3-0.2,0.8-0.6,0.8-1.5c0-6.3-0.4-12.3-2-17.4c-1.3-4.4-3.6-8.2-7.1-11c3.2-2.8,5.8-6.3,7.3-10.4
			c-0.1,0-0.3,0-0.4-0.1l0.4,0l0.2-0.6c1-2.5,1.6-5.2,1.7-8l0,0l0-0.2C113.3,92.2,113.3,91.8,113.3,91.4z M94.4,68.6
			c1.5,0.4,3.8,1.4,4.4,1.6l1.7,1c0,0-0.1-0.1-0.1-0.1c0.1,0.1,0.2,0.1,0.3,0.2c0.2,0.1,0.4,0.3,0.6,0.4c0.4,0.3,0.7,0.5,1.1,0.8
			c0.1,0.1,0.2,0.1,0.3,0.2c0.4,0.4,0.9,0.8,1.3,1.2c0.1,0.1,0.2,0.2,0.3,0.3c0.3,0.3,0.6,0.7,1,1c0.1,0.1,0.2,0.2,0.3,0.3
			c0.3,0.4,0.6,0.8,1,1.2c0.1,0.1,0.1,0.1,0.2,0.2c0.4,0.5,0.7,1,1,1.5c0,0,0,0.1,0.1,0.1c0.3,0.5,0.6,0.9,0.8,1.4
			c0.1,0.1,0.1,0.2,0.2,0.4c0.2,0.4,0.4,0.9,0.6,1.4c0,0.1,0.1,0.2,0.1,0.3c0.5,1.1,0.9,2.3,1.2,3.5c0,0.1,0,0.2,0.1,0.3
			c0.1,0.5,0.2,1,0.3,1.5c0,0.1,0,0.1,0,0.2c-2.5-2.9-5.3-6.2-6.9-8.5c-2.7-3.7-9.4-8.5-13.7-11.5C91.7,67.9,93.3,68.3,94.4,68.6z
			 M85,67.4c0.1,0,0.2,0,0.3,0c0.3,0,0.6,0,0.9-0.1c0.2,0,0.4,0,0.6,0c3.3,2.1,13.1,8.8,16,12.9c0.9,1.2,2,2.7,3.3,4.2
			c-1.9-1.3-3.8-2.6-5.4-3.4c-3.6-1.7-7.9-4.8-11.8-7.7c-2.8-2.1-5.4-4-7.3-5.3C82.6,67.7,83.8,67.5,85,67.4z M108,123.8
			c1.4,4.4,1.8,9.8,1.9,15.7c-0.6,0.2-1.5,0.5-2.4,0.7c-0.1,0-0.3,0.1-0.4,0.1l-1.9-14.2c0,0-0.4,15.8-0.5,16.4
			c-0.1,2-0.6,3.4-1.4,4.4c-1.1,1.4-3,2.3-5.8,2.7c-2.8,0.4-6.3,0.5-10.3,0.5c-1.2,0-2.3,0-3.4,0c-4.4,0-8.1-0.2-10.3-1.2
			c-2.2-1-3.3-2.4-3.6-6.4c-0.7-5.6-0.1-16.4-0.1-16.4l-2,14.3l0.1,0.1c-0.8-0.3-1.6-0.5-2.4-0.7c-0.4-0.1-0.8-0.2-1-0.3
			c0.1-11.2,2.2-20.5,8.6-25.3c1.1,0.7,2.3,1.3,3.6,1.9c0.1,0.8,0.5,2.1,1.4,3.4c1.4,2.1,4.4,4.1,9.3,4.1h0.1c4.8,0,7.6-2,9-4.2
			c0.8-1.3,1.2-2.6,1.3-3.4c1.3-0.6,2.5-1.3,3.7-2C104.6,116.2,106.6,119.5,108,123.8z M80.3,117.3c1.7,0.4,3.4,0.7,5.2,0.8
			c0.2,0,0.4,0,0.7,0c0.2,0,0.4,0,0.6,0c0,0,0,0,0.1,0c0,0,0.1,0,0.1,0c2.3,0,4.6-0.3,6.8-0.9c-0.2,0.5-0.6,0.9-1,1.3
			c-1,0.9-2.6,1.7-5.6,1.8c-4.1,0-5.7-1.4-6.6-2.7C80.4,117.5,80.4,117.4,80.3,117.3z M101.1,109.9L101.1,109.9l-1,0.6
			c-3.8,2.7-8.4,4.4-13.3,4.4c-0.1,0-0.3,0-0.4,0c-0.3,0-0.5,0-0.8,0c-11.4-0.7-20.6-9.7-21.5-21l4.5-6.7c0,0,4.9,3.5,15.1,5.8
			c3.9,0.9,7.7,1.1,11,1c0,0,0.1,0.1,0.1,0.1c6.5,4.1,10.6,6,13.2,6.8C106.5,104.4,104.2,107.6,101.1,109.9z M110.1,99.5
			c-2-0.4-6.3-1.9-14.3-7c-11.9-7.5-21.7-16.3-24.6-19c1-0.9,2.1-1.7,3.2-2.5c4.8,2.6,12.9,10.1,18.9,13.6c5.2,3,13.6,7.5,17.6,11.7
			C110.8,97.4,110.5,98.5,110.1,99.5z M111.3,94.1c-4.6-4.2-12.2-8.2-17-11c-5.4-3.1-12.8-9.9-18-13.1c0.9-0.5,1.9-0.9,2.9-1.3
			c1.7,0.9,4.9,3.3,8.5,6c3.9,2.9,8.3,6,12.1,7.9c3.1,1.5,7.4,5,10.8,7.2c0.3,0.3,0.5,0.6,0.8,0.9c0,0.2,0,0.5,0,0.7
			C111.4,92.3,111.4,93.2,111.3,94.1z M93.2,99.2l-1.4-1.4c-0.4-0.4-1-0.4-1.3,0c-0.4,0.4-0.4,1,0,1.3l1.4,1.4l-1.4,1.4
			c-0.4,0.4-0.4,1,0,1.3c0.2,0.2,0.4,0.3,0.7,0.3c0.2,0,0.5-0.1,0.7-0.3l1.4-1.4l1.4,1.4c0.2,0.2,0.4,0.3,0.7,0.3
			c0.2,0,0.5-0.1,0.7-0.3c0.4-0.4,0.4-1,0-1.3l-1.4-1.4l1.4-1.4c0.4-0.4,0.4-0.9,0-1.3c-0.4-0.4-1-0.4-1.3,0L93.2,99.2z M83.4,103.2
			c0.4-0.4,0.4-0.9,0-1.3l-1.4-1.4l1.4-1.4c0.4-0.4,0.4-1,0-1.3c-0.4-0.4-0.9-0.4-1.3,0l-1.4,1.4l-1.4-1.4c-0.4-0.4-0.9-0.4-1.3,0
			c-0.4,0.4-0.4,1,0,1.3l1.4,1.4l-1.4,1.4c-0.4,0.4-0.4,1,0,1.3c0.2,0.2,0.4,0.3,0.7,0.3s0.5-0.1,0.7-0.3l1.4-1.4l1.4,1.4
			c0.2,0.2,0.4,0.3,0.7,0.3C83,103.5,83.2,103.4,83.4,103.2z"/>
	</g>
	<g class="st6">
		<ellipse class="st7" cx="93.6" cy="95.6" rx="2.8" ry="4.6"/>
		<ellipse class="st7" cx="81.1" cy="95.6" rx="2.8" ry="4.6"/>
		<path class="st7" d="M87.7,108.5c9.2,0,15-6.3,15-6.4c0.3-0.3,0.3-0.9,0-1.2c-0.3-0.3-0.9-0.3-1.2,0c0,0-0.3,0.3-1,0.9
			c-1.9,1.7-6.6,5-12.8,4.9c-4.2,0-7.7-1.2-10.2-2.5c-1.2-0.6-2.2-1.2-2.9-1.7c-0.7-0.5-1-0.8-1-0.8c-0.4-0.3-0.9-0.3-1.2,0.1
			c-0.3,0.4-0.3,0.9,0.1,1.2C72.6,103.2,78.6,108.5,87.7,108.5z"/>
		<path class="st7" d="M105.4,108.7c6-5.1,9.8-12.8,9.8-21.3c0-15.5-12.6-28.1-28.1-28.1C71.6,59.3,59,71.9,59,87.4
			C59,96,63,103.8,69.2,109c-8,6.6-9.9,17.9-9.9,30.3c0.1,1.2,0.7,1.5,1,1.8c0.6,0.4,1.1,0.5,1.8,0.8c0.9,0.3,2,0.6,2.8,0.8
			c0.1,0,0.2,0.1,0.3,0.1c0.4,4.5,2.6,7.6,5.9,9c3.4,1.5,7.7,1.5,12.5,1.6c1.2,0,2.4,0,3.7,0c5.8,0,10.8,0,14.9-1.3
			c2-0.7,3.8-1.8,5.2-3.5c1.2-1.5,1.9-3.4,2.1-5.8c0.5-0.2,1.4-0.5,2.2-0.7c0.6-0.2,1.2-0.4,1.8-0.6c0.3-0.1,0.6-0.3,0.9-0.5
			c0.3-0.2,0.8-0.6,0.9-1.7c0-6.8-0.5-13.2-2.2-18.8C111.6,115.8,109.1,111.7,105.4,108.7z M62.6,89.3l4.8-7.2c0,0,5.2,3.8,16.3,6.3
			s21.5-0.1,21.5-0.1s2.9,5.5,5.1,7.3c-1.6,4.4-4.4,8.2-7.9,11.1l-0.1-0.1l-0.9,0.7c-4,2.9-9,4.7-14.4,4.7c-0.1,0-0.3,0-0.4,0
			c-0.3,0-0.6,0-0.9,0C73.4,111.2,63.5,101.5,62.6,89.3z M86.8,130.9h0.6c1.1,0.2,2,1.1,2,2.2c0,1.2-1,2.3-2.3,2.3s-2.3-1-2.3-2.3
			C84.8,132,85.7,131,86.8,130.9z M87.3,117.8c-4.4,0-6.2-1.5-7.1-2.9c-0.1-0.1-0.2-0.2-0.2-0.4c1.8,0.5,3.7,0.7,5.6,0.8
			c0.2,0,0.5,0,0.7,0c0.2,0,0.4,0,0.6,0c0,0,0,0,0.1,0c0,0,0.1,0,0.1,0c2.5,0,5-0.3,7.3-1c-0.3,0.5-0.6,1-1.1,1.4
			C92.3,116.9,90.5,117.8,87.3,117.8z M109.1,139.2c-0.2,0.1-0.3,0.1-0.5,0.2l-2.1-15.3c0,0-0.5,17-0.5,17.6
			c-0.1,2.2-0.7,3.6-1.5,4.7c-1.2,1.6-3.2,2.5-6.2,3c-3,0.5-6.8,0.5-11.1,0.5c-1.3,0-2.5,0-3.7,0c-4.8,0-8.7-0.2-11.1-1.3
			c-2.3-1.1-3.6-2.6-3.9-6.9c-0.8-6-0.1-17.6-0.1-17.6l-2.1,15.4l0.1,0.1c-0.8-0.3-1.7-0.5-2.6-0.8c-0.4-0.1-0.8-0.2-1.1-0.3
			c0.1-12.1,2.3-22.1,9.3-27.2c1.2,0.8,2.5,1.4,3.9,2c0.1,0.9,0.5,2.3,1.5,3.7c1.3,2,3.8,3.8,7.8,4.3v6.1c-2.5,0.8-4.3,3.2-4.3,5.9
			c0,3.5,2.8,6.3,6.3,6.3s6.3-2.8,6.3-6.3c0-2.8-1.8-5.1-4.3-5.9v-6c4.1-0.4,6.7-2.4,8-4.4c0.9-1.4,1.3-2.8,1.4-3.7
			c1.4-0.6,2.7-1.3,4-2.2c3.6,2.5,5.8,6.1,7.2,10.7c1.5,4.8,2,10.6,2,16.9C111,138.6,110,138.9,109.1,139.2z"/>
	</g>
	<g class="st6">
		<g class="st8">
			<path class="st0" d="M93.1,105.8c1.4,0,2.3-1.1,2.3-2.3v-2.9c0-1.4-1.1-2.3-2.3-2.3s-2.3,1.1-2.3,2.3v2.9
				C90.8,104.7,91.9,105.8,93.1,105.8z"/>
			<path class="st0" d="M84.4,110l5.2,1.1h0.2c0.5,0,0.9-0.3,1.1-0.9c0.2-0.6-0.3-1.2-0.9-1.2l-5.2-1.1c-0.6-0.2-1.2,0.3-1.2,0.9
				C83.5,109.4,83.8,109.9,84.4,110z"/>
			<path class="st0" d="M81.4,105.8c1.4,0,2.3-1.1,2.3-2.3v-2.9c0-0.2,0-0.2,0-0.3H79c0,0.2,0,0.2,0,0.3v2.9
				C79,104.7,80,105.8,81.4,105.8z"/>
			<path class="st0" d="M79.3,30h2.9c0.8,0,1.4-0.6,1.4-1.4c0-2.9,4.1-3,4.6-3c4.9,0,4.9,2.1,4.9,2.9c0,1.7-1.1,2.1-2.9,2.9
				c-3.3,1.2-5.5,3-5.5,8.2c0,0.8,0.6,1.4,1.4,1.4h2.9c0.8,0,1.4-0.6,1.4-1.4c0-2.6,0.3-2.7,2-3.3c0.2-0.2,0.5-0.2,0.8-0.3
				c2.1-0.9,5.6-2.4,5.6-7.4c0-2.3-0.8-4.1-2.1-5.6C94.6,21,91.7,20,88.1,20c-6.2,0-10.3,3.3-10.3,8.3C77.9,29.4,78.5,30,79.3,30z"
				/>
			<path class="st0" d="M87.5,43.1c-1.8,0-3.3,1.4-3.3,3.3c0,1.8,1.4,3.3,3.3,3.3c1.8,0,3.3-1.4,3.3-3.3
				C90.8,44.6,89.3,43.1,87.5,43.1z"/>
			<path class="st0" d="M103.7,49.7c-1.2,0-2.1,0.9-2.1,2.1s0.9,2.1,2.1,2.1s2.1-0.9,2.1-2.1S104.9,49.7,103.7,49.7z"/>
			<path class="st0" d="M98.4,41.4h1.8c0.5,0,0.9-0.5,0.9-0.9c0-1.8,2.6-2,2.9-2c3,0,3,1.4,3,1.8c0,1.1-0.6,1.4-1.8,1.8
				c-2.1,0.8-3.5,2-3.5,5.3c0,0.5,0.5,0.9,0.9,0.9h1.8c0.5,0,0.9-0.5,0.9-0.9c0-1.7,0.2-1.8,1.2-2.1c0.2,0,0.3-0.2,0.5-0.2
				c1.4-0.6,3.6-1.5,3.6-4.7c0-1.4-0.5-2.6-1.4-3.5c-1.2-1.2-3-1.8-5.3-1.8c-3.9,0-6.5,2.1-6.5,5.3C97.7,41.1,98,41.4,98.4,41.4z"/>
			<path class="st0" d="M70.2,42.3h1.2c0.3,0,0.6-0.3,0.6-0.6c0-1.4,1.8-1.4,2-1.4c2.1,0,2.1,0.9,2.1,1.4c0,0.8-0.5,0.9-1.2,1.4
				c-1.5,0.5-2.4,1.4-2.4,3.6c0,0.3,0.3,0.6,0.6,0.6h1.4c0.3,0,0.6-0.3,0.6-0.6c0-1.2,0.2-1.2,0.9-1.5l0.3-0.2
				c0.9-0.5,2.6-1.1,2.6-3.3c0-1.1-0.3-1.8-0.9-2.4c-0.8-0.8-2.1-1.2-3.6-1.2c-2.7,0-4.6,1.5-4.6,3.8C69.6,42.1,69.7,42.3,70.2,42.3
				z"/>
			<path class="st0" d="M73.8,48.2c-0.9,0-1.5,0.6-1.5,1.5c0,0.9,0.6,1.5,1.5,1.5c0.9,0,1.5-0.6,1.5-1.5
				C75.3,48.8,74.6,48.2,73.8,48.2z"/>
			<path class="st0" d="M104.5,111.1c3.2-2.9,5.8-6.4,7.4-10.5c0.2-0.2,0.2-0.5,0.3-0.6c2.3-5.2,4.3-17.3,0.9-25.2
				c-4.3-9.6-16.5-14.4-20.6-15c-0.5-0.2-1.2-0.3-1.2-0.3l0.3-2.7L89.8,59L86,56.7l1.4,2.6c0,0-17.9,0.3-25,13.4
				c-5.2,9.3-2.7,23.5,0.3,28.5c1.7,4.1,4.4,7.7,7.7,10.5c-1.7,1.4-3,3-4.3,4.9c-3.3,5.5-5,12.9-5,23.7c0,1.7,1.7,2.1,3.9,2.7
				c0.5,0.2,1.2,0.3,1.7,0.5c0.9,9.9,9.6,9.9,17.3,9.9h3.5c10.6,0,19.9,0,20.9-9.9c0.5-0.2,1.1-0.3,1.5-0.5c2.3-0.6,3.8-1.1,3.8-2.7
				C113.9,128.2,112.4,117.1,104.5,111.1z M64.1,93c1.1-1.2,2.4-2.6,3.2-3.8c0.9-1.2,1.7-3.3,2.1-4.9c3.8,3.5,10,8.2,16.2,9.3
				c9.7,1.5,17.5,0.6,17.5,0.6l-3.3-2.3c0,0,7.4,2.3,8.7,2.4c0.6,0,1.2-0.2,1.8-0.3c-1.5,11.4-11.2,20-22.9,20
				C75,114.3,65.2,104.8,64.1,93z M93.4,116.8c-1.2,1.1-3.5,2-6.5,2c-3.2,0-5.6-0.9-6.7-2.1c2.3,0.6,4.6,0.9,7,0.9
				C89.3,117.6,91.4,117.3,93.4,116.8z M86.4,149.9H84c-9.6,0-13.8-0.8-14.1-7.7c0-0.2,0-0.3,0-0.5l0,0c0,0,0-0.2,0-0.5h4.6
				c-0.2,0.5-0.6,0.9-0.9,1.4c-0.8,0.8-1.8,1.1-1.8,1.1l0.3,1.1l0.2,1.1c0.2,0,1.7-0.5,2.9-1.7c1.1-1.1,1.7-2.6,1.7-2.9h9.7V149.9z
				 M105.4,141.9c0,0.2,0,0.3,0,0.3c-0.5,7.1-5.8,7.6-16.5,7.7v-8.5h9.6c0.2,0.3,0.8,1.8,1.7,2.9c1.2,1.2,2.7,1.7,2.9,1.7l0.5-2.1
				c0,0-1.1-0.3-1.8-1.1c-0.5-0.5-0.8-0.9-0.9-1.4h4.7C105.4,141.7,105.4,141.9,105.4,141.9L105.4,141.9z M109,139.6
				c-0.6,0.2-1.1,0.3-1.5,0.5c0-0.2,0-0.2-0.2-0.3l-2.6-14.3c0,0,0.2,5.8,0.5,9.6c0.2,1.5,0.2,3,0.2,4.1H69.9c0-1.2,0-2.6,0.2-4.1
				c0.2-3.8,0.5-9.6,0.5-9.6l-2.6,14.6c-0.5-0.2-1.1-0.3-1.7-0.5c-0.5-0.2-1.1-0.3-1.5-0.5c0.2-12.9,2.9-21.3,8.8-25.7
				c1.4,0.9,2.7,1.5,4.3,2.1c0.5,3,4.4,5.2,9.6,5.2c5,0,9-2.1,9.6-5c2-0.8,3.6-1.7,5.3-2.7c6.8,4.7,8.7,13.8,8.8,26.1
				C110.1,139.3,109.5,139.5,109,139.6z"/>
		</g>
	</g>
	<g class="st6">
		<path class="st7" d="M79.1,104.6c-2.4-8.9,4.4-15.7,10.3-16.7c5.8-1,10.6,3.8,15.4,8.5c4.8-4.8,9.6-9.6,15.4-8.5
			c5.8,1,12.6,7.9,10.3,16.7c-2.4,8.9-14,19.8-25.6,30.8C93.1,124.4,81.5,113.4,79.1,104.6z"/>
		<path class="st7" d="M49.1,44.7l45.3,0l23.4,23.4v15.6l-6.2,1.6v-9.4h-25v-25H55.4v68.8l28.9,0l4.7,6.2l-39.8,0V44.7z M92.9,52.5
			v17.2h17.2L92.9,52.5z"/>
	</g>
	<g class="st6">
		<path class="st7" d="M103.8,49.4H76.2c-0.4,0-0.6,0.3-0.6,0.6v10.3c0,0.4,0.3,0.6,0.6,0.6h27.6c0.4,0,0.6-0.3,0.6-0.6V50
			C104.5,49.6,104.2,49.4,103.8,49.4z M81.8,58h-3.4v-5.8h3.4V58z"/>
		<path class="st7" d="M107.5,70.4c-2.8-0.9-4.9-3.3-5.7-6.2H96c0.8,5.5,4.6,9.9,9.7,11.6c3.4,1.2,5.8,4.4,5.8,8.3v2.9H74.3v14.5
			h-5.8V84.1c0-3.8,2.4-7,5.8-8.2c5.1-1.7,8.9-6.2,9.7-11.7h-5.9c-0.7,2.9-2.9,5.2-5.7,6.2c-5.7,2-9.8,7.4-9.8,13.8v40.4
			c0,3.3,2.7,6.1,6,6.1h42.6v0c3.3,0,6.1-2.7,6.1-6.1V84.2C117.4,77.8,113.3,72.4,107.5,70.4z M102.9,112H79.7v-3.8h23.2L102.9,112
			L102.9,112z M102.9,104.4H79.7v-3.8h23.2L102.9,104.4L102.9,104.4z M102.9,96.7H79.7v-3.8h23.2L102.9,96.7L102.9,96.7z"/>
	</g>
	<g class="st6">
		<g class="st8">
			<path class="st0" d="M73.8,64.4c1.5,0,3.1,0.2,4.8,0.7c1.7,0.5,3.9,1.3,5.6,2.4c1.1-0.7,2.3-1.2,3.7-1.7V56
				c0-0.6-1.6-1.3-2.3-1.3H64.3c-0.6,0-1.8,0.6-1.8,1.3v12.4c2.8-1.1,3.2-2.1,4.9-2.8C69.5,64.9,71.8,64.4,73.8,64.4z"/>
			<path class="st0" d="M85.1,118l-1.4,0l-1.4,0v-0.1L60.7,95.6c-0.7-0.7-1-1.5-1.7-2.4c-0.7-0.9-1.1-2-1.6-3.1
				c-0.5-1.1-0.9-2.4-1.2-3.6c-0.3-1.3-0.4-3.1-0.4-4.4c0-1.5,0.2-1.9,0.6-4.7H40.9c-0.6,0-0.9,1.5-0.9,2.2v21.3
				c0,0.6,0.2,1.9,0.9,1.9h21.7v21.6c0,0.6,1.1,1,1.8,1h21.3c0.6,0,2.3-0.3,2.3-1v-9.4L85.1,118L85.1,118z"/>
			<path class="st0" d="M139.3,77.3h-21.8V56c0-0.6-1-1.3-1.6-1.3H94.6c-0.6,0-2.4,0.6-2.4,1.3v21.3h-21c-0.6,0-1.5,1.5-1.5,2.2
				v21.3c0,0.6,0.9,1.9,1.5,1.9h21v21.6c0,0.6,1.8,1,2.4,1h21.3c0.6,0,1.6-0.3,1.6-1v-21.6h21.8c0.6,0,0.7-1.3,0.7-1.9V79.5
				C140,78.9,139.9,77.3,139.3,77.3z"/>
		</g>
	</g>
	<g class="st6">
		<path class="st7" d="M130.7,64.7c-4.6-9.1-13.1-14.3-23.2-14.3l-0.1,0c-8,0-13.8,3.5-17.3,6.5c-3.5-3-9.3-6.5-17.3-6.5l-0.2,0
			c-10.1,0-18.6,5.2-23.2,14.3c-5.6,11-4.1,25.4,3.6,35.9c7.8,10.7,16.9,16.5,28.4,23.9l0.6,0.4c1.4,0.9,2.9,1.9,4.5,2.9l2.4,1.5
			c0.4,0.3,0.9,0.4,1.4,0.4s1-0.1,1.4-0.4l2.4-1.5c1.6-1,3.1-2,4.5-2.9l0.5-0.3c11.5-7.4,20.5-13.2,28.4-23.9
			C134.8,90.1,136.3,75.7,130.7,64.7z M55.2,87.8l3.2,7.2c0.4,0.9,1.4,1.6,2.4,1.6c1,0,2-0.6,2.4-1.6l4.4-10.3l2.3,13.2
			c0.2,1.2,1.1,2,2.3,2.2c1.2,0.1,2.3-0.5,2.7-1.6l5-11.5l1.8,5.9c0.3,1,1.2,1.7,2.2,1.8c1.1,0.1,2.1-0.4,2.6-1.3l3.6-6.5H128
			c-1,3.9-2.7,7.6-5,10.7c-7.3,9.9-16,15.5-27,22.6l-0.5,0.3c-1.5,0.9-3,1.9-4.5,2.9l-1,0.6l-1-0.6c-1.6-1-3-2-4.5-2.9l-0.6-0.4
			c-11-7.1-19.7-12.7-27-22.6c-2.1-2.9-3.7-6.2-4.7-9.7H55.2z M86.3,83l-1.4,2.5l-2.1-6.8c-0.3-1-1.3-1.8-2.4-1.9l-0.1,0
			c-1,0-2,0.6-2.4,1.6l-4.3,10L71.2,75c-0.2-1.1-1.1-2-2.3-2.2c-0.1,0-0.2,0-0.3,0c-1.1,0-2,0.6-2.4,1.6l-5.4,12.9l-1.4-3.2
			c-0.4-0.9-1.4-1.6-2.4-1.6h-5.7c-0.6-5.6,0.3-11,2.6-15.6c3.7-7.3,10.5-11.6,18.6-11.6l0.2,0c7.4,0,12.6,3.7,15.6,6.7
			c0.9,0.9,2.7,0.9,3.6,0c3-3,8.1-6.6,15.6-6.7l0.1,0c8.1,0,14.9,4.2,18.6,11.6c2.2,4.3,3.1,9.4,2.7,14.6H88.6
			C87.6,81.6,86.8,82.1,86.3,83z"/>
	</g>
	<g class="st6">
		<path class="st7" d="M66.3,61.7c-1.6,0-3-1.3-3-3V46.4c0-1.6,1.3-3,3-3s3,1.3,3,3v12.3C69.2,60.3,67.9,61.7,66.3,61.7z"/>
		<path class="st7" d="M102.6,61.7c-1.6,0-3-1.3-3-3V46.4c0-1.6,1.3-3,3-3c1.6,0,3,1.3,3,3v12.3C105.5,60.3,104.2,61.7,102.6,61.7z"
			/>
		<path class="st7" d="M72.5,119.4h-3.5v-16h2.6c0.1-0.7,0.3-1.4,0.5-2.1h-3.1V85.8h12.9c1.1-1,2.3-1.8,3.5-2.6V68.7h14.3v9.5
			c0.7-0.1,1.4-0.1,2.1-0.1v-9.4h12.6v11.7c1.3,0.5,2.6,1.2,3.8,1.9V59.1c0-3.9-3.1-7-7-7h-3v6.6c0,3.2-2.6,5.7-5.7,5.7
			c-3.2,0-5.7-2.6-5.7-5.7v-6.6H72v6.6c0,3.2-2.6,5.7-5.7,5.7s-5.7-2.6-5.7-5.7v-6.6h-3c-3.9,0-7,3.1-7,7v57.1c0,3.9,3.1,7,7,7h16.5
			C73.5,122,73,120.7,72.5,119.4z M69.1,68.7h14.3v15H69.1V68.7z M67,119.4h-9.4c-1.8,0-3.2-1.4-3.2-3.2v-12.8H67V119.4z M67,101.3
			H54.4V85.8H67V101.3z M67,83.7H54.4v-15H67V83.7z"/>
		<polygon class="st7" points="115.6,105.5 106.8,105.5 106.8,96.7 98.4,96.7 98.4,105.5 89.6,105.5 89.6,113.9 98.4,113.9 
			98.4,122.7 106.8,122.7 106.8,113.9 115.6,113.9 		"/>
		<path class="st7" d="M102.6,136.6c-14.8,0-26.9-12-26.9-26.9c0-14.8,12-26.9,26.9-26.9c14.8,0,26.9,12,26.9,26.9
			C129.4,124.5,117.4,136.6,102.6,136.6z M102.6,89c-11.4,0-20.7,9.3-20.7,20.7s9.3,20.7,20.7,20.7c11.4,0,20.7-9.3,20.7-20.7
			S114,89,102.6,89z"/>
	</g>
</g>
</svg>
