<svg xmlns="http://www.w3.org/2000/svg" viewBox="0 0 79.3 153"><path d="m10.1 36c1.5 5.3.6 18.8 1.8 22.1.5 1.4.3 2.9-.9 6.2-4.1 11.5-3.6 19.6 6.7 50 0 0 3.2 6.7 1.6 18.9 0 0-6.6 13.5-2.3 13.8 0 0 .3.9 1.7.2 0 0 2.2 2.3 4.7 1.1 0 0 2.3 1.8 4.2.2 0 0 1.6 1.8 3.9.3 0 0 3 2 4.7-.2 0 0 3.2.7-2.5-13.5 0 0-2.2-15-3.3-17.9-2.2-5.6-.7-20.9-.2-24.2.8-5.5.3-14.8-1.1-22.1-1-5.2 1.8-15.4 2.8-21.4 1.8-10.6 5-35.5 5.7-46.5h-32.8c1.5 12 3.4 26.2 5.3 33"/><path d="m47.2 49.5c1 6 3.8 16 2.8 21.2-1.4 7.3-1.8 16.7-1 22.2.5 3.3 2.1 18.7-.2 24.3-1.2 2.9-3.3 18-3.3 18-5.6 14.2-2.5 13.5-2.5 13.5 1.7 2.2 4.7.2 4.7.2 2.3 1.4 3.9-.3 3.9-.3 1.9 1.6 4.2-.2 4.2-.2 2.5 1.2 4.7-1.1 4.7-1.1 1.4.7 1.7-.2 1.7-.2 4.2-.3-2.3-13.7-2.3-13.7-1.6-12.1 1.6-18.8 1.6-18.8 10.2-30.6 10.7-38.6 6.6-50.1-1.2-3.3-1.4-4.6-.9-6.1 1.2-3.3.3-17.1 1.8-22.4 1.9-6.8 3.8-21 5.3-33h-32.7c.7 11 3.8 35.9 5.6 46.5"/></svg>