<svg xmlns="http://www.w3.org/2000/svg" viewBox="0 0 47.7 157.3"><path d="m24.5 6.6c0 0-.8.5-2.1.5l-1.7-.5c.1.6.1 1.7 0 2.7h3.7c0-1 0-2.1.1-2.7"/><path d="m35.3 120.1c-2.1-2.6-4.8-6.1-5.5-8.2-1.3-3.5-2.2-14.8-2.2-14.8-.4-13.3-3.7-19.1-3.7-19.1-5.6-9-6.7-25.8-6.7-25.8l-.2-28.4c-1.6-16.2-12-19-15-19.5v57.1c2 6.3 2.1 14 2.1 14-.6 11.7 9.4 29.6 9.4 29.6 4.9 7.4 6.7 14.4 6.7 14.9 0 2.1-.5 7.3-.5 7.3l.2 4.5c.1 1.2.7 5.1.6 7-.7 11.7 1.1 9.5 1.1 9.5 1.6 0 3.3-9.4 3.3-9.4 0 2.4-.6 9.7.7 12.5 1.6 3.2 2.7-.6 2.7-1.3.4-14.9 1.3-11 1.3-11 .9 12.1 1.9 14.9 3.9 13.9 1.5-.7.1-14.5.1-14.5 2.5 8.2 4.4 9.5 4.4 9.5 4.1 2.9 1.6-5.1 1-6.7-3.1-8.4-3.1-11.3-3.1-11.3 3.8 7.6 6.7 7.3 6.7 7.3 3.8-1.3-3.2-11.9-7.3-17.1"/></svg>