<svg xmlns="http://www.w3.org/2000/svg" viewBox="0 0 485 1100"><g transform="matrix(.47007 0 0 .49358 32.742 317.35)"><path d="m634.5 1566.4c-4.17-1.87-10.351-7.61-13.429-12.468-1.219-1.925-3.02-6.425-4.01-10-.987-3.575-3.02-8.975-4.521-12-3.51-7.08-6.661-26.549-8.01-49.5-.906-15.394-1.337-17.992-4.557-27.5-1.956-5.775-4.184-13.2-4.951-16.5-.767-3.3-1.832-7.8-2.367-10-.535-2.2-1.29-8.275-1.678-13.5-.535-7.221-1.556-11.78-4.255-19-1.953-5.225-3.868-12.425-4.256-16-.44-4.054-2.039-9.461-4.25-14.367-5.02-11.139-5.474-16.996-2.151-27.633 4.758-15.229 4.418-37.487-1.108-72.5-2.79-17.675-10.639-61.25-13.601-75.5-4.164-20.03-5.411-24.591-15.789-57.658-8.828-28.13-9.389-34.03-12.927-135.84l-.869-25-5.244-13.492c-2.884-7.42-6.833-16.645-8.776-20.5-5.534-10.983-12.891-33.07-15.171-45.556-1.456-7.97-2.084-15.587-2.097-25.416 0-7.72-.448-18.09-.975-23.04-.526-4.95-1.444-16.875-2.04-26.5-.596-9.625-1.944-23.575-2.997-31-2.44-17.207-13.428-70.41-20.963-101.5-3.575-14.751-6.699-30.676-8.105-41.32-1.258-9.528-2.764-17.952-3.345-18.721-.869-1.15-2.266-.616-7.855 2.999-5.478 3.543-8 4.524-13 5.05-3.673.388-7.338.219-8.988-.414-2.109-.81-2.874-.769-3.15.169-.2.681-1.558 10.239-3.02 21.239-1.459 11-4.19 26.975-6.069 35.5-4.714 21.384-10.253 56.35-11.445 72.25-.546 7.288-1.655 17.751-2.464 23.25-1.526 10.378-3.609 57.6-3.617 82-.007 21.57-1.305 31.07-6.353 46.5-2.429 7.425-6.308 18-8.619 23.5-2.311 5.5-5.502 14.617-7.091 20.26-4.088 14.513-4.05 17.399 1.133 86.81.578 7.738 1.049 20.788 1.048 29-.004 20.89-1.698 30.75-14.07 81.931-2.128 8.8-4.615 20.05-5.527 25-.912 4.95-2.559 13.275-3.659 18.5-1.1 5.225-2.377 12.2-2.839 15.5-.461 3.3-1.749 10.95-2.861 17-2.739 14.897-5.113 41.75-5.113 57.829 0 10.815.456 15.01 2.508 23.1 3.725 14.685 4.067 21.613 1.483 30.07-7.676 25.12-9.03 32.647-9.981 55.5-.711 17.09-1.147 20.551-3.524 28-1.492 4.675-3.736 10.525-4.986 13-3.232 6.395-4.697 17.293-4.544 33.805.073 7.868-.308 15.743-.847 17.5-.539 1.757-2.161 7.878-3.605 13.602-1.443 5.724-3.543 12.207-4.666 14.408-1.123 2.2-2.701 6.292-3.508 9.09-.807 2.801-3.065 7.453-5.02 10.339-3.02 4.463-4.308 5.471-8.614 6.75-10.538 3.13-19.18 1.283-23.277-4.976-2.309-3.524-1.528-14.441 1.449-20.271 1.71-3.349 1.866-4.25.736-4.25-1.708 0-7.951 10.835-9.507 16.5-.604 2.2-1.436 4.5-1.849 5.111-1.276 1.889-7 4.389-10.05 4.389-4.135 0-9.514-3.923-10.654-7.772-.756-2.553-1.495-3.228-3.528-3.228-3.508 0-6.955-2.611-8.579-6.497-.949-2.272-2.202-3.406-4.205-3.807-3.373-.674-5.231-4.093-5.231-9.621 0-2.353-.641-4.36-1.662-5.203-2.978-2.459-6.338-11.581-6.338-17.204 0-6.348 5.51-31.16 7.7-34.668.857-1.375 2.598-3.625 3.868-5 1.27-1.375 4.12-6.1 6.332-10.5 2.213-4.4 7.179-11.825 11.04-16.5 7.487-9.07 9.44-11.794 15.8-22 2.768-4.442 4.381-8.455 5.093-12.672.699-4.137 3.183-10.401 7.533-19 7.05-13.938 7.696-16.968 6.235-29.328-.781-6.608-.407-8.625 5.92-31.968 2.24-8.263 1.846-15.866-2.461-47.532-2.169-15.95-4.894-38.675-6.06-50.5-1.161-11.825-2.972-29.15-4.02-38.5-1.052-9.35-2.399-21.725-2.994-27.5-.594-5.775-2.699-21.975-4.677-36-3.251-23.05-3.606-27.757-3.701-49-.102-22.768.137-26.15 4.48-63.5 1.349-11.602 3.247-23.14 7.07-43 3.01-15.615 3.061-16.398 2.213-32.5-.478-9.07-.869-29.775-.869-46 0-32.28.537-28.28-6.643-49.5-3.534-10.445-7.704-33.651-11.907-66.26-1.116-8.656-3.136-22.325-4.49-30.375-1.354-8.05-2.461-16.16-2.461-18.03 0-1.867-1.101-9.231-2.447-16.364-1.346-7.133-3.373-19.719-4.505-27.969-1.132-8.25-2.736-19.5-3.565-25-6.116-40.586-14.602-124.9-13.05-129.67.239-.733.681-16.183.983-34.33.956-57.46 4.161-86.998 11.672-107.58 6.163-16.886 8.121-33.05 8.415-69.42.196-24.299.332-25.281 8.638-62.5 5.952-26.669 7.25-40.33 7.315-77 .045-25.583-1.189-42.945-4.551-64-3.205-20.07-3.761-20.356-6.326-3.223-1.529 10.214-10.424 47.02-17.212 71.22-2.398 8.549-2.684 11.351-2.857 28-.106 10.175-.696 20.525-1.312 23-1.592 6.397-10.988 33.734-13.234 38.5-3.262 6.925-9.645 22.666-12.772 31.5-13.89 39.23-26.928 72.15-37.427 94.5-13.847 29.472-20.412 45.926-33.715 84.5-8.51 24.677-14.678 42.14-16.07 45.5-.457 1.1-1.065 4.02-1.351 6.5-.286 2.475-1.042 7.875-1.679 12-.687 4.45-.874 10.55-.46 15 1.652 17.731 1.919 14.975-5 51.5-4.191 22.11-4.293 19.872 2.559 56 1.043 5.5 2.023 15.1 2.177 21.332.28 11.323.278 11.334-2.525 13.75-1.56 1.345-4.08 2.418-5.677 2.418-4.913 0-6.5-3.356-8.928-18.878-1.2-7.674-3.055-17.01-4.122-20.738-1.067-3.732-2.665-10.726-3.55-15.542-1.946-10.591-3.607-12.596-6.955-8.397-1.266 1.587-2.545 4.274-2.843 5.971-.298 1.696-.822 15.684-1.164 31.08-.869 39.08-1.534 46.03-4.699 49.2-2.969 2.969-8.486 3.363-12.279.878-2.862-1.875-2.983-3.508-1.423-19.08.799-7.976.66-13-.687-24.826-1.396-12.253-1.486-16.16-.521-22.5 1.378-9.06 1.496-15.174.292-15.174-.475 0-1.127 2.813-1.45 6.25-.323 3.438-1.074 10.525-1.669 15.75-.596 5.225-1.261 21.343-1.479 35.817-.324 21.507-.678 26.746-1.934 28.663-2.848 4.347-11.488 4.47-15.351.218-1.78-1.96-2.09-4.313-2.856-21.698-1.076-24.422-1.121-40.81-.131-48.32.511-3.876.427-5.61-.25-5.191-.559.346-1.017 1.925-1.017 3.51 0 1.585-.45 3.16-1 3.5-.618.382-1 9.02-1 22.591 0 23.348-.692 27.603-4.85 29.828-3.641 1.949-7.92 1.258-11.385-1.837l-3.266-2.918-.616-22.332c-.339-12.283-.217-25.707.271-29.832.488-4.125 1.844-15.6 3.01-25.5 2.263-19.17 3.446-38.5 2.354-38.5-.684 0-10.742 8.634-17.856 15.328-7.152 6.73-15.754 9.695-27.964 9.638-8.216-.038-11.701-1.942-11.701-6.393 0-2.061.785-2.94 3.75-4.204 10.08-4.295 12.25-5.423 12.25-6.366 0-.562 4.806-5.851 10.679-11.753 5.874-5.902 12.656-13.435 15.07-16.741 7.761-10.614 8.525-11.51 9.825-11.51.703 0 2.227-1.206 3.387-2.681 1.16-1.474 4.066-4.062 6.457-5.75 10.818-7.636 26.523-21.796 29.18-26.311 4.605-7.824 6.398-12 6.418-14.96.017-2.545 1.469-8.508 7.01-28.798 1.052-3.85 2.826-10.349 3.943-14.442 1.117-4.093 2.713-11.376 3.548-16.184.834-4.808 3.049-12.976 4.923-18.15 5.441-15.03 8.284-28.861 16.08-78.22 5.385-34.1 8.275-50.727 10.951-63 1.319-6.05 3.814-19.1 5.545-29 2.953-16.895 8.593-38.993 13.145-51.5 1.101-3.03 3.718-10.45 5.816-16.5 2.098-6.05 5.161-13.925 6.807-17.5 8.603-18.682 12.03-32.808 15.172-62.5 1.163-11 3.221-29 4.573-40 6.837-55.631 6.972-57.56 6.702-95.5-.392-55.01 1.315-75.02 9.384-110 4.647-20.15 9.61-35.38 13.357-40.995 7.163-10.736 16.923-18.216 31.11-23.844 7.71-3.058 11.11-4.789 20.917-10.653 3.02-1.808 9.922-4.933 15.327-6.943 23.23-8.639 78.09-35 92.17-44.29 9.653-6.366 15.85-12.474 18.09-17.825 2.169-5.192 4.419-21.18 4.929-35.04.447-12.151.36-12.862-2.379-19.261-6.05-14.13-9.339-25.761-12.586-44.48-1.665-9.595-2.055-10.668-3.876-10.668-.665 0-2.942-1.178-5.061-2.618-5.121-3.48-10.522-15.11-14-30.15-2.989-12.912-3.205-17.843-1.132-25.801 1.561-5.992 2.598-7.759 6.34-10.798 2-1.625 2.224-2.445 1.634-6.01-.375-2.269-1.079-4.88-1.563-5.802-.484-.923-1.369-7.448-1.967-14.5-.598-7.05-1.565-13.816-2.149-15.03-.753-1.564-.738-5.058.053-12 .713-6.262.766-9.914.146-10.127-1.243-.427-1.264-3.867-.028-4.631.518-.32 1.216-2.709 1.551-5.309.335-2.6 1.036-5.508 1.558-6.463.522-.955.949-2.93.949-4.389 0-1.459 1.427-4.953 3.171-7.764 1.744-2.811 4.62-7.654 6.391-10.763 2.951-5.18 11.622-16.397 20.349-26.326 4.257-4.843 12.77-11.381 15.839-12.164 1.238-.316 2.25-.995 2.25-1.51 0-.514.563-.831 1.25-.703.688.128 2.664-.102 4.392-.512 2.42-.573 3.03-1.174 2.653-2.613-.411-1.57.282-1.984 4.342-2.593 2.657-.398 6.32-1.347 8.141-2.108 1.821-.761 3.761-1.105 4.31-.765.55.34 1.629.096 2.398-.542.769-.638 3.562-1.228 6.206-1.311 2.644-.083 5.129-.611 5.521-1.174.469-.674 2.392-.427 5.634.724 5.786 2.055 8.828 2.223 9.396.519.304-.913 1.047-.811 2.892.398 2.346 1.537 6.175 1.56 9.865.058.825-.336 2.85-.721 4.5-.855 1.65-.135 4.526-.559 6.392-.943 2.33-.479 3.183-.359 2.723.384-.452.731 1.253 1.073 5.252 1.054 6.347-.03 10.19 1.481 13.855 5.45 1.222 1.324 4.256 2.976 6.741 3.672 2.485.696 5.535 2.273 6.777 3.506 1.242 1.232 4.509 3.392 7.259 4.8 8.302 4.25 15.975 12.39 30.828 32.704 1.81 2.475 3.866 6.075 4.57 8 .704 1.925 1.938 4.733 2.742 6.24 2.01 3.764 3.59 12.619 4.066 22.76.479 10.201.51 8.892-.645 27.5-1.175 18.931-2.566 29.338-4.737 35.451l-1.707 4.806 2.665 3.168c2.87 3.411 6.718 14.431 6.718 19.241 0 5.091-4.876 24.967-8.26 33.666-2.033 5.228-4.513 9.604-6.657 11.75-3.426 3.429-4.061 3.684-9.545 3.837l-2.962.082-2.848 14c-4.191 20.603-4.437 21.725-5.485 25-.945 2.952-.837 16.496.254 31.784.837 11.74 4.067 26.297 6.911 31.15 3.571 6.093 11.902 13.348 21.15 18.419 38.74 21.239 75.48 39.29 97.94 48.11 17.826 7 20.926 8.56 33.5 16.803 14.465 9.482 25.846 18.892 30.47 25.19 8.838 12.04 15.268 33.28 20.603 68.04 2.065 13.452 2.243 18.401 2.468 68.5.232 51.664 1.208 74.73 4.392 103.75 5.672 51.692 8.719 73.31 12.227 86.75 2.468 9.459 2.897 10.624 9.92 27 6.192 14.436 18.513 51 21.904 65 1.132 4.675 3.42 17.725 5.084 29 1.664 11.275 4.787 31.3 6.94 44.5 3.924 24.06 7.086 45.05 9.04 60 2.036 15.583 4.144 27.857 6.077 35.38 2.224 8.658 12.352 40.654 17.605 55.619 1.931 5.5 4.989 15.175 6.796 21.5 5.873 20.559 8.156 25.587 14.894 32.791 3.344 3.576 12.764 12.343 20.932 19.483 9.158 8 15.867 14.709 17.5 17.488 3.174 5.4 9.771 13.867 16.218 20.812 2.59 2.79 5.662 6.94 6.826 9.222 3.066 6.01 7.329 10.49 13.597 14.289 4.871 2.952 5.508 3.715 5.508 6.604 0 4.969-3.355 6.718-11.619 6.05-10.164-.816-18.832-5.619-30.13-16.694l-9.25-9.07v6.144c0 6.471.426 9.538 4.567 32.875 4.211 23.731 4.392 25.648 4.413 46.782.023 23.45-.631 26.338-6.521 28.8-3.302 1.379-3.93 1.355-7.286-.286-4.916-2.404-5.8-5.483-7.15-24.935-1.674-24.11-2.315-28.342-5.64-37.23-1.311-3.503-2.383-7.89-2.383-9.75 0-1.86-.45-3.381-1-3.381-1.488 0-1.211 6.399.577 13.296 2 7.726 2.328 27.06.673 39.914-.688 5.341-1.25 15.513-1.25 22.604 0 12.211-.127 13.03-2.391 15.474-3.126 3.373-9.02 4.523-12.51 2.442-4.809-2.868-5.093-4.555-4.755-28.23.308-21.507-.168-31.824-2.303-49.957-1.736-14.742-3.184-12.931-2.422 3.03.447 9.365.299 15.169-.446 17.475-1.696 5.25-3.14 19.893-3.485 35.34-.297 13.317-.41 13.969-2.737 15.853-3.221 2.609-10.595 1.801-13.287-1.455-1.738-2.103-1.806-4.484-1.268-44.673.552-41.28.351-45.11-2.367-45.11-.399 0-.799 3.89-.888 8.645-.089 4.755-.9 11.392-1.802 14.75-.903 3.357-1.729 8.355-1.837 11.1-.328 8.377-1.643 20.792-2.612 24.657-1.549 6.179-9.123 7.091-13.228 1.592-2.73-3.656-3.297-15.469-1.524-31.749 1.744-16.02 1.747-35.952.007-42.748-.739-2.886-1.637-5.067-1.995-4.846-.358.221-.746-1.804-.862-4.5-.116-2.696-.669-6.604-1.229-8.685-3.508-13.03-4.989-27.411-4.777-46.38.206-18.367.103-19.558-2.033-23.555-1.238-2.316-2.25-4.888-2.25-5.717 0-1.468-7.082-18.334-22.34-53.2-4.123-9.422-9.962-23.597-12.977-31.5-3.01-7.903-10.516-26.294-16.671-40.869-13.971-33.08-16.61-39.924-28.551-74-9.582-27.343-12.397-34.575-18.298-47-3.446-7.257-13.13-33.779-15.16-41.5-.804-3.066-1.394-12.154-1.525-23.5-.192-16.568-.492-19.492-2.866-28-5.565-19.942-11.754-46.04-14.577-61.46-2.43-13.276-6.04-40.868-6.04-46.17 0-.754-.396-1.371-.881-1.371-.485 0-1.637 5.063-2.56 11.25-.924 6.188-3.183 19.35-5.02 29.25-9.516 51.28-10.362 79.919-3.382 114.5 9.261 45.884 10.654 56.61 11.885 91.5.524 14.85 1.393 28.8 1.932 31 .539 2.2.99 5.897 1 8.215.017 3.072.529 4.485 1.887 5.212 1.024.548 2.345 2.252 2.933 3.785 1.128 2.936 4.169 17.684 4.7 22.788.172 1.65.986 5.137 1.81 7.75.824 2.613 1.262 4.75.973 4.75-.288 0-.031.594.572 1.321.603.726 1.067 2.639 1.031 4.25-.036 1.611.462 5.179 1.105 7.929 4.657 19.905 6.04 27.514 7 38.5 1.251 14.291 2.621 25.79 4.526 38 .729 4.675 2.107 15.685 3.062 24.466 1.524 14.02 1.589 18.17.531 34-1.769 26.467-6.781 79.15-9.659 101.53-1.379 10.725-3.38 32.1-4.447 47.5-2.274 32.832-10.264 109.84-12.51 120.56-.856 4.09-2.396 10.136-3.421 13.436-5.721 18.411-8.132 55.6-6.158 95 1.115 22.257 2.02 27.328 9.422 53 4.528 15.699 11.199 49.48 13.13 66.5 2.695 23.751 1.938 62.869-1.975 102-1.516 15.167-3.159 46.28-4.01 76-.276 9.625-.957 23.8-1.512 31.5-3.399 47.11-3.829 67.806-1.543 74.28.783 2.219 1.197 4.262.92 4.539-.277.277.269 1.682 1.212 3.123 3.548 5.415 5.502 15.542 6.089 31.555l.568 15.5 4.609 6c4.838 6.299 13.16 21.83 17.15 32 1.294 3.3 2.955 6.71 3.692 7.579.737.868 1.34 1.996 1.34 2.507 0 .511 2.061 3.4 4.581 6.421 6.245 7.488 18.239 25.331 20.568 30.596 1.048 2.369 2.955 5.565 4.238 7.102 6.108 7.319 8.597 16.12 8.57 30.29-.018 9.386-.309 11.08-2.738 16-1.557 3.151-3.786 6.02-5.218 6.711-2.737 1.326-3.699 4.184-3.882 11.539-.144 5.802-2.935 9.264-6.705 8.318-2.271-.57-2.413-.352-2.413 3.691 0 6.06-2.146 8.742-6.99 8.742-3.474 0-3.91.283-4.193 2.718-.739 6.351-14.283 10.01-19.367 5.234l-2.18-2.048-.587 2.936c-1.155 5.776-16.196 9.986-23.682 6.628" fill="#ddd"/><path d="m668.75 2191.88c-8.383-9.265-16.76-33.422-19.566-56.43-5.358-43.924-19.681-110.65-30.24-140.88-3.436-9.837-3.665-14.818-1.142-24.837 1.736-6.892 3.155-20.285 3.155-29.761 0-25.945-15.697-113.62-28.434-158.81-13.416-47.606-14.09-52.55-17.02-124.29-2.246-54.972-2.411-56.04-12.379-80-16.337-39.27-19.19-52.55-22.365-104.2-2.873-46.705-7.158-73.28-26.501-164.37-3.837-18.07-7.815-37.681-8.84-43.577l-1.863-10.72-8.299 4.292c-4.564 2.36-12.1 4.292-16.744 4.292-8.03 0-8.542.735-10.429 15-1.091 8.25-4.972 31.07-8.625 50.714-9 48.42-12.88 85.66-15.609 150-2.28 53.735-2.423 54.624-14.11 87.65l-11.811 33.36 3.5 57.06c3.883 63.31 5.32 50.27-17.384 157.64-12.926 61.12-16.287 97.34-11.743 126.55 3.273 21.04 3.138 25.633-1.192 40.529-2.686 9.24-5.919 29.11-7.184 44.15-1.265 15.04-4.438 33.13-7.05 40.21-2.613 7.07-5.447 23.14-6.298 35.714-1.613 23.818-6.747 44.16-15.592 61.786-5.718 11.393-15.805 15.28-27.809 10.716-6.256-2.378-6.796-3.888-5.501-15.375 1.639-14.545-1.603-14.586-6.39-.081-5.062 15.337-12.186 15.486-29.45.616-32.524-28.01-29.344-64.1 10.06-114.12 12.648-16.06 28.448-55.07 30.942-76.4 1.195-10.214 3.079-26.29 4.187-35.714 1.988-16.906 1.063-26.34-16.238-165.71-7.567-60.958-7.823-110.88-.776-151.43 3.054-17.568 5.433-49.663 6.179-83.34 1.092-49.33.613-56.902-4.836-76.32-6.659-23.73-31.719-188.92-38.598-254.42-7.829-74.55-4.55-165.76 7.271-202.25 4.091-12.632 6.547-31.09 8.282-62.24 1.383-24.84 5.01-55.58 8.256-70 7.975-35.424 10.405-81.77 6.283-119.87-3.234-29.889-8.417-49.617-8.668-32.991-.059 3.929-4 21.929-8.757 40-4.757 18.07-9.797 45.794-11.201 61.6-1.551 17.472-5.327 36.523-9.626 48.571-15.604 43.725-42.996 113.18-57.752 146.43-8.586 19.349-23.471 57.28-33.08 84.29-15.613 43.895-17.527 51.682-18.04 73.39-.313 13.357-2.343 36.23-4.512 50.826-3.173 21.359-3.276 30.434-.524 46.48 4.724 27.549 4.46 47.4-.657 49.36-6.392 2.453-9.05-3.317-14.363-31.22-2.723-14.288-6.116-27.788-7.541-30-5.069-7.872-8.211 3.879-8.473 31.692-.141 14.929-1.125 32.929-2.187 40-1.695 11.285-2.802 12.857-9.06 12.857h-7.127l-.674-35.42c-.371-19.481-1.195-35.94-1.83-36.576-.636-.636-2.087 16.826-3.225 38.805-2.106 40.668-3.702 45.43-13.904 41.52-3.88-1.489-6.87-22.06-8.06-55.47-.419-11.758-.964-9.24-2.163 10-1.476 23.671-2.098 25.785-7.838 26.602-13.502 1.922-14.256-7.612-7.624-96.45l1.802-24.14-12.466 10.67c-13.835 11.843-20.09 14.176-34.37 12.813-11.589-1.107-12.466-5.227-2.165-10.164 4.134-1.981 14.502-11.785 23.04-21.786 8.538-10 24.759-26.13 36.05-35.849 11.289-9.716 22.267-21.14 24.397-25.395 2.13-4.252 8.02-24.444 13.08-44.873 5.064-20.429 11.02-42.929 13.234-50 2.214-7.07 9.222-43.07 15.572-80 15.48-90.02 22.689-120.78 37.83-161.43 7.02-18.857 13.562-38.786 14.528-44.29 6.71-38.21 14.1-120.59 16.01-178.57 2.358-71.43 7.582-105.02 20.221-130 7.421-14.669 12.05-17.928 52.859-37.2 83.34-39.36 111.78-54.17 119.43-62.21 6.83-7.172 8.374-11.799 10.155-30.441 1.774-18.574 1.131-25.04-4.149-41.694-3.437-10.841-7.143-24.57-8.235-30.511-1.092-5.94-5.03-14.01-8.754-17.943-15.348-16.199-22.34-53.58-12.13-64.858 3.948-4.362 4.268-7.392 1.899-17.936-3.957-17.609-4.04-50.636-.155-64.52 6.555-23.448 32.384-54.727 52.828-63.978 18.944-8.572 23.996-9.414 56.06-9.345 29.568.064 30.713.312 47.822 10.339 18.877 11.06 37.819 30.536 47.536 48.867 5.277 9.955 5.988 15.666 5.519 44.29-.296 18.07-1.684 36.714-3.083 41.43-1.822 6.138-1.346 10.951 1.676 16.955 8.182 16.255-1.199 55.45-15.04 62.848-3.143 1.68-6.122 3.247-6.62 3.484-3.039 1.441-8.907 37.16-8.992 54.734-.132 27.16 4.276 43.915 14.01 53.24 9.535 9.135 55.6 33.8 100.18 53.638 57.12 25.418 76.37 40.957 85.35 68.891 9.818 30.535 11.371 44.37 13.206 117.64 1.827 72.934 9.882 161.18 16.99 186.11 2.178 7.64 10.329 31.891 18.11 53.891 12.756 36.05 15.45 48.33 27.28 124.29 11.46 73.61 15.1 90.5 28.714 133.31 8.576 26.964 17.677 52.21 20.226 56.1 2.548 3.889 11.976 13.46 20.951 21.268 8.975 7.808 24.03 24.329 33.46 36.714 9.429 12.385 20.242 25.22 24.03 28.525 3.91 3.411 5.998 7.444 4.831 9.332-4.856 7.857-24.751.725-41-14.698-11.12-10.549-11.234-9.877-4.861 27.669 2.469 14.545 4.048 37.42 3.571 51.75-.744 22.368-1.538 25.813-6.157 26.697-8.526 1.631-10.511-2.847-13.327-30.07-3.371-32.58-8.707-47.673-7.887-22.305.305 9.429.289 28.348-.035 42.04-.519 21.899-1.3 25.28-6.487 28.06-11.338 6.068-14.1-.58-14.13-34.02-.017-16.7-.975-35.507-2.128-41.793-1.647-8.98-2.712-2.86-4.969 28.571-2.872 39.996-2.873 40-10.02 40h-7.143l-1.429-45.714-1.429-45.714-3.571 20.55c-1.964 11.303-3.571 24.967-3.571 30.364 0 12.711-6.099 18.292-12.737 11.654-4.127-4.127-4.52-9.06-2.91-36.527 1.434-24.473.837-35.602-2.606-48.52-2.457-9.222-5.284-30.436-6.281-47.14-1.731-28.989-2.633-32.33-19.759-73.23-41.11-98.17-46.959-112.97-89.86-227.14-5.08-13.52-8.811-30.392-10.111-45.714-1.133-13.357-5.803-40.06-10.377-59.34-4.574-19.277-9.11-43.06-10.08-52.857-.97-9.794-2.643-19.48-3.717-21.524-1.074-2.044-4.985 14.67-8.691 37.14-8.381 50.823-8.455 87.24-.262 129.43 3.356 17.286 7.338 50.561 8.848 73.944 1.51 23.384 3.903 43.955 5.317 45.714 4.415 5.494 16.852 69.62 23.341 120.34 6.697 52.35 6.706 51.894-3.01 150.01-3.034 30.643-8.193 83.17-11.465 116.73-3.272 33.556-8.431 72.77-11.465 87.14-8.503 40.28-7.777 97.22 1.735 136.13 16.267 66.54 18.689 102.51 12.766 189.58-7.984 117.36-9.1 159.93-4.562 174.7 2.412 7.857 5.212 22.643 6.222 32.857 1.01 10.214 3.453 20.5 5.428 22.857 1.975 2.357 7.495 12.09 12.266 21.63 4.771 9.54 16.766 29.441 26.656 44.23 16.538 24.725 18.07 28.34 19.14 45.05.967 15.181.159 19.52-4.906 26.372-3.335 4.511-6.06 10.825-6.06 14.03 0 3.277-1.876 5.83-4.286 5.83-2.403 0-4.286 2.55-4.286 5.804 0 3.192-2.25 6.648-5 7.68-2.75 1.032-6.406 3.751-8.125 6.04-1.953 2.604-5.965 3.624-10.696 2.72-4.496-.86-8.881.131-10.796 2.439-4.676 5.634-23.572 4.909-29.02-1.114" transform="translate(-41.5-630.92)" fill="#555" fill-opacity="0"/></g></svg>