<svg xmlns="http://www.w3.org/2000/svg" viewBox="0 0 48.3 156"><path d="m30.5 22.4l-.2 28.4c0 0-1 16.8-6.7 25.8 0 0-3.2 5.8-3.6 19.1 0 0-.9 11.3-2.2 14.8-.8 2.1-3.4 5.6-5.5 8.2-4.1 5.1-11 15.8-7.3 17 0 0 2.9.3 6.7-7.3 0 0-.1 2.9-3.1 11.3-.6 1.6-3.1 9.5 1 6.7 0 0 1.9-1.3 4.4-9.5 0 0-1.3 13.8.1 14.5 2 .9 3-1.8 3.9-13.9 0 0 .9-3.9 1.3 11 0 .8 1.2 4.6 2.7 1.3 1.3-2.7.7-10 .7-12.5 0 0 1.7 9.4 3.3 9.4 0 0 1.9 2.2 1.1-9.5-.2-1.9.5-5.9.6-7l.2-4.5c0 0-.5-5.1-.5-7.3 0-.5 1.8-7.6 6.7-14.9 0 0 9.9-17.9 9.3-29.6 0 0 0-7.7 2-13.9v-57c-3.1.5-13.3 3.5-14.9 19.4"/></svg>