<svg xmlns="http://www.w3.org/2000/svg" viewBox="175 128.7 1310 304.3" enable-background="new 175 128.7 1310 304.3"><g fill="none" stroke="#0091de" stroke-width="18.474" stroke-miterlimit="10"><path d="m275.4 211v42.5h-64.7v64.7h64.7v64.8h69.8v-64.8h64.8v-64.7h-64.8v-61"/><path d="m310.3 171.8v72.3"/></g><g enable-background="new" fill="#0091de"><path d="m639 184.8v27.5h-12.9c-1.5-7.1-3.9-12.4-7.2-15.8-3.3-3.4-7.6-5.1-12.9-5.1-10 0-17.5 4.8-22.7 14.4s-7.7 23.8-7.7 42.6c0 17.5 2.3 30.8 7 39.8 4.7 9 11.5 13.5 20.6 13.5 4.6 0 8.4-.8 11.3-2.3 2.9-1.5 5.2-3.9 7-7 1.7-3.1 3.2-7.5 4.5-13.1h13v28.7c-7 1.6-13.3 2.8-19.1 3.6-5.8.8-11.7 1.1-17.9 1.1-13.2 0-23.9-2.4-32.2-7.1-8.3-4.7-14.5-11.9-18.4-21.5-4-9.6-5.9-21.7-5.9-36.4 0-13.7 2.3-25.7 7-35.8 4.6-10.2 11.5-18 20.5-23.5 9-5.5 19.9-8.3 32.4-8.3 6.4 0 12.2.3 17.4 1 5.2 1 10.6 2.1 16.2 3.7"/><path d="m684.9 283.9c0 6 .2 10.2.6 12.4s1.2 4.1 2.3 5.5c1.2 1.4 3.4 2.5 6.6 3.3v6.3h-46.5v-6.3c1.9-.4 3.4-1 4.5-1.6 1.1-.6 1.9-1.3 2.5-2.1.6-.8 1.1-1.8 1.6-3 .4-1.2.7-2.9.9-5.1.1-2.2.2-5.3.2-9.3v-74c0-5.4 0-9.4-.1-12-.1-2.6-.3-4.7-.6-6.5-.3-1.7-.8-3.1-1.4-4.2-.7-1-1.6-1.9-2.8-2.5-1.2-.6-3.1-1.2-5.8-1.7v-6.3l26.3-1.3h11.9v108.4z"/><path d="m703.3 305.1c3.1-.8 5.2-1.9 6.4-3.2 1.2-1.3 2-3.1 2.4-5.4.4-2.3.6-6.4.6-12.4v-44.1c0-3.1-.1-5.6-.4-7.5-.3-1.9-.8-3.4-1.6-4.6-.8-1.1-1.9-2-3.2-2.6-1.4-.6-3.1-1.1-5.3-1.6v-6.5l26.1-.8h11.9v67.4c0 3.5 0 6.3.1 8.2.1 1.9.2 3.4.4 4.5.2 1 .5 2 .8 2.8.3.8.8 1.6 1.4 2.3.6.7 1.4 1.3 2.5 1.9 1.1.6 2.5 1.1 4.3 1.5v6.3h-46.3v-6.2zm36.1-125.7v23.2h-26v-23.2h26"/><path d="m831 287l7.3 8.8c-6.2 6.1-12.2 10.4-18 13s-12.1 3.9-18.9 3.9c-13.7 0-24.2-4-31.4-12.1s-10.8-19.8-10.8-35.1c0-10.4 2-19.3 5.9-26.9 4-7.6 9.6-13.3 17-17.2 7.4-3.9 15.9-5.8 25.4-5.8 5.1 0 10.2.4 15.3 1.1 5.1.7 9.7 1.7 13.9 3v22.9h-18.7c-.9-5.9-2.4-10.3-4.3-13-1.9-2.7-4.6-4.1-8.2-4.1-2.3 0-4.6.6-6.7 1.8-2.1 1.2-4 3.2-5.6 6.1-1.6 2.9-2.9 6.7-3.8 11.6s-1.4 11-1.4 18.4.7 13.6 2.1 18.7c1.4 5.1 3.6 9 6.7 11.8 3.1 2.8 7.2 4.1 12.2 4.1 3.7 0 7.1-.8 10.4-2.4 3.3-1.6 7.1-4.5 11.6-8.6"/><path d="m911 251.5l24.5 36.2c3.6 5.4 6.3 9.1 8 11.1 1.7 2 3.2 3.5 4.5 4.3 1.3.9 2.8 1.5 4.7 1.9v6.3h-46.4v-6.3c2.8-.6 4.3-2.1 4.3-4.5 0-1.6-.6-3.6-1.7-5.8-1.1-2.2-3.3-5.7-6.5-10.5l-7.3-11c-1.6-2.5-3-4.3-4-5.4-1-1.1-2-1.9-3-2.5-1-.6-2.4-.9-4.1-.9h-4.6v19.4c0 6 .2 10.2.6 12.4.4 2.3 1.2 4.1 2.3 5.5 1.2 1.4 3.4 2.5 6.6 3.3v6.3h-46.5v-6.3c1.9-.4 3.4-1 4.5-1.6 1.1-.6 1.9-1.3 2.5-2.1.6-.8 1.1-1.8 1.6-3 .4-1.2.7-2.9.9-5.1.1-2.2.2-5.3.2-9.3v-74c0-5.4 0-9.4-.1-12-.1-2.6-.3-4.7-.6-6.5-.3-1.7-.8-3.1-1.4-4.2-.6-1-1.6-1.9-2.8-2.5-1.2-.6-3.1-1.2-5.8-1.7v-6.3l26.4-1.3h11.8v80h3.1c2.2 0 4-.2 5.2-.7 1.3-.4 2.6-1.2 3.9-2.1 1.4-1 3.5-2.8 6.3-5.3 2.8-2.6 5-4.8 6.5-6.8 1.5-2 2.4-3.7 2.9-5.2.5-1.5.8-2.9.8-4.3 0-4.4-2.8-6.9-8.3-7.7v-6.1h47.4v6.1c-2.5.4-5.2 1.5-8.3 3.4-3 1.9-7.8 5.9-14.3 12l-13.8 12.8"/></g><g enable-background="new" fill="#0091de"><path d="m989.2 303.9c2.7-.7 4.8-1.6 6.5-2.4 1.6-.9 2.8-2 3.6-3.5.8-1.5 1.3-3.3 1.6-5.7.2-2.3.3-5.2.3-8.8v-16.7h-60.2v-12.1l68.2-97.5h25.3v95.5h3.5c3.7 0 6.3-.2 7.7-.7 1.5-.5 2.8-1.4 3.9-2.8 1.1-1.3 2.1-3.7 3.1-7.2h11.8l-1.3 24.8h-28.6v16.7c0 4 .2 7.1.6 9.5.4 2.4 1 4.2 1.9 5.6.9 1.4 2.1 2.4 3.7 3.1 1.6.7 3.6 1.4 6 2.1v7.4h-57.4v-7.3zm-26.4-51.2h38.4v-25.7c0-10.8.4-22.1 1.1-34h-1.1l-38.4 57.8v1.9"/><path d="m1165.5 184.8v27.5h-12.9c-1.5-7.1-3.9-12.4-7.2-15.8-3.3-3.4-7.6-5.1-12.9-5.1-10 0-17.5 4.8-22.7 14.4-5.1 9.6-7.7 23.8-7.7 42.6 0 17.5 2.3 30.8 7 39.8 4.7 9 11.5 13.5 20.6 13.5 4.6 0 8.4-.8 11.3-2.3 2.9-1.5 5.2-3.9 7-7 1.7-3.1 3.2-7.5 4.5-13.1h13v28.7c-7 1.6-13.3 2.8-19.1 3.6-5.8.8-11.7 1.1-17.9 1.1-13.2 0-23.9-2.4-32.2-7.1-8.3-4.7-14.5-11.9-18.4-21.5-4-9.6-5.9-21.7-5.9-36.4 0-13.7 2.3-25.7 7-35.8s11.5-18 20.5-23.5c9-5.5 19.9-8.3 32.4-8.3 6.4 0 12.2.3 17.4 1 5.2 1 10.6 2.1 16.2 3.7"/><path d="m1232 298.9l-1.4-.5c-5.2 5.1-10.2 8.7-15.1 11-4.9 2.3-10.1 3.4-15.6 3.4-5.4 0-10.2-1-14.2-3-4-2-7.1-4.8-9.1-8.3-2.1-3.5-3.1-7.6-3.1-12.2 0-9.3 4.6-16.6 13.7-22 9.1-5.3 23-8.7 41.6-10.1v-9c0-5.9-.7-10.4-2-13.6-1.3-3.2-3-5.4-5.1-6.7-2.1-1.3-4.6-1.9-7.5-1.9-2.9 0-5.4.5-7.5 1.5-2.1 1-4 2.9-5.7 5.7-1.7 2.8-3 6.7-3.8 11.7h-17.9v-17.3c5.8-2.6 10.7-4.6 14.5-6 3.9-1.4 7.7-2.5 11.4-3.5 3.8-.9 7.1-1.6 10.1-1.9 3-.4 5.9-.6 8.9-.6 7.7 0 13.8 1 18.4 3 4.6 2 8 5.3 10.3 9.9 2.3 4.6 3.4 10.8 3.4 18.9v37c0 4.2.1 7.4.3 9.7.2 2.3.5 4 .9 5.1.4 1.1.9 2 1.6 2.7.6.7 1.4 1.2 2.3 1.6.9.4 2.6.9 5.2 1.6v6.3h-35.3l.7-12.5m-3.2-32.4c-9.8.3-17.1 2.1-21.8 5.5-4.7 3.4-7.1 8.4-7.1 15 0 3.9 1.1 6.9 3.2 9 2.1 2.1 5.1 3.1 8.9 3.1 2.9 0 5.7-.8 8.3-2.3 2.6-1.5 4.6-3.6 6.2-6.2 1.5-2.6 2.3-5.3 2.3-8.3v-15.8"/><path d="m1309.4 230.8l1.2.3c4.6-5.4 9.4-9.4 14.2-11.8 4.9-2.4 10.2-3.6 15.8-3.6 3.9 0 7.9.4 12.1 1.2v26.2h-17.2c-1.1-3.7-2.5-6.5-4.2-8.4-1.7-2-4.1-2.9-7-2.9-1.4 0-2.9.4-4.6 1.3-1.7.9-3.2 2.1-4.6 3.6-1.4 1.5-2.4 3.1-3 4.7-.6 1.6-1 3.2-1.2 4.9-.2 1.6-.3 4.1-.3 7.4v30.3c0 6 .2 10.2.7 12.6.4 2.4 1.3 4.3 2.7 5.6 1.3 1.4 3.6 2.3 6.7 2.9v6.3h-46.7v-6.3c3-.8 5.1-1.9 6.3-3.2 1.2-1.3 2-3.1 2.4-5.4.4-2.3.6-6.4.6-12.4v-39c0-4.7-.1-8.1-.2-10.4-.2-2.2-.5-4-1.1-5.4-.6-1.4-1.5-2.5-2.8-3.3s-3.4-1.6-6.4-2.2v-6.5l26-.8h12l-1.4 14.3"/><path d="m1440.9 294.1c-6.5 6.8-12.8 11.7-19.2 14.5-6.3 2.8-13.6 4.3-21.8 4.3-14.7 0-25.8-4-33.2-12.1-7.4-8.1-11.1-20-11.1-35.9 0-10.2 1.9-19.1 5.7-26.5 3.8-7.4 9.2-13.1 16.3-16.9 7-3.8 15.2-5.7 24.5-5.7 5.8 0 10.8.7 15.1 2 4.3 1.3 8 3.2 11.1 5.5 3.1 2.4 5.7 5.2 7.7 8.6 2.4 4 4.2 8.5 5.4 13.7 1.3 5.2 1.9 11.6 2 19.1h-60.1c.1 11.4 2.1 19.9 6.1 25.3 4 5.4 10.1 8.1 18.4 8.1 4.8 0 9.1-.9 13-2.7 3.9-1.8 8-5 12.5-9.5l7.6 8.2m-25.7-39.8c-.3-9.7-1.5-16.9-3.8-21.6-2.3-4.7-5.9-7.1-11-7.1-4.9 0-8.7 2.5-11.6 7.4-2.9 4.9-4.6 12-5.2 21.3h31.6"/><path d="m540.2 389.9v-41h13.7c3.3 0 5.8.2 7.6.7 1.8.5 3.5 1.3 5.1 2.6 2.3 1.8 4 4.1 5 6.8 1.1 2.8 1.6 6.2 1.6 10.4 0 13.7-6.2 20.5-18.5 20.5h-14.5m5.2-4.6h8.9c3 0 5.4-.4 7.1-1.1 4.4-2 6.6-6.9 6.6-14.7 0-6.6-1.6-11.2-4.8-13.7-1.9-1.5-5.1-2.2-9.5-2.2h-8.3v31.7"/><path d="m585.8 349v41h-5.2v-41h5.2"/><path d="m612.8 368.1h17.6v21.8h-3.5l-1.6-5.3c-3.3 4.1-7.6 6.2-13 6.2-5.8 0-10.4-1.9-13.9-5.7-3.5-3.8-5.2-8.9-5.2-15.2 0-6.6 1.8-11.9 5.3-15.8 3.6-3.9 8.3-5.9 14.4-5.9 4.6 0 8.4 1.1 11.3 3.3 2.9 2.2 4.7 5.5 5.6 9.7h-5.1c-1.4-5.6-5.3-8.4-11.8-8.4-4.5 0-8.1 1.5-10.6 4.4s-3.8 7-3.8 12.3c0 5.1 1.2 9.2 3.6 12.2 2.4 3 5.7 4.5 9.9 4.5 2.7 0 5.1-.6 7.2-1.9 2.2-1.2 3.8-2.9 4.8-5.1.9-1.8 1.4-4.1 1.4-6.7h-12.5v-4.4z"/><path d="m643.8 349v41h-5.2v-41h5.2"/><path d="m666.5 353.6v36.3h-5.3v-36.3h-13.4v-4.6h31.9v4.6h-13.2"/><path d="m685.5 377.5l-4.3 12.4h-5.9l15.1-41h6l15.1 41h-5.9l-4.3-12.4h-15.8m1.4-4.3h13.1l-6.5-19-6.6 19"/><path d="m720.2 349v36.3h22v4.6h-27.2v-41h5.2z"/><path d="m761.1 389.9v-41h13.7c3.3 0 5.8.2 7.6.7 1.8.5 3.5 1.3 5.1 2.6 2.3 1.8 4 4.1 5 6.8 1.1 2.8 1.6 6.2 1.6 10.4 0 13.7-6.2 20.5-18.5 20.5h-14.5m5.2-4.6h8.9c3 0 5.4-.4 7.1-1.1 4.4-2 6.6-6.9 6.6-14.7 0-6.6-1.6-11.2-4.8-13.7-1.9-1.5-5.1-2.2-9.5-2.2h-8.3v31.7"/><path d="m806.7 349v41h-5.2v-41h5.2"/><path d="m820.3 377.5l-4.3 12.4h-5.9l15.1-41h6l15.1 41h-5.9l-4.3-12.4h-15.8m1.4-4.3h13.1l-6.5-19-6.6 19"/><path d="m867.1 368.1h17.6v21.8h-3.5l-1.6-5.3c-3.3 4.1-7.6 6.2-13 6.2-5.8 0-10.4-1.9-13.9-5.7-3.5-3.8-5.2-8.9-5.2-15.2 0-6.6 1.8-11.9 5.3-15.8 3.6-3.9 8.3-5.9 14.4-5.9 4.6 0 8.4 1.1 11.3 3.3s4.7 5.5 5.6 9.7h-5.1c-1.4-5.6-5.3-8.4-11.8-8.4-4.5 0-8.1 1.5-10.6 4.4-2.6 3-3.8 7-3.8 12.3 0 5.1 1.2 9.2 3.6 12.2 2.4 3 5.7 4.5 9.9 4.5 2.7 0 5.1-.6 7.2-1.9 2.2-1.2 3.8-2.9 4.8-5.1.9-1.8 1.4-4.1 1.4-6.7h-12.5v-4.4z"/><path d="m898.4 349l21.5 33v-33h5.2v41h-5.5l-21.5-33.1v33.1h-5.2v-41h5.5"/><path d="m952.3 348.2c5.9 0 10.7 2 14.3 5.9 3.7 3.9 5.5 9.1 5.5 15.4 0 6.4-1.8 11.5-5.5 15.4-3.7 3.9-8.4 5.9-14.3 5.9-5.9 0-10.7-2-14.3-5.9-3.7-3.9-5.5-9.1-5.5-15.4 0-6.3 1.8-11.5 5.5-15.4 3.6-4 8.4-5.9 14.3-5.9m0 4.6c-4.5 0-8.1 1.5-10.7 4.5-2.6 3-3.9 7-3.9 12.2 0 5.2 1.3 9.3 3.9 12.2 2.6 3 6.2 4.5 10.7 4.5 4.5 0 8.1-1.5 10.7-4.5 2.6-3 3.9-7 3.9-12.2 0-5.2-1.3-9.2-3.9-12.2-2.6-3-6.2-4.5-10.7-4.5"/><path d="m1008.7 360.9h-5.2c-.7-5.5-4.3-8.2-10.6-8.2-2.7 0-4.9.5-6.5 1.6s-2.5 2.5-2.5 4.4c0 3 2.2 5 6.5 6.1l9.5 2.4c6.9 1.7 10.4 5.5 10.4 11.2 0 3.8-1.5 6.8-4.4 9s-6.8 3.4-11.6 3.4c-5 0-9-1.3-12-3.8-3.1-2.6-4.9-6.1-5.4-10.7h5.2c.5 3.3 1.8 5.7 3.9 7.4 2.1 1.7 5 2.5 8.6 2.5 3.1 0 5.6-.7 7.5-2.1 1.9-1.4 2.9-3.2 2.9-5.4 0-1.8-.7-3.3-2-4.5-1.3-1.2-3.5-2.1-6.4-2.8l-7.6-1.9c-7-1.7-10.4-5.2-10.4-10.4 0-3.3 1.3-6 4-8s6.1-3 10.4-3c9.5 0 14.7 4.3 15.7 12.8"/><path d="m1030.9 353.6v36.3h-5.3v-36.3h-13.4v-4.6h31.9v4.6h-13.2"/><path d="m1053.4 349v41h-5.2v-41h5.2"/><path d="m1096 360.5h-5.1c-1.5-5.1-5.3-7.7-11.3-7.7-4.3 0-7.6 1.5-10 4.4-2.4 2.9-3.6 7-3.6 12.3 0 5.4 1.2 9.5 3.5 12.4 2.3 2.9 5.7 4.3 10.1 4.3 3.5 0 6.3-1 8.5-3.1s3.4-4.8 3.6-8.3h5.1c-.5 5-2.2 9-5.2 11.8-3 2.8-7 4.2-11.9 4.2-5.9 0-10.5-1.9-13.8-5.6-3.3-3.8-5-9-5-15.7 0-6.5 1.7-11.7 5.1-15.5 3.4-3.9 8-5.8 13.7-5.8 4.3 0 8 1.1 10.9 3.3 2.9 2.2 4.7 5.2 5.4 9"/><path d="m1148.4 360.9h-5.2c-.7-5.5-4.3-8.2-10.6-8.2-2.7 0-4.9.5-6.5 1.6s-2.5 2.5-2.5 4.4c0 3 2.2 5 6.5 6.1l9.5 2.4c6.9 1.7 10.4 5.5 10.4 11.2 0 3.8-1.5 6.8-4.4 9-2.9 2.3-6.8 3.4-11.6 3.4-5 0-9-1.3-12-3.8s-4.9-6.1-5.4-10.7h5.2c.5 3.3 1.8 5.7 3.9 7.4 2.1 1.7 5 2.5 8.6 2.5 3.1 0 5.6-.7 7.5-2.1 1.9-1.4 2.9-3.2 2.9-5.4 0-1.8-.7-3.3-2-4.5-1.3-1.2-3.5-2.1-6.4-2.8l-7.6-1.9c-7-1.7-10.4-5.2-10.4-10.4 0-3.3 1.3-6 4-8s6.1-3 10.4-3c9.4 0 14.6 4.3 15.7 12.8"/><path d="m1174.8 348.2c5.9 0 10.7 2 14.3 5.9 3.7 3.9 5.5 9.1 5.5 15.4 0 6.4-1.8 11.5-5.5 15.4-3.7 3.9-8.4 5.9-14.3 5.9-5.9 0-10.7-2-14.3-5.9-3.7-3.9-5.5-9.1-5.5-15.4 0-6.3 1.8-11.5 5.5-15.4 3.6-4 8.4-5.9 14.3-5.9m0 4.6c-4.5 0-8.1 1.5-10.7 4.5s-3.9 7-3.9 12.2c0 5.2 1.3 9.3 3.9 12.2s6.2 4.5 10.7 4.5c4.5 0 8.1-1.5 10.7-4.5 2.6-3 3.9-7 3.9-12.2 0-5.2-1.3-9.2-3.9-12.2-2.6-3-6.2-4.5-10.7-4.5"/><path d="m1207.2 349v36.3h22v4.6h-27.2v-41h5.2z"/><path d="m1258.8 349h5.2v24.7c0 3.2-.2 5.5-.5 7-.3 1.5-1 2.9-1.9 4.2-2.8 3.9-7.3 5.9-13.5 5.9-6.2 0-10.7-2-13.5-5.9-.9-1.3-1.6-2.7-1.9-4.2-.3-1.5-.5-3.8-.5-7v-24.7h5.2v24.5c0 3.7.3 6.3 1.1 7.7 1.6 3.3 4.8 4.9 9.6 4.9s8-1.6 9.6-4.9c.7-1.4 1.1-4 1.1-7.7v-24.5"/><path d="m1286.4 353.6v36.3h-5.3v-36.3h-13.4v-4.6h31.9v4.6h-13.2"/><path d="m1309 349v41h-5.2v-41h5.2"/><path d="m1336.2 348.2c5.9 0 10.7 2 14.3 5.9 3.7 3.9 5.5 9.1 5.5 15.4 0 6.4-1.8 11.5-5.5 15.4-3.7 3.9-8.4 5.9-14.3 5.9-5.9 0-10.7-2-14.3-5.9-3.7-3.9-5.5-9.1-5.5-15.4 0-6.3 1.8-11.5 5.5-15.4 3.6-4 8.4-5.9 14.3-5.9m0 4.6c-4.5 0-8.1 1.5-10.7 4.5s-3.9 7-3.9 12.2c0 5.2 1.3 9.3 3.9 12.2s6.2 4.5 10.7 4.5c4.5 0 8.1-1.5 10.7-4.5 2.6-3 3.9-7 3.9-12.2 0-5.2-1.3-9.2-3.9-12.2-2.7-3-6.2-4.5-10.7-4.5"/><path d="m1368.9 349l21.5 33v-33h5.2v41h-5.5l-21.5-33.1v33.1h-5.2v-41h5.5"/><path d="m1433.9 360.9h-5.2c-.7-5.5-4.3-8.2-10.6-8.2-2.7 0-4.9.5-6.5 1.6s-2.5 2.5-2.5 4.4c0 3 2.2 5 6.5 6.1l9.5 2.4c6.9 1.7 10.4 5.5 10.4 11.2 0 3.8-1.5 6.8-4.4 9-2.9 2.3-6.8 3.4-11.6 3.4-5 0-9-1.3-12-3.8s-4.9-6.1-5.4-10.7h5.2c.5 3.3 1.8 5.7 3.9 7.4 2.1 1.7 5 2.5 8.6 2.5 3.1 0 5.6-.7 7.5-2.1 1.9-1.4 2.9-3.2 2.9-5.4 0-1.8-.7-3.3-2-4.5-1.3-1.2-3.5-2.1-6.4-2.8l-7.6-1.9c-7-1.7-10.4-5.2-10.4-10.4 0-3.3 1.3-6 4-8s6.1-3 10.4-3c9.4 0 14.6 4.3 15.7 12.8"/></g></svg>