<?xml version="1.0" encoding="UTF-8" standalone="no"?>
<svg
   xmlns:dc="http://purl.org/dc/elements/1.1/"
   xmlns:cc="http://creativecommons.org/ns#"
   xmlns:rdf="http://www.w3.org/1999/02/22-rdf-syntax-ns#"
   xmlns:svg="http://www.w3.org/2000/svg"
   xmlns="http://www.w3.org/2000/svg"
   xmlns:sodipodi="http://sodipodi.sourceforge.net/DTD/sodipodi-0.dtd"
   xmlns:inkscape="http://www.inkscape.org/namespaces/inkscape"
   viewBox="0 0 106.49651 177.99861"
   enable-background="new 0 0 180 180"
   id="svg2"
   version="1.1"
   inkscape:version="0.91 r13725"
   sodipodi:docname="ico_doctor.svg"
   width="106.49651"
   height="177.99861">
  <metadata
     id="metadata18">
    <rdf:RDF>
      <cc:Work
         rdf:about="">
        <dc:format>image/svg+xml</dc:format>
        <dc:type
           rdf:resource="http://purl.org/dc/dcmitype/StillImage" />
        <dc:title></dc:title>
      </cc:Work>
    </rdf:RDF>
  </metadata>
  <defs
     id="defs16" />
  <sodipodi:namedview
     pagecolor="#ffffff"
     bordercolor="#666666"
     borderopacity="1"
     objecttolerance="10"
     gridtolerance="10"
     guidetolerance="10"
     inkscape:pageopacity="0"
     inkscape:pageshadow="2"
     inkscape:window-width="1101"
     inkscape:window-height="651"
     id="namedview14"
     showgrid="false"
     fit-margin-top="0"
     fit-margin-left="0"
     fit-margin-right="0"
     fit-margin-bottom="0"
     inkscape:zoom="1.3111111"
     inkscape:cx="90"
     inkscape:cy="89.999996"
     inkscape:window-x="0"
     inkscape:window-y="0"
     inkscape:window-maximized="0"
     inkscape:current-layer="svg2" />
  <g
     transform="matrix(1.89159,0,0,1.89159,-111.60381,-112.17129)"
     id="g4"
     style="fill:#3fa9f5">
    <ellipse
       cx="93.599998"
       cy="95.599998"
       rx="2.8"
       ry="4.5999999"
       id="ellipse6" />
    <ellipse
       cx="81.099998"
       cy="95.599998"
       rx="2.8"
       ry="4.5999999"
       id="ellipse8" />
    <path
       d="m 87.7,108.5 c 9.2,0 15,-6.3 15,-6.4 0.3,-0.3 0.3,-0.9 0,-1.2 -0.3,-0.3 -0.9,-0.3 -1.2,0 0,0 -0.3,0.3 -1,0.9 -1.9,1.7 -6.6,5 -12.8,4.9 -4.2,0 -7.7,-1.2 -10.2,-2.5 -1.2,-0.6 -2.2,-1.2 -2.9,-1.7 -0.7,-0.5 -1,-0.8 -1,-0.8 -0.4,-0.3 -0.9,-0.3 -1.2,0.1 -0.3,0.4 -0.3,0.9 0.1,1.2 0.1,0.2 6.1,5.5 15.2,5.5"
       id="path10"
       inkscape:connector-curvature="0" />
    <path
       d="m 105.4,108.7 c 6,-5.1 9.8,-12.8 9.8,-21.3 0,-15.5 -12.6,-28.1 -28.1,-28.1 -15.5,0 -28.1,12.6 -28.1,28.1 0,8.6 4,16.4 10.2,21.6 -8,6.6 -9.9,17.9 -9.9,30.3 0.1,1.2 0.7,1.5 1,1.8 0.6,0.4 1.1,0.5 1.8,0.8 0.9,0.3 2,0.6 2.8,0.8 0.1,0 0.2,0.1 0.3,0.1 0.4,4.5 2.6,7.6 5.9,9 3.4,1.5 7.7,1.5 12.5,1.6 1.2,0 2.4,0 3.7,0 5.8,0 10.8,0 14.9,-1.3 2,-0.7 3.8,-1.8 5.2,-3.5 1.2,-1.5 1.9,-3.4 2.1,-5.8 0.5,-0.2 1.4,-0.5 2.2,-0.7 0.6,-0.2 1.2,-0.4 1.8,-0.6 0.3,-0.1 0.6,-0.3 0.9,-0.5 0.3,-0.2 0.8,-0.6 0.9,-1.7 0,-6.8 -0.5,-13.2 -2.2,-18.8 -1.5,-4.7 -4,-8.8 -7.7,-11.8 M 62.6,89.3 67.4,82.1 c 0,0 5.2,3.8 16.3,6.3 11.1,2.5 21.5,-0.1 21.5,-0.1 0,0 2.9,5.5 5.1,7.3 -1.6,4.4 -4.4,8.2 -7.9,11.1 l -0.1,-0.1 -0.9,0.7 c -4,2.9 -9,4.7 -14.4,4.7 -0.1,0 -0.3,0 -0.4,0 -0.3,0 -0.6,0 -0.9,0 C 73.4,111.2 63.5,101.5 62.6,89.3 m 24.2,41.6 0.6,0 c 1.1,0.2 2,1.1 2,2.2 0,1.2 -1,2.3 -2.3,2.3 -1.3,0 -2.3,-1 -2.3,-2.3 0,-1.1 0.9,-2.1 2,-2.2 z m 0.5,-13.1 c -4.4,0 -6.2,-1.5 -7.1,-2.9 -0.1,-0.1 -0.2,-0.2 -0.2,-0.4 1.8,0.5 3.7,0.7 5.6,0.8 0.2,0 0.5,0 0.7,0 0.2,0 0.4,0 0.6,0 0,0 0,0 0.1,0 0,0 0.1,0 0.1,0 2.5,0 5,-0.3 7.3,-1 -0.3,0.5 -0.6,1 -1.1,1.4 -1,1.2 -2.8,2.1 -6,2.1 m 21.8,21.4 c -0.2,0.1 -0.3,0.1 -0.5,0.2 l -2.1,-15.3 c 0,0 -0.5,17 -0.5,17.6 -0.1,2.2 -0.7,3.6 -1.5,4.7 -1.2,1.6 -3.2,2.5 -6.2,3 -3,0.5 -6.8,0.5 -11.1,0.5 -1.3,0 -2.5,0 -3.7,0 -4.8,0 -8.7,-0.2 -11.1,-1.3 -2.3,-1.1 -3.6,-2.6 -3.9,-6.9 -0.8,-6 -0.1,-17.6 -0.1,-17.6 l -2.1,15.4 0.1,0.1 c -0.8,-0.3 -1.7,-0.5 -2.6,-0.8 -0.4,-0.1 -0.8,-0.2 -1.1,-0.3 0.1,-12.1 2.3,-22.1 9.3,-27.2 1.2,0.8 2.5,1.4 3.9,2 0.1,0.9 0.5,2.3 1.5,3.7 1.3,2 3.8,3.8 7.8,4.3 l 0,6.1 c -2.5,0.8 -4.3,3.2 -4.3,5.9 0,3.5 2.8,6.3 6.3,6.3 3.5,0 6.3,-2.8 6.3,-6.3 0,-2.8 -1.8,-5.1 -4.3,-5.9 l 0,-6 c 4.1,-0.4 6.7,-2.4 8,-4.4 0.9,-1.4 1.3,-2.8 1.4,-3.7 1.4,-0.6 2.7,-1.3 4,-2.2 3.6,2.5 5.8,6.1 7.2,10.7 1.5,4.8 2,10.6 2,16.9 -0.8,-0.1 -1.8,0.2 -2.7,0.5"
       id="path12"
       inkscape:connector-curvature="0" />
  </g>
</svg>
