<svg xmlns="http://www.w3.org/2000/svg" width="165.26" height="372.44" viewBox="0 0 165.26472 372.437"><g transform="translate(-7.745-661.6)"><path d="m103.76 710.5c2.5-2.1 3.5-7.6 3.5-7.6 4.2-3.2 4-8 2.1-7.9-1.6 0-1.2-1.1-1.2-1.1 2.6-21.4-16.3-22.3-16.3-22.3h-2.9c0 0-18.9.9-16.3 22.2 0 0 .3 1.2-1.2 1.2-2-.1-2.1 4.6 2.1 7.9 0 0 1 5.6 3.5 7.6 0 0 .5 2.1.5 5.1h25.7c0-3 .5-5.1.5-5.1" onclick="alert(1)"/><path d="m60.813 910.07c1.5 5.3.6 18.8 1.8 22.1.5 1.4.3 2.9-.9 6.2-4.1 11.5-3.6 19.6 6.7 50 0 0 3.2 6.7 1.6 18.9 0 0-6.6 13.5-2.3 13.8 0 0 .3.9 1.7.2 0 0 2.2 2.3 4.7 1.1 0 0 2.3 1.8 4.2.2 0 0 1.6 1.8 3.9.3 0 0 3 2 4.7-.2 0 0 3.2.7-2.5-13.5 0 0-2.2-15-3.3-17.9-2.2-5.6-.7-20.9-.2-24.2.8-5.5.3-14.8-1.1-22.1-1-5.2 1.8-15.4 2.8-21.4 1.8-10.6 5-35.5 5.7-46.5h-32.8c1.5 12 3.4 26.2 5.3 33"/><path d="m97.68 923.8c1 6 3.8 16 2.8 21.2-1.4 7.3-1.8 16.7-1 22.2.5 3.3 2.1 18.7-.2 24.3-1.2 2.9-3.3 18-3.3 18-5.6 14.2-2.5 13.5-2.5 13.5 1.7 2.2 4.7.2 4.7.2 2.3 1.4 3.9-.3 3.9-.3 1.9 1.6 4.2-.2 4.2-.2 2.5 1.2 4.7-1.1 4.7-1.1 1.4.7 1.7-.2 1.7-.2 4.2-.3-2.3-13.7-2.3-13.7-1.6-12.1 1.6-18.8 1.6-18.8 10.2-30.6 10.7-38.6 6.6-50.1-1.2-3.3-1.4-4.6-.9-6.1 1.2-3.3.3-17.1 1.8-22.4 1.9-6.8 3.8-21 5.3-33h-32.7c.7 11 3.8 35.9 5.6 46.5"/><path d="m60.54 823.44c0 0-9.1 22-7.1 38.3.4 3.5 1 8.3 1.6 13.3h33.2c0-1 0-2.1 0-2.7l1.7.6c1.3 0 2.1-.5 2.1-.5-.1.6-.1 1.7 0 2.7h33.3c.6-5 1.1-9.7 1.6-13.2 2-16.3-7.1-38.4-7.1-38.4-1.1-5-.7-17.4-.1-27.4h-59.2c.6 9.9 1.1 22.3 0 27.3"/><path d="m60.52 794.25h59.4c0 0-.2 0-.2-.2v-64.3c-13-2.3-14.9-6.9-14.9-6.9-1-1.5-1.4-3.6-1.6-5.6h-25.9c-.2 2-.5 4.2-1.6 5.6 0 0-2 4.7-15 6.9v63.6c0 .4-.2-.1-.2.9"/><path d="m154.62 845.91c-2.1-2.6-4.8-6.1-5.5-8.2-1.3-3.5-2.2-14.8-2.2-14.8-.4-13.3-3.7-19.1-3.7-19.1-5.6-9-6.7-25.8-6.7-25.8l-.2-28.4c-1.6-16.2-12-19-15-19.5v57.1c2 6.3 2.1 14 2.1 14-.6 11.7 9.4 29.6 9.4 29.6 4.9 7.4 6.7 14.4 6.7 14.9 0 2.1-.5 7.3-.5 7.3l.2 4.5c.1 1.2.7 5.1.6 7-.7 11.7 1.1 9.5 1.1 9.5 1.6 0 3.3-9.4 3.3-9.4 0 2.4-.6 9.7.7 12.5 1.6 3.2 2.7-.6 2.7-1.3.4-14.9 1.3-11 1.3-11 .9 12.1 1.9 14.9 3.9 13.9 1.5-.7.1-14.5.1-14.5 2.5 8.2 4.4 9.5 4.4 9.5 4.1 2.9 1.6-5.1 1-6.7-3.1-8.4-3.1-11.3-3.1-11.3 3.8 7.6 6.7 7.3 6.7 7.3 3.8-1.3-3.2-11.9-7.3-17.1"/><path d="m44.3 749.43l-.2 28.4c0 0-1 16.8-6.7 25.8 0 0-3.2 5.8-3.6 19.1 0 0-.9 11.3-2.2 14.8-.8 2.1-3.4 5.6-5.5 8.2-4.1 5.1-11 15.8-7.3 17 0 0 2.9.3 6.7-7.3 0 0-.1 2.9-3.1 11.3-.6 1.6-3.1 9.5 1 6.7 0 0 1.9-1.3 4.4-9.5 0 0-1.3 13.8.1 14.5 2 .9 3-1.8 3.9-13.9 0 0 .9-3.9 1.3 11 0 .8 1.2 4.6 2.7 1.3 1.3-2.7.7-10 .7-12.5 0 0 1.7 9.4 3.3 9.4 0 0 1.9 2.2 1.1-9.5-.2-1.9.5-5.9.6-7l.2-4.5c0 0-.5-5.1-.5-7.3 0-.5 1.8-7.6 6.7-14.9 0 0 9.9-17.9 9.3-29.6 0 0 0-7.7 2-13.9v-57c-3.1.5-13.3 3.5-14.9 19.4"/></g></svg>