<svg xmlns="http://www.w3.org/2000/svg" viewBox="0 0 105.24468 176.34509" width="105.24" height="176.35"><g transform="matrix(2.0085 0 0 2.0085-122.52-131.56)"><path d="m87.1 107.1c-2.6 0-4.8 1-4.8 2.3 0 1.3 2.1 2.3 4.8 2.3 2.6 0 4.8-1 4.8-2.3 0-1.3-2.2-2.3-4.8-2.3m26.2-15.7c0-14.3-11.6-25.9-25.9-25.9 0 0 0 0-.1 0-.1 0-.2 0-.3 0-.4 0-.7 0-1.1 0-.2 0-.4 0-.6 0-.1 0-.3 0-.4 0-.1 0-.2 0-.3 0-.4 0-.9.1-1.3.2-.2 0-.4.1-.5.1-.5.1-1 .2-1.5.3-.2 0-.3.1-.5.1-.5.1-1.1.3-1.6.5-.1 0-.1 0-.2.1-1.7.6-3.4 1.4-5 2.3l-.2.2c-1.6 1-3.1 2.1-4.4 3.5l-.5.5c0 0 0 0 0 0l-.1.1c-4.8 4.7-7.8 11.3-7.8 18.6 0 8.1 3.7 15.3 9.4 20.1-7.4 6.1-9.2 16.7-9.2 28.2.1 1.1.7 1.4 1 1.6.6.4 1.1.5 1.6.7.9.3 1.8.5 2.6.8.1 0 .2.1.3.1.3 4.2 2.4 7.1 5.5 8.4 3.2 1.4 7.1 1.4 11.6 1.4 1.1 0 2.2 0 3.4 0 5.3 0 10.1 0 13.9-1.2 1.9-.6 3.6-1.7 4.8-3.2 1.1-1.4 1.7-3.2 2-5.3.5-.2 1.3-.4 2.1-.6.6-.2 1.2-.4 1.7-.6.3-.1.5-.2.8-.5.3-.2.8-.6.8-1.5 0-6.3-.4-12.3-2-17.4-1.3-4.4-3.6-8.2-7.1-11 3.2-2.8 5.8-6.3 7.3-10.4-.1 0-.3 0-.4-.1h.4l.2-.6c1-2.5 1.6-5.2 1.7-8v-.2c-.1-.5-.1-.9-.1-1.3m-18.9-22.8c1.5.4 3.8 1.4 4.4 1.6l1.7 1c0 0-.1-.1-.1-.1s.2.1.3.2c.2.1.4.3.6.4.4.3.7.5 1.1.8.1.1.2.1.3.2.4.4.9.8 1.3 1.2.1.1.2.2.3.3.3.3.6.7 1 1 .1.1.2.2.3.3.3.4.6.8 1 1.2.1.1.1.1.2.2.4.5.7 1 1 1.5 0 0 0 .1.1.1.3.5.6.9.8 1.4.1.1.1.2.2.4.2.4.4.9.6 1.4 0 .1.1.2.1.3.5 1.1.9 2.3 1.2 3.5 0 .1 0 .2.1.3.1.5.2 1 .3 1.5 0 .1 0 .1 0 .2-2.5-2.9-5.3-6.2-6.9-8.5-2.7-3.7-9.4-8.5-13.7-11.5 1.1.4 2.7.8 3.8 1.1m-9.4-1.2c.1 0 .2 0 .3 0 .3 0 .6 0 .9-.1.2 0 .4 0 .6 0 3.3 2.1 13.1 8.8 16 12.9.9 1.2 2 2.7 3.3 4.2-1.9-1.3-3.8-2.6-5.4-3.4-3.6-1.7-7.9-4.8-11.8-7.7-2.8-2.1-5.4-4-7.3-5.3 1-.3 2.2-.5 3.4-.6m23 56.4c1.4 4.4 1.8 9.8 1.9 15.7-.6.2-1.5.5-2.4.7-.1 0-.3.1-.4.1l-1.9-14.2c0 0-.4 15.8-.5 16.4-.1 2-.6 3.4-1.4 4.4-1.1 1.4-3 2.3-5.8 2.7-2.8.4-6.3.5-10.3.5-1.2 0-2.3 0-3.4 0-4.4 0-8.1-.2-10.3-1.2-2.2-1-3.3-2.4-3.6-6.4-.7-5.6-.1-16.4-.1-16.4l-2 14.3.1.1c-.8-.3-1.6-.5-2.4-.7-.4-.1-.8-.2-1-.3.1-11.2 2.2-20.5 8.6-25.3 1.1.7 2.3 1.3 3.6 1.9.1.8.5 2.1 1.4 3.4 1.4 2.1 4.4 4.1 9.3 4.1h.1c4.8 0 7.6-2 9-4.2.8-1.3 1.2-2.6 1.3-3.4 1.3-.6 2.5-1.3 3.7-2 3.1 2.2 5.1 5.5 6.5 9.8m-27.7-6.5c1.7.4 3.4.7 5.2.8.2 0 .4 0 .7 0 .2 0 .4 0 .6 0 0 0 0 0 .1 0 0 0 .1 0 .1 0 2.3 0 4.6-.3 6.8-.9-.2.5-.6.9-1 1.3-1 .9-2.6 1.7-5.6 1.8-4.1 0-5.7-1.4-6.6-2.7-.2-.1-.2-.2-.3-.3m20.8-7.4l-1 .6c-3.8 2.7-8.4 4.4-13.3 4.4-.1 0-.3 0-.4 0-.3 0-.5 0-.8 0-11.4-.7-20.6-9.7-21.5-21l4.5-6.7c0 0 4.9 3.5 15.1 5.8 3.9.9 7.7 1.1 11 1 0 0 .1.1.1.1 6.5 4.1 10.6 6 13.2 6.8-1.5 3.5-3.8 6.7-6.9 9m9-10.4c-2-.4-6.3-1.9-14.3-7-11.9-7.5-21.7-16.3-24.6-19 1-.9 2.1-1.7 3.2-2.5 4.8 2.6 12.9 10.1 18.9 13.6 5.2 3 13.6 7.5 17.6 11.7-.1 1.1-.4 2.2-.8 3.2m1.2-5.4c-4.6-4.2-12.2-8.2-17-11-5.4-3.1-12.8-9.9-18-13.1.9-.5 1.9-.9 2.9-1.3 1.7.9 4.9 3.3 8.5 6 3.9 2.9 8.3 6 12.1 7.9 3.1 1.5 7.4 5 10.8 7.2.3.3.5.6.8.9 0 .2 0 .5 0 .7 0 .9 0 1.8-.1 2.7m-18.1 5.1l-1.4-1.4c-.4-.4-1-.4-1.3 0-.4.4-.4 1 0 1.3l1.4 1.4-1.4 1.4c-.4.4-.4 1 0 1.3.2.2.4.3.7.3.2 0 .5-.1.7-.3l1.4-1.4 1.4 1.4c.2.2.4.3.7.3.2 0 .5-.1.7-.3.4-.4.4-1 0-1.3l-1.4-1.4 1.4-1.4c.4-.4.4-.9 0-1.3-.4-.4-1-.4-1.3 0l-1.6 1.4m-9.8 4c.4-.4.4-.9 0-1.3l-1.4-1.4 1.4-1.4c.4-.4.4-1 0-1.3-.4-.4-.9-.4-1.3 0l-1.4 1.4-1.4-1.4c-.4-.4-.9-.4-1.3 0-.4.4-.4 1 0 1.3l1.4 1.4-1.4 1.4c-.4.4-.4 1 0 1.3.2.2.4.3.7.3.3 0 .5-.1.7-.3l1.4-1.4 1.4 1.4c.2.2.4.3.7.3.1 0 .3-.1.5-.3" fill="#3fa9f5"/></g></svg>