<svg xmlns="http://www.w3.org/2000/svg" viewBox="0 0 180 180" enable-background="new 0 0 180 180"><g fill="#3fa9f5"><path d="m73.8 64.4c1.5 0 3.1.2 4.8.7 1.7.5 3.9 1.3 5.6 2.4 1.1-.7 2.3-1.2 3.7-1.7v-9.8c0-.6-1.6-1.3-2.3-1.3h-21.3c-.6 0-1.8.6-1.8 1.3v12.4c2.8-1.1 3.2-2.1 4.9-2.8 2.1-.7 4.4-1.2 6.4-1.2"/><path d="m85.1 118h-1.4-1.4v-.1l-21.6-22.3c-.7-.7-1-1.5-1.7-2.4-.7-.9-1.1-2-1.6-3.1-.5-1.1-.9-2.4-1.2-3.6-.3-1.3-.4-3.1-.4-4.4 0-1.5.2-1.9.6-4.7h-15.5c-.6 0-.9 1.5-.9 2.2v21.3c0 .6.2 1.9.9 1.9h21.7v21.6c0 .6 1.1 1 1.8 1h21.3c.6 0 2.3-.3 2.3-1v-9.4l-2.9 3"/><path d="m139.3 77.3h-21.8v-21.3c0-.6-1-1.3-1.6-1.3h-21.3c-.6 0-2.4.6-2.4 1.3v21.3h-21c-.6 0-1.5 1.5-1.5 2.2v21.3c0 .6.9 1.9 1.5 1.9h21v21.6c0 .6 1.8 1 2.4 1h21.3c.6 0 1.6-.3 1.6-1v-21.6h21.8c.6 0 .7-1.3.7-1.9v-21.3c0-.6-.1-2.2-.7-2.2"/></g></svg>