<svg xmlns="http://www.w3.org/2000/svg" viewBox="0 0 180 180" enable-background="new 0 0 180 180"><g fill="#3fa9f5"><path d="m103.8 49.4h-27.6c-.4 0-.6.3-.6.6v10.3c0 .4.3.6.6.6h27.6c.4 0 .6-.3.6-.6v-10.3c.1-.4-.2-.6-.6-.6m-22 8.6h-3.4v-5.8h3.4v5.8"/><path d="m107.5 70.4c-2.8-.9-4.9-3.3-5.7-6.2h-5.8c.8 5.5 4.6 9.9 9.7 11.6 3.4 1.2 5.8 4.4 5.8 8.3v2.9h-37.2v14.5h-5.8v-17.4c0-3.8 2.4-7 5.8-8.2 5.1-1.7 8.9-6.2 9.7-11.7h-5.9c-.7 2.9-2.9 5.2-5.7 6.2-5.7 2-9.8 7.4-9.8 13.8v40.4c0 3.3 2.7 6.1 6 6.1h42.6c3.3 0 6.1-2.7 6.1-6.1v-40.4c.1-6.4-4-11.8-9.8-13.8m-4.6 41.6h-23.2v-3.8h23.2v3.8m0-7.6h-23.2v-3.8h23.2v3.8m0-7.7h-23.2v-3.8h23.2v3.8"/></g></svg>