<svg xmlns="http://www.w3.org/2000/svg" viewBox="0 0 180 180" enable-background="new 0 0 180 180"><path d="m108 115.4c5.9-5.6 9.7-13.5 9.7-22.3 0-16.9-13.7-30.6-30.6-30.6-16.2 0-29.3 12.5-30.5 28.4-.1.7-.1 1.4-.1 2.1 0 0 0 .1 0 .1 0 1 .1 2 .1 2.9.8 7.9 4.6 15 10.2 20-.2.3-.4.5-.6.8-3.9 6.2-4.9 14.3-4.9 22.9.1 1.8 1.1 2.2 1.4 2.5.7.5 1.2.6 1.9.8.7.2 1.5.4 2.1.6.5 3.9 2.8 6.9 5.9 8.2 3.4 1.4 7.3 1.4 11.6 1.5 1.1 0 2.2 0 3.3 0 5.1 0 9.7.1 13.7-1.2 2-.7 3.8-1.7 5.1-3.5 1.1-1.4 1.7-3.1 2-5 .5-.2 1.1-.3 1.7-.5.5-.2 1-.3 1.5-.6.3-.1.6-.3.9-.6.3-.3 1-.9 1.1-2.2 0-8.5-.8-16.5-4.5-22.8-.3-.5-.6-1-1-1.5m-46.2-22.3c0 0 0 0 0 0l3.8-5.8c0 0 5.7 4.1 17.8 6.8 12.1 2.7 23.5-.1 23.5-.1s2.2 4.2 4.4 6.7c-3.3 10.2-12.8 17.6-24.1 17.6-14.1.1-25.4-11.2-25.4-25.2m29.7 30.3c-.2.3-.3.6-.6.9-.7.8-1.6 1.5-3.9 1.5-3.1-.1-3.9-1.2-4.7-2.4 1.6.3 3.2.4 4.9.4 1.4 0 2.8-.2 4.3-.4m15.2 15.1c-.5.2-1 .3-1.5.6l-1.8-13.1c0 0 .3 5.7.5 9.4.1 2.2-.1 4-.3 5.1-.2.3-.3.7-.4 1.3-.1 1.8-.6 2.8-1.1 3.5-.8 1.1-2.3 1.8-4.9 2.2-2.5.4-5.9.4-9.8.4-1.1 0-2.2 0-3.3 0-4.2 0-7.6-.2-9.5-1-1.7-.9-2.5-1.6-2.8-5.1-.1-.6-.3-1.1-.5-1.4-.2-1.1-.4-2.8-.2-5 .2-3.7.5-9.4.5-9.4l-1.8 13.1c-1.1-.5-2-.7-3-1-.1 0-.1 0-.2-.1.1-7.5 1.3-14 4.1-18.4.1-.2.2-.3.3-.5 1.6 1 3.4 1.9 5.2 2.5.1.9.4 2.5 1.3 4.1 1.3 2.6 4.5 5.3 9.4 5.3.1 0 .2 0 .2 0 4.7 0 7.8-2.8 9-5.3.7-1.5 1-2.9 1.2-3.8 2.3-.8 4.4-1.9 6.4-3.2.2.3.4.6.6.9 2.7 4.4 3.7 10.9 3.8 18.5-.3.1-.9.3-1.4.4m-12.5-31.4c1.7 0 3.1-2.2 3.1-5s-1.4-5-3.1-5-3.1 2.2-3.1 5 1.4 5 3.1 5m-23 3.8c.1.1 6.7 5.3 16.6 5.3 10 0 16.3-6.2 16.4-6.3.5-.5.5-1.4 0-1.9-.5-.5-1.4-.5-1.9 0 0 0-.3.3-1 .8-2 1.6-7 4.8-13.6 4.8-4.5 0-8.2-1.2-10.9-2.4-1.3-.6-2.4-1.2-3-1.6-.7-.4-1-.7-1-.7-.6-.5-1.4-.4-1.9.2-.4.5-.3 1.3.3 1.8m9.4-3.8c1.7 0 3.1-2.2 3.1-5s-1.4-5-3.1-5c-1.7 0-3.1 2.2-3.1 5s1.4 5 3.1 5" fill="#3fa9f5"/></svg>