<svg xmlns="http://www.w3.org/2000/svg" viewBox="0 0 105.37315 124.47119" width="105.37" height="124.47"><g transform="matrix(1.33553 0 0 1.33553-67.58-57.962)" fill="#3fa9f5"><path d="m66.3 61.7c-1.6 0-3-1.3-3-3v-12.3c0-1.6 1.3-3 3-3 1.7 0 3 1.3 3 3v12.3c-.1 1.6-1.4 3-3 3"/><path d="m102.6 61.7c-1.6 0-3-1.3-3-3v-12.3c0-1.6 1.3-3 3-3 1.6 0 3 1.3 3 3v12.3c-.1 1.6-1.4 3-3 3"/><path d="m72.5 119.4h-3.5v-16h2.6c.1-.7.3-1.4.5-2.1h-3.1v-15.5h12.9c1.1-1 2.3-1.8 3.5-2.6v-14.5h14.3v9.5c.7-.1 1.4-.1 2.1-.1v-9.4h12.6v11.7c1.3.5 2.6 1.2 3.8 1.9v-23.2c0-3.9-3.1-7-7-7h-3v6.6c0 3.2-2.6 5.7-5.7 5.7-3.2 0-5.7-2.6-5.7-5.7v-6.6h-24.8v6.6c0 3.2-2.6 5.7-5.7 5.7-3.1 0-5.7-2.6-5.7-5.7v-6.6h-3c-3.9 0-7 3.1-7 7v57.1c0 3.9 3.1 7 7 7h16.5c-.6-1.2-1.1-2.5-1.6-3.8m-3.4-50.7h14.3v15h-14.3v-15zm-2.1 50.7h-9.4c-1.8 0-3.2-1.4-3.2-3.2v-12.8h12.6v16m0-18.1h-12.6v-15.5h12.6v15.5m0-17.6h-12.6v-15h12.6v15"/><path d="m89.6 105.5v8.4h8.8v8.8h8.4v-8.8h8.8v-8.4h-8.8v-8.8h-8.4v8.8z"/><path d="m102.6 136.6c-14.8 0-26.9-12-26.9-26.9 0-14.8 12-26.9 26.9-26.9 14.8 0 26.9 12 26.9 26.9-.1 14.8-12.1 26.9-26.9 26.9m0-47.6c-11.4 0-20.7 9.3-20.7 20.7 0 11.4 9.3 20.7 20.7 20.7 11.4 0 20.7-9.3 20.7-20.7 0-11.4-9.3-20.7-20.7-20.7"/></g></svg>