<svg xmlns="http://www.w3.org/2000/svg" viewBox="0 0 180 180" enable-background="new 0 0 180 180"><g fill="#3fa9f5"><path d="m93.1 105.8c1.4 0 2.3-1.1 2.3-2.3v-2.9c0-1.4-1.1-2.3-2.3-2.3s-2.3 1.1-2.3 2.3v2.9c0 1.2 1.1 2.3 2.3 2.3"/><path d="m84.4 110l5.2 1.1h.2c.5 0 .9-.3 1.1-.9.2-.6-.3-1.2-.9-1.2l-5.2-1.1c-.6-.2-1.2.3-1.2.9-.1.6.2 1.1.8 1.2"/><path d="m81.4 105.8c1.4 0 2.3-1.1 2.3-2.3v-2.9c0-.2 0-.2 0-.3h-4.7c0 .2 0 .2 0 .3v2.9c0 1.2 1 2.3 2.4 2.3"/><path d="m79.3 30h2.9c.8 0 1.4-.6 1.4-1.4 0-2.9 4.1-3 4.6-3 4.9 0 4.9 2.1 4.9 2.9 0 1.7-1.1 2.1-2.9 2.9-3.3 1.2-5.5 3-5.5 8.2 0 .8.6 1.4 1.4 1.4h2.9c.8 0 1.4-.6 1.4-1.4 0-2.6.3-2.7 2-3.3.2-.2.5-.2.8-.3 2.1-.9 5.6-2.4 5.6-7.4 0-2.3-.8-4.1-2.1-5.6-2.1-2-5-3-8.6-3-6.2 0-10.3 3.3-10.3 8.3.1 1.1.7 1.7 1.5 1.7"/><path d="m87.5 43.1c-1.8 0-3.3 1.4-3.3 3.3 0 1.8 1.4 3.3 3.3 3.3 1.8 0 3.3-1.4 3.3-3.3 0-1.8-1.5-3.3-3.3-3.3"/><path d="m103.7 49.7c-1.2 0-2.1.9-2.1 2.1s.9 2.1 2.1 2.1 2.1-.9 2.1-2.1-.9-2.1-2.1-2.1"/><path d="m98.4 41.4h1.8c.5 0 .9-.5.9-.9 0-1.8 2.6-2 2.9-2 3 0 3 1.4 3 1.8 0 1.1-.6 1.4-1.8 1.8-2.1.8-3.5 2-3.5 5.3 0 .5.5.9.9.9h1.8c.5 0 .9-.5.9-.9 0-1.7.2-1.8 1.2-2.1.2 0 .3-.2.5-.2 1.4-.6 3.6-1.5 3.6-4.7 0-1.4-.5-2.6-1.4-3.5-1.2-1.2-3-1.8-5.3-1.8-3.9 0-6.5 2.1-6.5 5.3.3.7.6 1 1 1"/><path d="m70.2 42.3h1.2c.3 0 .6-.3.6-.6 0-1.4 1.8-1.4 2-1.4 2.1 0 2.1.9 2.1 1.4 0 .8-.5.9-1.2 1.4-1.5.5-2.4 1.4-2.4 3.6 0 .3.3.6.6.6h1.4c.3 0 .6-.3.6-.6 0-1.2.2-1.2.9-1.5l.3-.2c.9-.5 2.6-1.1 2.6-3.3 0-1.1-.3-1.8-.9-2.4-.8-.8-2.1-1.2-3.6-1.2-2.7 0-4.6 1.5-4.6 3.8-.2.2-.1.4.4.4"/><path d="m73.8 48.2c-.9 0-1.5.6-1.5 1.5 0 .9.6 1.5 1.5 1.5.9 0 1.5-.6 1.5-1.5 0-.9-.7-1.5-1.5-1.5"/><path d="m104.5 111.1c3.2-2.9 5.8-6.4 7.4-10.5.2-.2.2-.5.3-.6 2.3-5.2 4.3-17.3.9-25.2-4.3-9.6-16.5-14.4-20.6-15-.5-.2-1.2-.3-1.2-.3l.3-2.7-1.8 2.2-3.8-2.3 1.4 2.6c0 0-17.9.3-25 13.4-5.2 9.3-2.7 23.5.3 28.5 1.7 4.1 4.4 7.7 7.7 10.5-1.7 1.4-3 3-4.3 4.9-3.3 5.5-5 12.9-5 23.7 0 1.7 1.7 2.1 3.9 2.7.5.2 1.2.3 1.7.5.9 9.9 9.6 9.9 17.3 9.9h3.5c10.6 0 19.9 0 20.9-9.9.5-.2 1.1-.3 1.5-.5 2.3-.6 3.8-1.1 3.8-2.7.2-12.1-1.3-23.2-9.2-29.2m-40.4-18.1c1.1-1.2 2.4-2.6 3.2-3.8.9-1.2 1.7-3.3 2.1-4.9 3.8 3.5 10 8.2 16.2 9.3 9.7 1.5 17.5.6 17.5.6l-3.3-2.3c0 0 7.4 2.3 8.7 2.4.6 0 1.2-.2 1.8-.3-1.5 11.4-11.2 20-22.9 20-12.4.3-22.2-9.2-23.3-21m29.3 23.8c-1.2 1.1-3.5 2-6.5 2-3.2 0-5.6-.9-6.7-2.1 2.3.6 4.6.9 7 .9 2.1 0 4.2-.3 6.2-.8m-7 33.1h-2.4c-9.6 0-13.8-.8-14.1-7.7 0-.2 0-.3 0-.5 0 0 0-.2 0-.5h4.6c-.2.5-.6.9-.9 1.4-.8.8-1.8 1.1-1.8 1.1l.3 1.1.2 1.1c.2 0 1.7-.5 2.9-1.7 1.1-1.1 1.7-2.6 1.7-2.9h9.7v8.6zm19-8c0 .2 0 .3 0 .3-.5 7.1-5.8 7.6-16.5 7.7v-8.5h9.6c.2.3.8 1.8 1.7 2.9 1.2 1.2 2.7 1.7 2.9 1.7l.5-2.1c0 0-1.1-.3-1.8-1.1-.5-.5-.8-.9-.9-1.4h4.7c-.2.3-.2.5-.2.5m3.6-2.3c-.6.2-1.1.3-1.5.5 0-.2 0-.2-.2-.3l-2.6-14.3c0 0 .2 5.8.5 9.6.2 1.5.2 3 .2 4.1h-35.5c0-1.2 0-2.6.2-4.1.2-3.8.5-9.6.5-9.6l-2.6 14.6c-.5-.2-1.1-.3-1.7-.5-.5-.2-1.1-.3-1.5-.5.2-12.9 2.9-21.3 8.8-25.7 1.4.9 2.7 1.5 4.3 2.1.5 3 4.4 5.2 9.6 5.2 5 0 9-2.1 9.6-5 2-.8 3.6-1.7 5.3-2.7 6.8 4.7 8.7 13.8 8.8 26.1-1.1.2-1.7.4-2.2.5"/></g></svg>