<?xml version="1.0" encoding="utf-8"?>
<!-- Generator: Adobe Illustrator 19.1.0, SVG Export Plug-In . SVG Version: 6.00 Build 0)  -->
<svg version="1.1" id="Layer_1" xmlns="http://www.w3.org/2000/svg" xmlns:xlink="http://www.w3.org/1999/xlink" x="0px" y="0px"
	 viewBox="175 128.7 1310 304.3" style="enable-background:new 175 128.7 1310 304.3;" xml:space="preserve">
<style type="text/css">
	.st0{fill:none;stroke:#0091DE;stroke-width:18.4735;stroke-miterlimit:10;}
	.st1{enable-background:new    ;}
	.st2{fill:#0091DE;}
</style>
<g>
	<polyline class="st0" points="275.4,211 275.4,253.5 210.7,253.5 210.7,318.2 275.4,318.2 275.4,383 345.2,383 345.2,318.2 
		410,318.2 410,253.5 345.2,253.5 345.2,192.5 	"/>
	<line class="st0" x1="310.3" y1="171.8" x2="310.3" y2="244.1"/>
</g>
<g>
	<g class="st1">
		<path class="st2" d="M639,184.8v27.5h-12.9c-1.5-7.1-3.9-12.4-7.2-15.8c-3.3-3.4-7.6-5.1-12.9-5.1c-10,0-17.5,4.8-22.7,14.4
			s-7.7,23.8-7.7,42.6c0,17.5,2.3,30.8,7,39.8c4.7,9,11.5,13.5,20.6,13.5c4.6,0,8.4-0.8,11.3-2.3c2.9-1.5,5.2-3.9,7-7
			c1.7-3.1,3.2-7.5,4.5-13.1h13v28.7c-7,1.6-13.3,2.8-19.1,3.6c-5.8,0.8-11.7,1.1-17.9,1.1c-13.2,0-23.9-2.4-32.2-7.1
			c-8.3-4.7-14.5-11.9-18.4-21.5c-4-9.6-5.9-21.7-5.9-36.4c0-13.7,2.3-25.7,7-35.8c4.6-10.2,11.5-18,20.5-23.5
			c9-5.5,19.9-8.3,32.4-8.3c6.4,0,12.2,0.3,17.4,1C628,182.1,633.4,183.2,639,184.8z"/>
		<path class="st2" d="M684.9,283.9c0,6,0.2,10.2,0.6,12.4s1.2,4.1,2.3,5.5c1.2,1.4,3.4,2.5,6.6,3.3v6.3h-46.5v-6.3
			c1.9-0.4,3.4-1,4.5-1.6c1.1-0.6,1.9-1.3,2.5-2.1c0.6-0.8,1.1-1.8,1.6-3c0.4-1.2,0.7-2.9,0.9-5.1c0.1-2.2,0.2-5.3,0.2-9.3v-74
			c0-5.4,0-9.4-0.1-12c-0.1-2.6-0.3-4.7-0.6-6.5c-0.3-1.7-0.8-3.1-1.4-4.2c-0.7-1-1.6-1.9-2.8-2.5c-1.2-0.6-3.1-1.2-5.8-1.7v-6.3
			l26.3-1.3h11.9V283.9z"/>
		<path class="st2" d="M703.3,305.1c3.1-0.8,5.2-1.9,6.4-3.2c1.2-1.3,2-3.1,2.4-5.4c0.4-2.3,0.6-6.4,0.6-12.4v-44.1
			c0-3.1-0.1-5.6-0.4-7.5c-0.3-1.9-0.8-3.4-1.6-4.6c-0.8-1.1-1.9-2-3.2-2.6c-1.4-0.6-3.1-1.1-5.3-1.6v-6.5l26.1-0.8h11.9v67.4
			c0,3.5,0,6.3,0.1,8.2c0.1,1.9,0.2,3.4,0.4,4.5c0.2,1,0.5,2,0.8,2.8c0.3,0.8,0.8,1.6,1.4,2.3c0.6,0.7,1.4,1.3,2.5,1.9
			c1.1,0.6,2.5,1.1,4.3,1.5v6.3h-46.3V305.1z M739.4,179.4v23.2h-26v-23.2H739.4z"/>
		<path class="st2" d="M831,287l7.3,8.8c-6.2,6.1-12.2,10.4-18,13s-12.1,3.9-18.9,3.9c-13.7,0-24.2-4-31.4-12.1
			s-10.8-19.8-10.8-35.1c0-10.4,2-19.3,5.9-26.9c4-7.6,9.6-13.3,17-17.2c7.4-3.9,15.9-5.8,25.4-5.8c5.1,0,10.2,0.4,15.3,1.1
			c5.1,0.7,9.7,1.7,13.9,3v22.9H818c-0.9-5.9-2.4-10.3-4.3-13c-1.9-2.7-4.6-4.1-8.2-4.1c-2.3,0-4.6,0.6-6.7,1.8
			c-2.1,1.2-4,3.2-5.6,6.1c-1.6,2.9-2.9,6.7-3.8,11.6s-1.4,11-1.4,18.4s0.7,13.6,2.1,18.7c1.4,5.1,3.6,9,6.7,11.8
			c3.1,2.8,7.2,4.1,12.2,4.1c3.7,0,7.1-0.8,10.4-2.4C822.7,294,826.5,291.1,831,287z"/>
		<path class="st2" d="M911,251.5l24.5,36.2c3.6,5.4,6.3,9.1,8,11.1c1.7,2,3.2,3.5,4.5,4.3c1.3,0.9,2.8,1.5,4.7,1.9v6.3h-46.4v-6.3
			c2.8-0.6,4.3-2.1,4.3-4.5c0-1.6-0.6-3.6-1.7-5.8c-1.1-2.2-3.3-5.7-6.5-10.5l-7.3-11c-1.6-2.5-3-4.3-4-5.4c-1-1.1-2-1.9-3-2.5
			c-1-0.6-2.4-0.9-4.1-0.9h-4.6v19.4c0,6,0.2,10.2,0.6,12.4c0.4,2.3,1.2,4.1,2.3,5.5c1.2,1.4,3.4,2.5,6.6,3.3v6.3h-46.5v-6.3
			c1.9-0.4,3.4-1,4.5-1.6c1.1-0.6,1.9-1.3,2.5-2.1c0.6-0.8,1.1-1.8,1.6-3c0.4-1.2,0.7-2.9,0.9-5.1c0.1-2.2,0.2-5.3,0.2-9.3v-74
			c0-5.4,0-9.4-0.1-12c-0.1-2.6-0.3-4.7-0.6-6.5c-0.3-1.7-0.8-3.1-1.4-4.2c-0.6-1-1.6-1.9-2.8-2.5c-1.2-0.6-3.1-1.2-5.8-1.7v-6.3
			l26.4-1.3h11.8v80h3.1c2.2,0,4-0.2,5.2-0.7c1.3-0.4,2.6-1.2,3.9-2.1c1.4-1,3.5-2.8,6.3-5.3c2.8-2.6,5-4.8,6.5-6.8
			c1.5-2,2.4-3.7,2.9-5.2c0.5-1.5,0.8-2.9,0.8-4.3c0-4.4-2.8-6.9-8.3-7.7v-6.1h47.4v6.1c-2.5,0.4-5.2,1.5-8.3,3.4
			c-3,1.9-7.8,5.9-14.3,12L911,251.5z"/>
	</g>
	<g class="st1">
		<path class="st2" d="M989.2,303.9c2.7-0.7,4.8-1.6,6.5-2.4c1.6-0.9,2.8-2,3.6-3.5c0.8-1.5,1.3-3.3,1.6-5.7
			c0.2-2.3,0.3-5.2,0.3-8.8v-16.7H941v-12.1l68.2-97.5h25.3v95.5h3.5c3.7,0,6.3-0.2,7.7-0.7c1.5-0.5,2.8-1.4,3.9-2.8
			c1.1-1.3,2.1-3.7,3.1-7.2h11.8l-1.3,24.8h-28.6v16.7c0,4,0.2,7.1,0.6,9.5c0.4,2.4,1,4.2,1.9,5.6c0.9,1.4,2.1,2.4,3.7,3.1
			c1.6,0.7,3.6,1.4,6,2.1v7.4h-57.4V303.9z M962.8,252.7h38.4V227c0-10.8,0.4-22.1,1.1-34h-1.1l-38.4,57.8V252.7z"/>
	</g>
	<g class="st1">
		<path class="st2" d="M1165.5,184.8v27.5h-12.9c-1.5-7.1-3.9-12.4-7.2-15.8c-3.3-3.4-7.6-5.1-12.9-5.1c-10,0-17.5,4.8-22.7,14.4
			c-5.1,9.6-7.7,23.8-7.7,42.6c0,17.5,2.3,30.8,7,39.8c4.7,9,11.5,13.5,20.6,13.5c4.6,0,8.4-0.8,11.3-2.3c2.9-1.5,5.2-3.9,7-7
			c1.7-3.1,3.2-7.5,4.5-13.1h13v28.7c-7,1.6-13.3,2.8-19.1,3.6c-5.8,0.8-11.7,1.1-17.9,1.1c-13.2,0-23.9-2.4-32.2-7.1
			c-8.3-4.7-14.5-11.9-18.4-21.5c-4-9.6-5.9-21.7-5.9-36.4c0-13.7,2.3-25.7,7-35.8s11.5-18,20.5-23.5c9-5.5,19.9-8.3,32.4-8.3
			c6.4,0,12.2,0.3,17.4,1C1154.5,182.1,1159.9,183.2,1165.5,184.8z"/>
		<path class="st2" d="M1232,298.9l-1.4-0.5c-5.2,5.1-10.2,8.7-15.1,11c-4.9,2.3-10.1,3.4-15.6,3.4c-5.4,0-10.2-1-14.2-3
			c-4-2-7.1-4.8-9.1-8.3c-2.1-3.5-3.1-7.6-3.1-12.2c0-9.3,4.6-16.6,13.7-22c9.1-5.3,23-8.7,41.6-10.1v-9c0-5.9-0.7-10.4-2-13.6
			c-1.3-3.2-3-5.4-5.1-6.7c-2.1-1.3-4.6-1.9-7.5-1.9c-2.9,0-5.4,0.5-7.5,1.5c-2.1,1-4,2.9-5.7,5.7c-1.7,2.8-3,6.7-3.8,11.7h-17.9
			v-17.3c5.8-2.6,10.7-4.6,14.5-6c3.9-1.4,7.7-2.5,11.4-3.5c3.8-0.9,7.1-1.6,10.1-1.9c3-0.4,5.9-0.6,8.9-0.6c7.7,0,13.8,1,18.4,3
			c4.6,2,8,5.3,10.3,9.9c2.3,4.6,3.4,10.8,3.4,18.9v37c0,4.2,0.1,7.4,0.3,9.7c0.2,2.3,0.5,4,0.9,5.1c0.4,1.1,0.9,2,1.6,2.7
			c0.6,0.7,1.4,1.2,2.3,1.6c0.9,0.4,2.6,0.9,5.2,1.6v6.3h-35.3L1232,298.9z M1228.8,266.5c-9.8,0.3-17.1,2.1-21.8,5.5
			c-4.7,3.4-7.1,8.4-7.1,15c0,3.9,1.1,6.9,3.2,9c2.1,2.1,5.1,3.1,8.9,3.1c2.9,0,5.7-0.8,8.3-2.3c2.6-1.5,4.6-3.6,6.2-6.2
			c1.5-2.6,2.3-5.3,2.3-8.3V266.5z"/>
		<path class="st2" d="M1309.4,230.8l1.2,0.3c4.6-5.4,9.4-9.4,14.2-11.8c4.9-2.4,10.2-3.6,15.8-3.6c3.9,0,7.9,0.4,12.1,1.2v26.2
			h-17.2c-1.1-3.7-2.5-6.5-4.2-8.4c-1.7-2-4.1-2.9-7-2.9c-1.4,0-2.9,0.4-4.6,1.3c-1.7,0.9-3.2,2.1-4.6,3.6c-1.4,1.5-2.4,3.1-3,4.7
			c-0.6,1.6-1,3.2-1.2,4.9c-0.2,1.6-0.3,4.1-0.3,7.4v30.3c0,6,0.2,10.2,0.7,12.6c0.4,2.4,1.3,4.3,2.7,5.6c1.3,1.4,3.6,2.3,6.7,2.9
			v6.3H1274v-6.3c3-0.8,5.1-1.9,6.3-3.2c1.2-1.3,2-3.1,2.4-5.4c0.4-2.3,0.6-6.4,0.6-12.4v-39c0-4.7-0.1-8.1-0.2-10.4
			c-0.2-2.2-0.5-4-1.1-5.4c-0.6-1.4-1.5-2.5-2.8-3.3s-3.4-1.6-6.4-2.2v-6.5l26-0.8h12L1309.4,230.8z"/>
		<path class="st2" d="M1440.9,294.1c-6.5,6.8-12.8,11.7-19.2,14.5c-6.3,2.8-13.6,4.3-21.8,4.3c-14.7,0-25.8-4-33.2-12.1
			c-7.4-8.1-11.1-20-11.1-35.9c0-10.2,1.9-19.1,5.7-26.5c3.8-7.4,9.2-13.1,16.3-16.9c7-3.8,15.2-5.7,24.5-5.7c5.8,0,10.8,0.7,15.1,2
			c4.3,1.3,8,3.2,11.1,5.5c3.1,2.4,5.7,5.2,7.7,8.6c2.4,4,4.2,8.5,5.4,13.7c1.3,5.2,1.9,11.6,2,19.1h-60.1
			c0.1,11.4,2.1,19.9,6.1,25.3c4,5.4,10.1,8.1,18.4,8.1c4.8,0,9.1-0.9,13-2.7c3.9-1.8,8-5,12.5-9.5L1440.9,294.1z M1415.2,254.3
			c-0.3-9.7-1.5-16.9-3.8-21.6c-2.3-4.7-5.9-7.1-11-7.1c-4.9,0-8.7,2.5-11.6,7.4c-2.9,4.9-4.6,12-5.2,21.3H1415.2z"/>
	</g>
	<g class="st1">
		<path class="st2" d="M540.2,389.9v-41h13.7c3.3,0,5.8,0.2,7.6,0.7c1.8,0.5,3.5,1.3,5.1,2.6c2.3,1.8,4,4.1,5,6.8
			c1.1,2.8,1.6,6.2,1.6,10.4c0,13.7-6.2,20.5-18.5,20.5H540.2z M545.4,385.3h8.9c3,0,5.4-0.4,7.1-1.1c4.4-2,6.6-6.9,6.6-14.7
			c0-6.6-1.6-11.2-4.8-13.7c-1.9-1.5-5.1-2.2-9.5-2.2h-8.3V385.3z"/>
		<path class="st2" d="M585.8,349v41h-5.2v-41H585.8z"/>
		<path class="st2" d="M612.8,368.1h17.6v21.8h-3.5l-1.6-5.3c-3.3,4.1-7.6,6.2-13,6.2c-5.8,0-10.4-1.9-13.9-5.7
			c-3.5-3.8-5.2-8.9-5.2-15.2c0-6.6,1.8-11.9,5.3-15.8c3.6-3.9,8.3-5.9,14.4-5.9c4.6,0,8.4,1.1,11.3,3.3c2.9,2.2,4.7,5.5,5.6,9.7
			h-5.1c-1.4-5.6-5.3-8.4-11.8-8.4c-4.5,0-8.1,1.5-10.6,4.4s-3.8,7-3.8,12.3c0,5.1,1.2,9.2,3.6,12.2c2.4,3,5.7,4.5,9.9,4.5
			c2.7,0,5.1-0.6,7.2-1.9c2.2-1.2,3.8-2.9,4.8-5.1c0.9-1.8,1.4-4.1,1.4-6.7h-12.5V368.1z"/>
		<path class="st2" d="M643.8,349v41h-5.2v-41H643.8z"/>
		<path class="st2" d="M666.5,353.6v36.3h-5.3v-36.3h-13.4V349h31.9v4.6H666.5z"/>
		<path class="st2" d="M685.5,377.5l-4.3,12.4h-5.9l15.1-41h6l15.1,41h-5.9l-4.3-12.4H685.5z M686.9,373.2H700l-6.5-19L686.9,373.2z
			"/>
		<path class="st2" d="M720.2,349v36.3h22v4.6H715v-41H720.2z"/>
		<path class="st2" d="M761.1,389.9v-41h13.7c3.3,0,5.8,0.2,7.6,0.7c1.8,0.5,3.5,1.3,5.1,2.6c2.3,1.8,4,4.1,5,6.8
			c1.1,2.8,1.6,6.2,1.6,10.4c0,13.7-6.2,20.5-18.5,20.5H761.1z M766.3,385.3h8.9c3,0,5.4-0.4,7.1-1.1c4.4-2,6.6-6.9,6.6-14.7
			c0-6.6-1.6-11.2-4.8-13.7c-1.9-1.5-5.1-2.2-9.5-2.2h-8.3V385.3z"/>
		<path class="st2" d="M806.7,349v41h-5.2v-41H806.7z"/>
		<path class="st2" d="M820.3,377.5l-4.3,12.4h-5.9l15.1-41h6l15.1,41h-5.9l-4.3-12.4H820.3z M821.7,373.2h13.1l-6.5-19L821.7,373.2
			z"/>
		<path class="st2" d="M867.1,368.1h17.6v21.8h-3.5l-1.6-5.3c-3.3,4.1-7.6,6.2-13,6.2c-5.8,0-10.4-1.9-13.9-5.7
			c-3.5-3.8-5.2-8.9-5.2-15.2c0-6.6,1.8-11.9,5.3-15.8c3.6-3.9,8.3-5.9,14.4-5.9c4.6,0,8.4,1.1,11.3,3.3s4.7,5.5,5.6,9.7h-5.1
			c-1.4-5.6-5.3-8.4-11.8-8.4c-4.5,0-8.1,1.5-10.6,4.4c-2.6,3-3.8,7-3.8,12.3c0,5.1,1.2,9.2,3.6,12.2c2.4,3,5.7,4.5,9.9,4.5
			c2.7,0,5.1-0.6,7.2-1.9c2.2-1.2,3.8-2.9,4.8-5.1c0.9-1.8,1.4-4.1,1.4-6.7h-12.5V368.1z"/>
		<path class="st2" d="M898.4,349l21.5,33v-33h5.2v41h-5.5l-21.5-33.1v33.1h-5.2v-41H898.4z"/>
		<path class="st2" d="M952.3,348.2c5.9,0,10.7,2,14.3,5.9c3.7,3.9,5.5,9.1,5.5,15.4c0,6.4-1.8,11.5-5.5,15.4
			c-3.7,3.9-8.4,5.9-14.3,5.9c-5.9,0-10.7-2-14.3-5.9c-3.7-3.9-5.5-9.1-5.5-15.4c0-6.3,1.8-11.5,5.5-15.4
			C941.6,350.1,946.4,348.2,952.3,348.2z M952.3,352.8c-4.5,0-8.1,1.5-10.7,4.5c-2.6,3-3.9,7-3.9,12.2c0,5.2,1.3,9.3,3.9,12.2
			c2.6,3,6.2,4.5,10.7,4.5c4.5,0,8.1-1.5,10.7-4.5c2.6-3,3.9-7,3.9-12.2c0-5.2-1.3-9.2-3.9-12.2
			C960.4,354.3,956.8,352.8,952.3,352.8z"/>
		<path class="st2" d="M1008.7,360.9h-5.2c-0.7-5.5-4.3-8.2-10.6-8.2c-2.7,0-4.9,0.5-6.5,1.6s-2.5,2.5-2.5,4.4c0,3,2.2,5,6.5,6.1
			l9.5,2.4c6.9,1.7,10.4,5.5,10.4,11.2c0,3.8-1.5,6.8-4.4,9s-6.8,3.4-11.6,3.4c-5,0-9-1.3-12-3.8c-3.1-2.6-4.9-6.1-5.4-10.7h5.2
			c0.5,3.3,1.8,5.7,3.9,7.4c2.1,1.7,5,2.5,8.6,2.5c3.1,0,5.6-0.7,7.5-2.1c1.9-1.4,2.9-3.2,2.9-5.4c0-1.8-0.7-3.3-2-4.5
			c-1.3-1.2-3.5-2.1-6.4-2.8l-7.6-1.9c-7-1.7-10.4-5.2-10.4-10.4c0-3.3,1.3-6,4-8s6.1-3,10.4-3
			C1002.5,348.1,1007.7,352.4,1008.7,360.9z"/>
		<path class="st2" d="M1030.9,353.6v36.3h-5.3v-36.3h-13.4V349h31.9v4.6H1030.9z"/>
		<path class="st2" d="M1053.4,349v41h-5.2v-41H1053.4z"/>
		<path class="st2" d="M1096,360.5h-5.1c-1.5-5.1-5.3-7.7-11.3-7.7c-4.3,0-7.6,1.5-10,4.4c-2.4,2.9-3.6,7-3.6,12.3
			c0,5.4,1.2,9.5,3.5,12.4c2.3,2.9,5.7,4.3,10.1,4.3c3.5,0,6.3-1,8.5-3.1s3.4-4.8,3.6-8.3h5.1c-0.5,5-2.2,9-5.2,11.8
			c-3,2.8-7,4.2-11.9,4.2c-5.9,0-10.5-1.9-13.8-5.6c-3.3-3.8-5-9-5-15.7c0-6.5,1.7-11.7,5.1-15.5c3.4-3.9,8-5.8,13.7-5.8
			c4.3,0,8,1.1,10.9,3.3C1093.5,353.7,1095.3,356.7,1096,360.5z"/>
		<path class="st2" d="M1148.4,360.9h-5.2c-0.7-5.5-4.3-8.2-10.6-8.2c-2.7,0-4.9,0.5-6.5,1.6s-2.5,2.5-2.5,4.4c0,3,2.2,5,6.5,6.1
			l9.5,2.4c6.9,1.7,10.4,5.5,10.4,11.2c0,3.8-1.5,6.8-4.4,9c-2.9,2.3-6.8,3.4-11.6,3.4c-5,0-9-1.3-12-3.8s-4.9-6.1-5.4-10.7h5.2
			c0.5,3.3,1.8,5.7,3.9,7.4c2.1,1.7,5,2.5,8.6,2.5c3.1,0,5.6-0.7,7.5-2.1c1.9-1.4,2.9-3.2,2.9-5.4c0-1.8-0.7-3.3-2-4.5
			c-1.3-1.2-3.5-2.1-6.4-2.8l-7.6-1.9c-7-1.7-10.4-5.2-10.4-10.4c0-3.3,1.3-6,4-8s6.1-3,10.4-3
			C1142.1,348.1,1147.3,352.4,1148.4,360.9z"/>
		<path class="st2" d="M1174.8,348.2c5.9,0,10.7,2,14.3,5.9c3.7,3.9,5.5,9.1,5.5,15.4c0,6.4-1.8,11.5-5.5,15.4
			c-3.7,3.9-8.4,5.9-14.3,5.9c-5.9,0-10.7-2-14.3-5.9c-3.7-3.9-5.5-9.1-5.5-15.4c0-6.3,1.8-11.5,5.5-15.4
			C1164.1,350.1,1168.9,348.2,1174.8,348.2z M1174.8,352.8c-4.5,0-8.1,1.5-10.7,4.5s-3.9,7-3.9,12.2c0,5.2,1.3,9.3,3.9,12.2
			s6.2,4.5,10.7,4.5c4.5,0,8.1-1.5,10.7-4.5c2.6-3,3.9-7,3.9-12.2c0-5.2-1.3-9.2-3.9-12.2C1182.9,354.3,1179.3,352.8,1174.8,352.8z"
			/>
		<path class="st2" d="M1207.2,349v36.3h22v4.6H1202v-41H1207.2z"/>
		<path class="st2" d="M1258.8,349h5.2v24.7c0,3.2-0.2,5.5-0.5,7c-0.3,1.5-1,2.9-1.9,4.2c-2.8,3.9-7.3,5.9-13.5,5.9
			c-6.2,0-10.7-2-13.5-5.9c-0.9-1.3-1.6-2.7-1.9-4.2c-0.3-1.5-0.5-3.8-0.5-7V349h5.2v24.5c0,3.7,0.3,6.3,1.1,7.7
			c1.6,3.3,4.8,4.9,9.6,4.9s8-1.6,9.6-4.9c0.7-1.4,1.1-4,1.1-7.7V349z"/>
		<path class="st2" d="M1286.4,353.6v36.3h-5.3v-36.3h-13.4V349h31.9v4.6H1286.4z"/>
		<path class="st2" d="M1309,349v41h-5.2v-41H1309z"/>
		<path class="st2" d="M1336.2,348.2c5.9,0,10.7,2,14.3,5.9c3.7,3.9,5.5,9.1,5.5,15.4c0,6.4-1.8,11.5-5.5,15.4
			c-3.7,3.9-8.4,5.9-14.3,5.9c-5.9,0-10.7-2-14.3-5.9c-3.7-3.9-5.5-9.1-5.5-15.4c0-6.3,1.8-11.5,5.5-15.4
			C1325.5,350.1,1330.3,348.2,1336.2,348.2z M1336.2,352.8c-4.5,0-8.1,1.5-10.7,4.5s-3.9,7-3.9,12.2c0,5.2,1.3,9.3,3.9,12.2
			s6.2,4.5,10.7,4.5c4.5,0,8.1-1.5,10.7-4.5c2.6-3,3.9-7,3.9-12.2c0-5.2-1.3-9.2-3.9-12.2C1344.2,354.3,1340.7,352.8,1336.2,352.8z"
			/>
		<path class="st2" d="M1368.9,349l21.5,33v-33h5.2v41h-5.5l-21.5-33.1v33.1h-5.2v-41H1368.9z"/>
		<path class="st2" d="M1433.9,360.9h-5.2c-0.7-5.5-4.3-8.2-10.6-8.2c-2.7,0-4.9,0.5-6.5,1.6s-2.5,2.5-2.5,4.4c0,3,2.2,5,6.5,6.1
			l9.5,2.4c6.9,1.7,10.4,5.5,10.4,11.2c0,3.8-1.5,6.8-4.4,9c-2.9,2.3-6.8,3.4-11.6,3.4c-5,0-9-1.3-12-3.8s-4.9-6.1-5.4-10.7h5.2
			c0.5,3.3,1.8,5.7,3.9,7.4c2.1,1.7,5,2.5,8.6,2.5c3.1,0,5.6-0.7,7.5-2.1c1.9-1.4,2.9-3.2,2.9-5.4c0-1.8-0.7-3.3-2-4.5
			c-1.3-1.2-3.5-2.1-6.4-2.8l-7.6-1.9c-7-1.7-10.4-5.2-10.4-10.4c0-3.3,1.3-6,4-8s6.1-3,10.4-3
			C1427.6,348.1,1432.8,352.4,1433.9,360.9z"/>
	</g>
</g>
</svg>
