<?xml version="1.0" encoding="utf-8"?>
<svg version="1.1" xmlns="http://www.w3.org/2000/svg" width="47.7" height="157.3"
	 viewBox="0 0 47.7 157.3" xml:space="preserve">
<path d="M24.5,6.6c0,0-0.8,0.5-2.1,0.5l-1.7-0.5c0.1,0.6,0.1,1.7,0,2.7h3.7C24.4,8.3,24.4,7.2,24.5,6.6z"/>
<path d="M35.3,120.1c-2.1-2.6-4.8-6.1-5.5-8.2c-1.3-3.5-2.2-14.8-2.2-14.8C27.2,83.8,23.9,78,23.9,78
	c-5.6-9-6.7-25.8-6.7-25.8l-0.2-28.4C15.4,7.6,5,4.8,2,4.3v57.1c2,6.3,2.1,14,2.1,14C3.5,87.1,13.5,105,13.5,105
	c4.9,7.4,6.7,14.4,6.7,14.9c0,2.1-0.5,7.3-0.5,7.3l0.2,4.5c0.1,1.2,0.7,5.1,0.6,7c-0.7,11.7,1.1,9.5,1.1,9.5c1.6,0,3.3-9.4,3.3-9.4
	c0,2.4-0.6,9.7,0.7,12.5c1.6,3.2,2.7-0.6,2.7-1.3c0.4-14.9,1.3-11,1.3-11c0.9,12.1,1.9,14.9,3.9,13.9c1.5-0.7,0.1-14.5,0.1-14.5
	c2.5,8.2,4.4,9.5,4.4,9.5c4.1,2.9,1.6-5.1,1-6.7c-3.1-8.4-3.1-11.3-3.1-11.3c3.8,7.6,6.7,7.3,6.7,7.3
	C46.4,135.9,39.4,125.3,35.3,120.1z"/>
</svg>
