<?xml version="1.0" encoding="utf-8"?>
<!-- Generator: Adobe Illustrator 19.1.0, SVG Export Plug-In . SVG Version: 6.00 Build 0)  -->
<svg version="1.1" id="Layer_1" xmlns="http://www.w3.org/2000/svg" xmlns:xlink="http://www.w3.org/1999/xlink" x="0px" y="0px"
	 viewBox="0 0 41 49.7" style="enable-background:new 0 0 41 49.7;" xml:space="preserve">
<style type="text/css">
	.st0{fill:none;}
	.st1{fill:#3FA9F5;}
</style>
<path class="st1" d="M34,41.9c2.5-2.1,3.5-7.6,3.5-7.6c4.2-3.2,4-8,2.1-7.9c-1.6,0-1.2-1.1-1.2-1.1C41,3.9,22.1,3,22.1,3h-2.9
	c0,0-18.9,0.9-16.3,22.2c0,0,0.3,1.2-1.2,1.2c-2-0.1-2.1,4.6,2.1,7.9c0,0,1,5.6,3.5,7.6c0,0,0.5,2.1,0.5,5.1h25.7
	C33.5,44,34,41.9,34,41.9z"/>
</svg>
