<?xml version="1.0" encoding="utf-8"?>
<!-- Generator: Adobe Illustrator 19.1.0, SVG Export Plug-In . SVG Version: 6.00 Build 0)  -->
<svg version="1.1" id="Layer_1" xmlns="http://www.w3.org/2000/svg" xmlns:xlink="http://www.w3.org/1999/xlink" x="0px" y="0px"
	 viewBox="0 0 77.3 85.3" style="enable-background:new 0 0 77.3 85.3;" xml:space="preserve">
<style type="text/css">
	.st0{fill:none;}
	.st1{fill:#3FA9F5;}
</style>
<path class="st1" d="M9.1,30.7C9.1,30.7,0,52.7,2,69c0.4,3.5,1,8.3,1.6,13.3h33.2c0-1,0-2.1,0-2.7l1.7,0.6c1.3,0,2.1-0.5,2.1-0.5
	c-0.1,0.6-0.1,1.7,0,2.7h33.3c0.6-5,1.1-9.7,1.6-13.2c2-16.3-7.1-38.4-7.1-38.4c-1.1-5-0.7-17.4-0.1-27.4H9.1
	C9.7,13.3,10.2,25.7,9.1,30.7z"/>
</svg>
