<?xml version="1.0" encoding="utf-8"?>
<!-- Generator: Adobe Illustrator 19.1.0, SVG Export Plug-In . SVG Version: 6.00 Build 0)  -->
<svg version="1.1" id="Layer_1" xmlns="http://www.w3.org/2000/svg" xmlns:xlink="http://www.w3.org/1999/xlink" x="0px" y="0px"
	 viewBox="0 0 48.3 156" style="enable-background:new 0 0 48.3 156;" xml:space="preserve">
<style type="text/css">
	.st0{fill:none;}
	.st1{fill:#3FA9F5;}
</style>
<path class="st1" d="M30.5,22.4l-0.2,28.4c0,0-1,16.8-6.7,25.8c0,0-3.2,5.8-3.6,19.1c0,0-0.9,11.3-2.2,14.8
	c-0.8,2.1-3.4,5.6-5.5,8.2c-4.1,5.1-11,15.8-7.3,17c0,0,2.9,0.3,6.7-7.3c0,0-0.1,2.9-3.1,11.3c-0.6,1.6-3.1,9.5,1,6.7
	c0,0,1.9-1.3,4.4-9.5c0,0-1.3,13.8,0.1,14.5c2,0.9,3-1.8,3.9-13.9c0,0,0.9-3.9,1.3,11c0,0.8,1.2,4.6,2.7,1.3
	c1.3-2.7,0.7-10,0.7-12.5c0,0,1.7,9.4,3.3,9.4c0,0,1.9,2.2,1.1-9.5c-0.2-1.9,0.5-5.9,0.6-7l0.2-4.5c0,0-0.5-5.1-0.5-7.3
	c0-0.5,1.8-7.6,6.7-14.9c0,0,9.9-17.9,9.3-29.6c0,0,0-7.7,2-13.9V3C42.3,3.5,32.1,6.5,30.5,22.4z"/>
</svg>
