<?xml version="1.0" encoding="utf-8"?>
<!-- Generator: Adobe Illustrator 19.1.0, SVG Export Plug-In . SVG Version: 6.00 Build 0)  -->
<svg version="1.1" id="Layer_1" xmlns="http://www.w3.org/2000/svg" xmlns:xlink="http://www.w3.org/1999/xlink" x="0px" y="0px"
	 viewBox="0 0 79.3 153" style="enable-background:new 0 0 79.3 153;" xml:space="preserve">
<style type="text/css">
	.st0{fill:none;}
	.st1{fill:#3FA9F5;}
</style>
<path class="st1" d="M10.1,36c1.5,5.3,0.6,18.8,1.8,22.1c0.5,1.4,0.3,2.9-0.9,6.2c-4.1,11.5-3.6,19.6,6.7,50c0,0,3.2,6.7,1.6,18.9
	c0,0-6.6,13.5-2.3,13.8c0,0,0.3,0.9,1.7,0.2c0,0,2.2,2.3,4.7,1.1c0,0,2.3,1.8,4.2,0.2c0,0,1.6,1.8,3.9,0.3c0,0,3,2,4.7-0.2
	c0,0,3.2,0.7-2.5-13.5c0,0-2.2-15-3.3-17.9c-2.2-5.6-0.7-20.9-0.2-24.2c0.8-5.5,0.3-14.8-1.1-22.1c-1-5.2,1.8-15.4,2.8-21.4
	C33.7,38.9,36.9,14,37.6,3H4.8C6.3,15,8.2,29.2,10.1,36z"/>
<path class="st1" d="M47.2,49.5c1,6,3.8,16,2.8,21.2C48.6,78,48.2,87.4,49,92.9c0.5,3.3,2.1,18.7-0.2,24.3c-1.2,2.9-3.3,18-3.3,18
	c-5.6,14.2-2.5,13.5-2.5,13.5c1.7,2.2,4.7,0.2,4.7,0.2c2.3,1.4,3.9-0.3,3.9-0.3c1.9,1.6,4.2-0.2,4.2-0.2c2.5,1.2,4.7-1.1,4.7-1.1
	c1.4,0.7,1.7-0.2,1.7-0.2c4.2-0.3-2.3-13.7-2.3-13.7c-1.6-12.1,1.6-18.8,1.6-18.8C71.7,84,72.2,76,68.1,64.5
	c-1.2-3.3-1.4-4.6-0.9-6.1c1.2-3.3,0.3-17.1,1.8-22.4c1.9-6.8,3.8-21,5.3-33H41.6C42.3,14,45.4,38.9,47.2,49.5z"/>
</svg>
