<?xml version="1.0" encoding="UTF-8" standalone="no"?>
<!-- Generator: Adobe Illustrator 19.1.0, SVG Export Plug-In . SVG Version: 6.00 Build 0)  -->

<svg
   xmlns:dc="http://purl.org/dc/elements/1.1/"
   xmlns:cc="http://creativecommons.org/ns#"
   xmlns:rdf="http://www.w3.org/1999/02/22-rdf-syntax-ns#"
   xmlns:svg="http://www.w3.org/2000/svg"
   xmlns="http://www.w3.org/2000/svg"
   xmlns:sodipodi="http://sodipodi.sourceforge.net/DTD/sodipodi-0.dtd"
   xmlns:inkscape="http://www.inkscape.org/namespaces/inkscape"
   version="1.1"
   id="Layer_1"
   x="0px"
   y="0px"
   viewBox="0 0 105.24468 176.34509"
   xml:space="preserve"
   inkscape:version="0.91 r13725"
   sodipodi:docname="ico_general_health_problem.svg"
   width="105.24467"
   height="176.34509"><metadata
     id="metadata92"><rdf:RDF><cc:Work
         rdf:about=""><dc:format>image/svg+xml</dc:format><dc:type
           rdf:resource="http://purl.org/dc/dcmitype/StillImage" /><dc:title></dc:title></cc:Work></rdf:RDF></metadata><defs
     id="defs90" /><sodipodi:namedview
     pagecolor="#ffffff"
     bordercolor="#666666"
     borderopacity="1"
     objecttolerance="10"
     gridtolerance="10"
     guidetolerance="10"
     inkscape:pageopacity="0"
     inkscape:pageshadow="2"
     inkscape:window-width="1016"
     inkscape:window-height="738"
     id="namedview88"
     showgrid="false"
     inkscape:zoom="1.3111111"
     inkscape:cx="49.959999"
     inkscape:cy="89.267456"
     inkscape:window-x="0"
     inkscape:window-y="0"
     inkscape:window-maximized="0"
     inkscape:current-layer="Layer_1"
     fit-margin-top="0"
     fit-margin-left="0"
     fit-margin-right="0"
     fit-margin-bottom="0" /><style
     type="text/css"
     id="style3">
	.st0{fill:#3FA9F5;}
	.st1{clip-path:url(#SVGID_2_);fill:none;stroke:#0091DE;stroke-width:8;stroke-miterlimit:10;}
	.st2{clip-path:url(#SVGID_2_);}
	.st3{clip-path:url(#SVGID_4_);}
	.st4{fill:#0091DE;}
	.st5{clip-path:url(#SVGID_6_);fill:none;stroke:#CCCCCC;stroke-width:3;stroke-miterlimit:10;}
	.st6{display:none;fill:#3FA9F5;}
	.st7{display:none;}
	.st8{display:inline;fill:#3FA9F5;}
	.st9{display:inline;}
</style><g
     id="to_export"
     transform="matrix(2.0084862,0,0,2.0084862,-122.51766,-131.55585)"><path
       class="st6"
       d="m 71.8,101.6 c 11.9,14.4 40.9,28.2 47.9,25.1 7,-3.1 8.5,-9.8 8.2,-12.9 -0.3,-3.1 -16.2,-12.6 -20.2,-14.4 -4,-1.8 -8.6,4 -10.8,6.5 -2.3,2.4 -11.1,-4.9 -14.9,-8.6 0,0 -10,-11.2 -7.7,-13.6 2.3,-2.4 8,-7.2 6,-11.1 C 78.3,68.7 68.2,53.1 65,52.9 61.9,52.7 55.3,54.5 52.5,61.6 49.7,68.7 63.1,95.8 78,107.1"
       id="path6"
       inkscape:connector-curvature="0"
       style="display:none;fill:#3fa9f5" /><g
       class="st7"
       id="g8"
       style="display:none"><path
         class="st8"
         d="m 108,115.4 c 5.9,-5.6 9.7,-13.5 9.7,-22.3 0,-16.9 -13.7,-30.6 -30.6,-30.6 -16.2,0 -29.3,12.5 -30.5,28.4 -0.1,0.7 -0.1,1.4 -0.1,2.1 0,0 0,0.1 0,0.1 0,1 0.1,2 0.1,2.9 0.8,7.9 4.6,15 10.2,20 -0.2,0.3 -0.4,0.5 -0.6,0.8 -3.9,6.2 -4.9,14.3 -4.9,22.9 0.1,1.8 1.1,2.2 1.4,2.5 0.7,0.5 1.2,0.6 1.9,0.8 0.7,0.2 1.5,0.4 2.1,0.6 0.5,3.9 2.8,6.9 5.9,8.2 3.4,1.4 7.3,1.4 11.6,1.5 1.1,0 2.2,0 3.3,0 5.1,0 9.7,0.1 13.7,-1.2 2,-0.7 3.8,-1.7 5.1,-3.5 1.1,-1.4 1.7,-3.1 2,-5 0.5,-0.2 1.1,-0.3 1.7,-0.5 0.5,-0.2 1,-0.3 1.5,-0.6 0.3,-0.1 0.6,-0.3 0.9,-0.6 0.3,-0.3 1,-0.9 1.1,-2.2 0,-8.5 -0.8,-16.5 -4.5,-22.8 -0.3,-0.5 -0.6,-1 -1,-1.5 z M 61.8,93.1 c 0,0 0,0 0,0 l 3.8,-5.8 c 0,0 5.7,4.1 17.8,6.8 12.1,2.7 23.5,-0.1 23.5,-0.1 0,0 2.2,4.2 4.4,6.7 -3.3,10.2 -12.8,17.6 -24.1,17.6 -14.1,0.1 -25.4,-11.2 -25.4,-25.2 z m 29.7,30.3 c -0.2,0.3 -0.3,0.6 -0.6,0.9 -0.7,0.8 -1.6,1.5 -3.9,1.5 -3.1,-0.1 -3.9,-1.2 -4.7,-2.4 0,0 0,0 0,0 1.6,0.3 3.2,0.4 4.9,0.4 1.4,0 2.8,-0.2 4.3,-0.4 z m 15.2,15.1 c -0.5,0.2 -1,0.3 -1.5,0.6 0,0 0,0 0,0 L 103.4,126 c 0,0 0.3,5.7 0.5,9.4 0.1,2.2 -0.1,4 -0.3,5.1 -0.2,0.3 -0.3,0.7 -0.4,1.3 -0.1,1.8 -0.6,2.8 -1.1,3.5 -0.8,1.1 -2.3,1.8 -4.9,2.2 -2.5,0.4 -5.9,0.4 -9.8,0.4 -1.1,0 -2.2,0 -3.3,0 -4.2,0 -7.6,-0.2 -9.5,-1 -1.7,-0.9 -2.5,-1.6 -2.8,-5.1 -0.1,-0.6 -0.3,-1.1 -0.5,-1.4 -0.2,-1.1 -0.4,-2.8 -0.2,-5 0.2,-3.7 0.5,-9.4 0.5,-9.4 l -1.8,13.1 c -1.1,-0.5 -2,-0.7 -3,-1 -0.1,0 -0.1,0 -0.2,-0.1 0.1,-7.5 1.3,-14 4.1,-18.4 0.1,-0.2 0.2,-0.3 0.3,-0.5 1.6,1 3.4,1.9 5.2,2.5 0.1,0.9 0.4,2.5 1.3,4.1 1.3,2.6 4.5,5.3 9.4,5.3 0.1,0 0.2,0 0.2,0 4.7,0 7.8,-2.8 9,-5.3 0.7,-1.5 1,-2.9 1.2,-3.8 2.3,-0.8 4.4,-1.9 6.4,-3.2 0.2,0.3 0.4,0.6 0.6,0.9 2.7,4.4 3.7,10.9 3.8,18.5 -0.3,0.1 -0.9,0.3 -1.4,0.4 z M 94.2,107.1 c 1.7,0 3.1,-2.2 3.1,-5 0,-2.8 -1.4,-5 -3.1,-5 -1.7,0 -3.1,2.2 -3.1,5 0,2.8 1.4,5 3.1,5 z m -23,3.8 c 0.1,0.1 6.7,5.3 16.6,5.3 10,0 16.3,-6.2 16.4,-6.3 0.5,-0.5 0.5,-1.4 0,-1.9 -0.5,-0.5 -1.4,-0.5 -1.9,0 0,0 -0.3,0.3 -1,0.8 -2,1.6 -7,4.8 -13.6,4.8 -4.5,0 -8.2,-1.2 -10.9,-2.4 -1.3,-0.6 -2.4,-1.2 -3,-1.6 -0.7,-0.4 -1,-0.7 -1,-0.7 -0.6,-0.5 -1.4,-0.4 -1.9,0.2 -0.4,0.5 -0.3,1.3 0.3,1.8 l 0,0 z m 9.4,-3.8 c 1.7,0 3.1,-2.2 3.1,-5 0,-2.8 -1.4,-5 -3.1,-5 -1.7,0 -3.1,2.2 -3.1,5 0,2.8 1.4,5 3.1,5 z"
         id="path10"
         inkscape:connector-curvature="0"
         style="display:inline;fill:#3fa9f5" /></g><g
       id="g12"><path
         class="st0"
         d="m 87.1,107.1 c -2.6,0 -4.8,1 -4.8,2.3 0,1.3 2.1,2.3 4.8,2.3 2.6,0 4.8,-1 4.8,-2.3 0,-1.3 -2.2,-2.3 -4.8,-2.3 z m 26.2,-15.7 c 0,-14.3 -11.6,-25.9 -25.9,-25.9 0,0 0,0 -0.1,0 0,0 0,0 0,0 l 0,0 c -0.1,0 -0.2,0 -0.3,0 l 0,0 c -0.4,0 -0.7,0 -1.1,0 -0.2,0 -0.4,0 -0.6,0 -0.1,0 -0.3,0 -0.4,0 -0.1,0 -0.2,0 -0.3,0 -0.4,0 -0.9,0.1 -1.3,0.2 -0.2,0 -0.4,0.1 -0.5,0.1 -0.5,0.1 -1,0.2 -1.5,0.3 -0.2,0 -0.3,0.1 -0.5,0.1 -0.5,0.1 -1.1,0.3 -1.6,0.5 -0.1,0 -0.1,0 -0.2,0.1 l 0,0 c -1.7,0.6 -3.4,1.4 -5,2.3 l -0.2,0.2 c -1.6,1 -3.1,2.1 -4.4,3.5 l -0.5,0.5 c 0,0 0,0 0,0 0,0 0,0 0,0 l -0.1,0.1 0,0 C 64,78.1 61,84.7 61,92 c 0,8.1 3.7,15.3 9.4,20.1 -7.4,6.1 -9.2,16.7 -9.2,28.2 0.1,1.1 0.7,1.4 1,1.6 0.6,0.4 1.1,0.5 1.6,0.7 0.9,0.3 1.8,0.5 2.6,0.8 0.1,0 0.2,0.1 0.3,0.1 0.3,4.2 2.4,7.1 5.5,8.4 3.2,1.4 7.1,1.4 11.6,1.4 1.1,0 2.2,0 3.4,0 5.3,0 10.1,0 13.9,-1.2 1.9,-0.6 3.6,-1.7 4.8,-3.2 1.1,-1.4 1.7,-3.2 2,-5.3 0.5,-0.2 1.3,-0.4 2.1,-0.6 0.6,-0.2 1.2,-0.4 1.7,-0.6 0.3,-0.1 0.5,-0.2 0.8,-0.5 0.3,-0.2 0.8,-0.6 0.8,-1.5 0,-6.3 -0.4,-12.3 -2,-17.4 -1.3,-4.4 -3.6,-8.2 -7.1,-11 3.2,-2.8 5.8,-6.3 7.3,-10.4 -0.1,0 -0.3,0 -0.4,-0.1 l 0.4,0 0.2,-0.6 c 1,-2.5 1.6,-5.2 1.7,-8 l 0,0 0,-0.2 c -0.1,-0.5 -0.1,-0.9 -0.1,-1.3 z M 94.4,68.6 c 1.5,0.4 3.8,1.4 4.4,1.6 l 1.7,1 c 0,0 -0.1,-0.1 -0.1,-0.1 0.1,0.1 0.2,0.1 0.3,0.2 0.2,0.1 0.4,0.3 0.6,0.4 0.4,0.3 0.7,0.5 1.1,0.8 0.1,0.1 0.2,0.1 0.3,0.2 0.4,0.4 0.9,0.8 1.3,1.2 0.1,0.1 0.2,0.2 0.3,0.3 0.3,0.3 0.6,0.7 1,1 0.1,0.1 0.2,0.2 0.3,0.3 0.3,0.4 0.6,0.8 1,1.2 0.1,0.1 0.1,0.1 0.2,0.2 0.4,0.5 0.7,1 1,1.5 0,0 0,0.1 0.1,0.1 0.3,0.5 0.6,0.9 0.8,1.4 0.1,0.1 0.1,0.2 0.2,0.4 0.2,0.4 0.4,0.9 0.6,1.4 0,0.1 0.1,0.2 0.1,0.3 0.5,1.1 0.9,2.3 1.2,3.5 0,0.1 0,0.2 0.1,0.3 0.1,0.5 0.2,1 0.3,1.5 0,0.1 0,0.1 0,0.2 -2.5,-2.9 -5.3,-6.2 -6.9,-8.5 -2.7,-3.7 -9.4,-8.5 -13.7,-11.5 1.1,0.4 2.7,0.8 3.8,1.1 z M 85,67.4 c 0.1,0 0.2,0 0.3,0 0.3,0 0.6,0 0.9,-0.1 0.2,0 0.4,0 0.6,0 3.3,2.1 13.1,8.8 16,12.9 0.9,1.2 2,2.7 3.3,4.2 -1.9,-1.3 -3.8,-2.6 -5.4,-3.4 -3.6,-1.7 -7.9,-4.8 -11.8,-7.7 -2.8,-2.1 -5.4,-4 -7.3,-5.3 1,-0.3 2.2,-0.5 3.4,-0.6 z m 23,56.4 c 1.4,4.4 1.8,9.8 1.9,15.7 -0.6,0.2 -1.5,0.5 -2.4,0.7 -0.1,0 -0.3,0.1 -0.4,0.1 l -1.9,-14.2 c 0,0 -0.4,15.8 -0.5,16.4 -0.1,2 -0.6,3.4 -1.4,4.4 -1.1,1.4 -3,2.3 -5.8,2.7 -2.8,0.4 -6.3,0.5 -10.3,0.5 -1.2,0 -2.3,0 -3.4,0 -4.4,0 -8.1,-0.2 -10.3,-1.2 -2.2,-1 -3.3,-2.4 -3.6,-6.4 -0.7,-5.6 -0.1,-16.4 -0.1,-16.4 l -2,14.3 0.1,0.1 c -0.8,-0.3 -1.6,-0.5 -2.4,-0.7 -0.4,-0.1 -0.8,-0.2 -1,-0.3 0.1,-11.2 2.2,-20.5 8.6,-25.3 1.1,0.7 2.3,1.3 3.6,1.9 0.1,0.8 0.5,2.1 1.4,3.4 1.4,2.1 4.4,4.1 9.3,4.1 l 0.1,0 c 4.8,0 7.6,-2 9,-4.2 0.8,-1.3 1.2,-2.6 1.3,-3.4 1.3,-0.6 2.5,-1.3 3.7,-2 3.1,2.2 5.1,5.5 6.5,9.8 z m -27.7,-6.5 c 1.7,0.4 3.4,0.7 5.2,0.8 0.2,0 0.4,0 0.7,0 0.2,0 0.4,0 0.6,0 0,0 0,0 0.1,0 0,0 0.1,0 0.1,0 2.3,0 4.6,-0.3 6.8,-0.9 -0.2,0.5 -0.6,0.9 -1,1.3 -1,0.9 -2.6,1.7 -5.6,1.8 -4.1,0 -5.7,-1.4 -6.6,-2.7 -0.2,-0.1 -0.2,-0.2 -0.3,-0.3 z m 20.8,-7.4 0,0 -1,0.6 c -3.8,2.7 -8.4,4.4 -13.3,4.4 -0.1,0 -0.3,0 -0.4,0 -0.3,0 -0.5,0 -0.8,0 -11.4,-0.7 -20.6,-9.7 -21.5,-21 l 4.5,-6.7 c 0,0 4.9,3.5 15.1,5.8 3.9,0.9 7.7,1.1 11,1 0,0 0.1,0.1 0.1,0.1 6.5,4.1 10.6,6 13.2,6.8 -1.5,3.5 -3.8,6.7 -6.9,9 z m 9,-10.4 c -2,-0.4 -6.3,-1.9 -14.3,-7 C 83.9,85 74.1,76.2 71.2,73.5 c 1,-0.9 2.1,-1.7 3.2,-2.5 4.8,2.6 12.9,10.1 18.9,13.6 5.2,3 13.6,7.5 17.6,11.7 -0.1,1.1 -0.4,2.2 -0.8,3.2 z m 1.2,-5.4 C 106.7,89.9 99.1,85.9 94.3,83.1 88.9,80 81.5,73.2 76.3,70 c 0.9,-0.5 1.9,-0.9 2.9,-1.3 1.7,0.9 4.9,3.3 8.5,6 3.9,2.9 8.3,6 12.1,7.9 3.1,1.5 7.4,5 10.8,7.2 0.3,0.3 0.5,0.6 0.8,0.9 0,0.2 0,0.5 0,0.7 0,0.9 0,1.8 -0.1,2.7 z m -18.1,5.1 -1.4,-1.4 c -0.4,-0.4 -1,-0.4 -1.3,0 -0.4,0.4 -0.4,1 0,1.3 l 1.4,1.4 -1.4,1.4 c -0.4,0.4 -0.4,1 0,1.3 0.2,0.2 0.4,0.3 0.7,0.3 0.2,0 0.5,-0.1 0.7,-0.3 l 1.4,-1.4 1.4,1.4 c 0.2,0.2 0.4,0.3 0.7,0.3 0.2,0 0.5,-0.1 0.7,-0.3 0.4,-0.4 0.4,-1 0,-1.3 l -1.4,-1.4 1.4,-1.4 c 0.4,-0.4 0.4,-0.9 0,-1.3 -0.4,-0.4 -1,-0.4 -1.3,0 l -1.6,1.4 z m -9.8,4 c 0.4,-0.4 0.4,-0.9 0,-1.3 l -1.4,-1.4 1.4,-1.4 c 0.4,-0.4 0.4,-1 0,-1.3 -0.4,-0.4 -0.9,-0.4 -1.3,0 l -1.4,1.4 -1.4,-1.4 c -0.4,-0.4 -0.9,-0.4 -1.3,0 -0.4,0.4 -0.4,1 0,1.3 l 1.4,1.4 -1.4,1.4 c -0.4,0.4 -0.4,1 0,1.3 0.2,0.2 0.4,0.3 0.7,0.3 0.3,0 0.5,-0.1 0.7,-0.3 l 1.4,-1.4 1.4,1.4 c 0.2,0.2 0.4,0.3 0.7,0.3 0.1,0 0.3,-0.1 0.5,-0.3 z"
         id="path14"
         inkscape:connector-curvature="0"
         style="fill:#3fa9f5" /></g><g
       class="st7"
       id="g16"
       style="display:none"><ellipse
         class="st8"
         cx="93.599998"
         cy="95.599998"
         rx="2.8"
         ry="4.5999999"
         id="ellipse18"
         style="display:inline;fill:#3fa9f5" /><ellipse
         class="st8"
         cx="81.099998"
         cy="95.599998"
         rx="2.8"
         ry="4.5999999"
         id="ellipse20"
         style="display:inline;fill:#3fa9f5" /><path
         class="st8"
         d="m 87.7,108.5 c 9.2,0 15,-6.3 15,-6.4 0.3,-0.3 0.3,-0.9 0,-1.2 -0.3,-0.3 -0.9,-0.3 -1.2,0 0,0 -0.3,0.3 -1,0.9 -1.9,1.7 -6.6,5 -12.8,4.9 -4.2,0 -7.7,-1.2 -10.2,-2.5 -1.2,-0.6 -2.2,-1.2 -2.9,-1.7 -0.7,-0.5 -1,-0.8 -1,-0.8 -0.4,-0.3 -0.9,-0.3 -1.2,0.1 -0.3,0.4 -0.3,0.9 0.1,1.2 0.1,0.2 6.1,5.5 15.2,5.5 z"
         id="path22"
         inkscape:connector-curvature="0"
         style="display:inline;fill:#3fa9f5" /><path
         class="st8"
         d="m 105.4,108.7 c 6,-5.1 9.8,-12.8 9.8,-21.3 0,-15.5 -12.6,-28.1 -28.1,-28.1 -15.5,0 -28.1,12.6 -28.1,28.1 0,8.6 4,16.4 10.2,21.6 -8,6.6 -9.9,17.9 -9.9,30.3 0.1,1.2 0.7,1.5 1,1.8 0.6,0.4 1.1,0.5 1.8,0.8 0.9,0.3 2,0.6 2.8,0.8 0.1,0 0.2,0.1 0.3,0.1 0.4,4.5 2.6,7.6 5.9,9 3.4,1.5 7.7,1.5 12.5,1.6 1.2,0 2.4,0 3.7,0 5.8,0 10.8,0 14.9,-1.3 2,-0.7 3.8,-1.8 5.2,-3.5 1.2,-1.5 1.9,-3.4 2.1,-5.8 0.5,-0.2 1.4,-0.5 2.2,-0.7 0.6,-0.2 1.2,-0.4 1.8,-0.6 0.3,-0.1 0.6,-0.3 0.9,-0.5 0.3,-0.2 0.8,-0.6 0.9,-1.7 0,-6.8 -0.5,-13.2 -2.2,-18.8 -1.5,-4.7 -4,-8.8 -7.7,-11.8 z M 62.6,89.3 67.4,82.1 c 0,0 5.2,3.8 16.3,6.3 11.1,2.5 21.5,-0.1 21.5,-0.1 0,0 2.9,5.5 5.1,7.3 -1.6,4.4 -4.4,8.2 -7.9,11.1 l -0.1,-0.1 -0.9,0.7 c -4,2.9 -9,4.7 -14.4,4.7 -0.1,0 -0.3,0 -0.4,0 -0.3,0 -0.6,0 -0.9,0 C 73.4,111.2 63.5,101.5 62.6,89.3 Z m 24.2,41.6 0.6,0 c 1.1,0.2 2,1.1 2,2.2 0,1.2 -1,2.3 -2.3,2.3 -1.3,0 -2.3,-1 -2.3,-2.3 0,-1.1 0.9,-2.1 2,-2.2 z m 0.5,-13.1 c -4.4,0 -6.2,-1.5 -7.1,-2.9 -0.1,-0.1 -0.2,-0.2 -0.2,-0.4 1.8,0.5 3.7,0.7 5.6,0.8 0.2,0 0.5,0 0.7,0 0.2,0 0.4,0 0.6,0 0,0 0,0 0.1,0 0,0 0.1,0 0.1,0 2.5,0 5,-0.3 7.3,-1 -0.3,0.5 -0.6,1 -1.1,1.4 -1,1.2 -2.8,2.1 -6,2.1 z m 21.8,21.4 c -0.2,0.1 -0.3,0.1 -0.5,0.2 l -2.1,-15.3 c 0,0 -0.5,17 -0.5,17.6 -0.1,2.2 -0.7,3.6 -1.5,4.7 -1.2,1.6 -3.2,2.5 -6.2,3 -3,0.5 -6.8,0.5 -11.1,0.5 -1.3,0 -2.5,0 -3.7,0 -4.8,0 -8.7,-0.2 -11.1,-1.3 -2.3,-1.1 -3.6,-2.6 -3.9,-6.9 -0.8,-6 -0.1,-17.6 -0.1,-17.6 l -2.1,15.4 0.1,0.1 c -0.8,-0.3 -1.7,-0.5 -2.6,-0.8 -0.4,-0.1 -0.8,-0.2 -1.1,-0.3 0.1,-12.1 2.3,-22.1 9.3,-27.2 1.2,0.8 2.5,1.4 3.9,2 0.1,0.9 0.5,2.3 1.5,3.7 1.3,2 3.8,3.8 7.8,4.3 l 0,6.1 c -2.5,0.8 -4.3,3.2 -4.3,5.9 0,3.5 2.8,6.3 6.3,6.3 3.5,0 6.3,-2.8 6.3,-6.3 0,-2.8 -1.8,-5.1 -4.3,-5.9 l 0,-6 c 4.1,-0.4 6.7,-2.4 8,-4.4 0.9,-1.4 1.3,-2.8 1.4,-3.7 1.4,-0.6 2.7,-1.3 4,-2.2 3.6,2.5 5.8,6.1 7.2,10.7 1.5,4.8 2,10.6 2,16.9 -0.8,-0.1 -1.8,0.2 -2.7,0.5 z"
         id="path24"
         inkscape:connector-curvature="0"
         style="display:inline;fill:#3fa9f5" /></g><g
       class="st7"
       id="g26"
       style="display:none"><g
         class="st9"
         id="g28"
         style="display:inline"><path
           class="st0"
           d="m 93.1,105.8 c 1.4,0 2.3,-1.1 2.3,-2.3 l 0,-2.9 c 0,-1.4 -1.1,-2.3 -2.3,-2.3 -1.2,0 -2.3,1.1 -2.3,2.3 l 0,2.9 c 0,1.2 1.1,2.3 2.3,2.3 z"
           id="path30"
           inkscape:connector-curvature="0"
           style="fill:#3fa9f5" /><path
           class="st0"
           d="m 84.4,110 5.2,1.1 0.2,0 c 0.5,0 0.9,-0.3 1.1,-0.9 0.2,-0.6 -0.3,-1.2 -0.9,-1.2 l -5.2,-1.1 c -0.6,-0.2 -1.2,0.3 -1.2,0.9 -0.1,0.6 0.2,1.1 0.8,1.2 z"
           id="path32"
           inkscape:connector-curvature="0"
           style="fill:#3fa9f5" /><path
           class="st0"
           d="m 81.4,105.8 c 1.4,0 2.3,-1.1 2.3,-2.3 l 0,-2.9 c 0,-0.2 0,-0.2 0,-0.3 l -4.7,0 c 0,0.2 0,0.2 0,0.3 l 0,2.9 c 0,1.2 1,2.3 2.4,2.3 z"
           id="path34"
           inkscape:connector-curvature="0"
           style="fill:#3fa9f5" /><path
           class="st0"
           d="m 79.3,30 2.9,0 c 0.8,0 1.4,-0.6 1.4,-1.4 0,-2.9 4.1,-3 4.6,-3 4.9,0 4.9,2.1 4.9,2.9 0,1.7 -1.1,2.1 -2.9,2.9 -3.3,1.2 -5.5,3 -5.5,8.2 0,0.8 0.6,1.4 1.4,1.4 l 2.9,0 c 0.8,0 1.4,-0.6 1.4,-1.4 0,-2.6 0.3,-2.7 2,-3.3 0.2,-0.2 0.5,-0.2 0.8,-0.3 2.1,-0.9 5.6,-2.4 5.6,-7.4 0,-2.3 -0.8,-4.1 -2.1,-5.6 -2.1,-2 -5,-3 -8.6,-3 -6.2,0 -10.3,3.3 -10.3,8.3 0.1,1.1 0.7,1.7 1.5,1.7 z"
           id="path36"
           inkscape:connector-curvature="0"
           style="fill:#3fa9f5" /><path
           class="st0"
           d="m 87.5,43.1 c -1.8,0 -3.3,1.4 -3.3,3.3 0,1.8 1.4,3.3 3.3,3.3 1.8,0 3.3,-1.4 3.3,-3.3 0,-1.8 -1.5,-3.3 -3.3,-3.3 z"
           id="path38"
           inkscape:connector-curvature="0"
           style="fill:#3fa9f5" /><path
           class="st0"
           d="m 103.7,49.7 c -1.2,0 -2.1,0.9 -2.1,2.1 0,1.2 0.9,2.1 2.1,2.1 1.2,0 2.1,-0.9 2.1,-2.1 0,-1.2 -0.9,-2.1 -2.1,-2.1 z"
           id="path40"
           inkscape:connector-curvature="0"
           style="fill:#3fa9f5" /><path
           class="st0"
           d="m 98.4,41.4 1.8,0 c 0.5,0 0.9,-0.5 0.9,-0.9 0,-1.8 2.6,-2 2.9,-2 3,0 3,1.4 3,1.8 0,1.1 -0.6,1.4 -1.8,1.8 -2.1,0.8 -3.5,2 -3.5,5.3 0,0.5 0.5,0.9 0.9,0.9 l 1.8,0 c 0.5,0 0.9,-0.5 0.9,-0.9 0,-1.7 0.2,-1.8 1.2,-2.1 0.2,0 0.3,-0.2 0.5,-0.2 1.4,-0.6 3.6,-1.5 3.6,-4.7 0,-1.4 -0.5,-2.6 -1.4,-3.5 -1.2,-1.2 -3,-1.8 -5.3,-1.8 -3.9,0 -6.5,2.1 -6.5,5.3 0.3,0.7 0.6,1 1,1 z"
           id="path42"
           inkscape:connector-curvature="0"
           style="fill:#3fa9f5" /><path
           class="st0"
           d="m 70.2,42.3 1.2,0 c 0.3,0 0.6,-0.3 0.6,-0.6 0,-1.4 1.8,-1.4 2,-1.4 2.1,0 2.1,0.9 2.1,1.4 0,0.8 -0.5,0.9 -1.2,1.4 -1.5,0.5 -2.4,1.4 -2.4,3.6 0,0.3 0.3,0.6 0.6,0.6 l 1.4,0 c 0.3,0 0.6,-0.3 0.6,-0.6 0,-1.2 0.2,-1.2 0.9,-1.5 L 76.3,45 c 0.9,-0.5 2.6,-1.1 2.6,-3.3 0,-1.1 -0.3,-1.8 -0.9,-2.4 -0.8,-0.8 -2.1,-1.2 -3.6,-1.2 -2.7,0 -4.6,1.5 -4.6,3.8 -0.2,0.2 -0.1,0.4 0.4,0.4 z"
           id="path44"
           inkscape:connector-curvature="0"
           style="fill:#3fa9f5" /><path
           class="st0"
           d="m 73.8,48.2 c -0.9,0 -1.5,0.6 -1.5,1.5 0,0.9 0.6,1.5 1.5,1.5 0.9,0 1.5,-0.6 1.5,-1.5 0,-0.9 -0.7,-1.5 -1.5,-1.5 z"
           id="path46"
           inkscape:connector-curvature="0"
           style="fill:#3fa9f5" /><path
           class="st0"
           d="m 104.5,111.1 c 3.2,-2.9 5.8,-6.4 7.4,-10.5 0.2,-0.2 0.2,-0.5 0.3,-0.6 2.3,-5.2 4.3,-17.3 0.9,-25.2 C 108.8,65.2 96.6,60.4 92.5,59.8 92,59.6 91.3,59.5 91.3,59.5 l 0.3,-2.7 -1.8,2.2 -3.8,-2.3 1.4,2.6 c 0,0 -17.9,0.3 -25,13.4 -5.2,9.3 -2.7,23.5 0.3,28.5 1.7,4.1 4.4,7.7 7.7,10.5 -1.7,1.4 -3,3 -4.3,4.9 -3.3,5.5 -5,12.9 -5,23.7 0,1.7 1.7,2.1 3.9,2.7 0.5,0.2 1.2,0.3 1.7,0.5 0.9,9.9 9.6,9.9 17.3,9.9 l 3.5,0 c 10.6,0 19.9,0 20.9,-9.9 0.5,-0.2 1.1,-0.3 1.5,-0.5 2.3,-0.6 3.8,-1.1 3.8,-2.7 0.2,-12.1 -1.3,-23.2 -9.2,-29.2 z M 64.1,93 c 1.1,-1.2 2.4,-2.6 3.2,-3.8 0.9,-1.2 1.7,-3.3 2.1,-4.9 3.8,3.5 10,8.2 16.2,9.3 9.7,1.5 17.5,0.6 17.5,0.6 l -3.3,-2.3 c 0,0 7.4,2.3 8.7,2.4 0.6,0 1.2,-0.2 1.8,-0.3 -1.5,11.4 -11.2,20 -22.9,20 C 75,114.3 65.2,104.8 64.1,93 Z m 29.3,23.8 c -1.2,1.1 -3.5,2 -6.5,2 -3.2,0 -5.6,-0.9 -6.7,-2.1 2.3,0.6 4.6,0.9 7,0.9 2.1,0 4.2,-0.3 6.2,-0.8 z m -7,33.1 -2.4,0 c -9.6,0 -13.8,-0.8 -14.1,-7.7 0,-0.2 0,-0.3 0,-0.5 l 0,0 c 0,0 0,-0.2 0,-0.5 l 4.6,0 c -0.2,0.5 -0.6,0.9 -0.9,1.4 -0.8,0.8 -1.8,1.1 -1.8,1.1 l 0.3,1.1 0.2,1.1 c 0.2,0 1.7,-0.5 2.9,-1.7 1.1,-1.1 1.7,-2.6 1.7,-2.9 l 9.7,0 0,8.6 z m 19,-8 c 0,0.2 0,0.3 0,0.3 -0.5,7.1 -5.8,7.6 -16.5,7.7 l 0,-8.5 9.6,0 c 0.2,0.3 0.8,1.8 1.7,2.9 1.2,1.2 2.7,1.7 2.9,1.7 l 0.5,-2.1 c 0,0 -1.1,-0.3 -1.8,-1.1 -0.5,-0.5 -0.8,-0.9 -0.9,-1.4 l 4.7,0 c -0.2,0.3 -0.2,0.5 -0.2,0.5 l 0,0 z m 3.6,-2.3 c -0.6,0.2 -1.1,0.3 -1.5,0.5 0,-0.2 0,-0.2 -0.2,-0.3 l -2.6,-14.3 c 0,0 0.2,5.8 0.5,9.6 0.2,1.5 0.2,3 0.2,4.1 l -35.5,0 c 0,-1.2 0,-2.6 0.2,-4.1 0.2,-3.8 0.5,-9.6 0.5,-9.6 L 68,140.1 c -0.5,-0.2 -1.1,-0.3 -1.7,-0.5 -0.5,-0.2 -1.1,-0.3 -1.5,-0.5 0.2,-12.9 2.9,-21.3 8.8,-25.7 1.4,0.9 2.7,1.5 4.3,2.1 0.5,3 4.4,5.2 9.6,5.2 5,0 9,-2.1 9.6,-5 2,-0.8 3.6,-1.7 5.3,-2.7 6.8,4.7 8.7,13.8 8.8,26.1 -1.1,0.2 -1.7,0.4 -2.2,0.5 z"
           id="path48"
           inkscape:connector-curvature="0"
           style="fill:#3fa9f5" /></g></g><g
       class="st7"
       id="g50"
       style="display:none"><path
         class="st8"
         d="m 79.1,104.6 c -2.4,-8.9 4.4,-15.7 10.3,-16.7 5.8,-1 10.6,3.8 15.4,8.5 4.8,-4.8 9.6,-9.6 15.4,-8.5 5.8,1 12.6,7.9 10.3,16.7 -2.4,8.9 -14,19.8 -25.6,30.8 -11.8,-11 -23.4,-22 -25.8,-30.8 z"
         id="path52"
         inkscape:connector-curvature="0"
         style="display:inline;fill:#3fa9f5" /><path
         class="st8"
         d="m 49.1,44.7 45.3,0 23.4,23.4 0,15.6 -6.2,1.6 0,-9.4 -25,0 0,-25 -31.2,0 0,68.8 28.9,0 4.7,6.2 -39.8,0 0,-81.2 z m 43.8,7.8 0,17.2 17.2,0 -17.2,-17.2 z"
         id="path54"
         inkscape:connector-curvature="0"
         style="display:inline;fill:#3fa9f5" /></g><g
       class="st7"
       id="g56"
       style="display:none"><path
         class="st8"
         d="m 103.8,49.4 -27.6,0 c -0.4,0 -0.6,0.3 -0.6,0.6 l 0,10.3 c 0,0.4 0.3,0.6 0.6,0.6 l 27.6,0 c 0.4,0 0.6,-0.3 0.6,-0.6 l 0,-10.3 c 0.1,-0.4 -0.2,-0.6 -0.6,-0.6 z m -22,8.6 -3.4,0 0,-5.8 3.4,0 0,5.8 z"
         id="path58"
         inkscape:connector-curvature="0"
         style="display:inline;fill:#3fa9f5" /><path
         class="st8"
         d="m 107.5,70.4 c -2.8,-0.9 -4.9,-3.3 -5.7,-6.2 l -5.8,0 c 0.8,5.5 4.6,9.9 9.7,11.6 3.4,1.2 5.8,4.4 5.8,8.3 l 0,2.9 -37.2,0 0,14.5 -5.8,0 0,-17.4 c 0,-3.8 2.4,-7 5.8,-8.2 5.1,-1.7 8.9,-6.2 9.7,-11.7 l -5.9,0 c -0.7,2.9 -2.9,5.2 -5.7,6.2 -5.7,2 -9.8,7.4 -9.8,13.8 l 0,40.4 c 0,3.3 2.7,6.1 6,6.1 l 42.6,0 0,0 c 3.3,0 6.1,-2.7 6.1,-6.1 l 0,-40.4 c 0.1,-6.4 -4,-11.8 -9.8,-13.8 z m -4.6,41.6 -23.2,0 0,-3.8 23.2,0 0,3.8 0,0 z m 0,-7.6 -23.2,0 0,-3.8 23.2,0 0,3.8 0,0 z m 0,-7.7 -23.2,0 0,-3.8 23.2,0 0,3.8 0,0 z"
         id="path60"
         inkscape:connector-curvature="0"
         style="display:inline;fill:#3fa9f5" /></g><g
       class="st7"
       id="g62"
       style="display:none"><g
         class="st9"
         id="g64"
         style="display:inline"><path
           class="st0"
           d="m 73.8,64.4 c 1.5,0 3.1,0.2 4.8,0.7 1.7,0.5 3.9,1.3 5.6,2.4 1.1,-0.7 2.3,-1.2 3.7,-1.7 l 0,-9.8 c 0,-0.6 -1.6,-1.3 -2.3,-1.3 l -21.3,0 c -0.6,0 -1.8,0.6 -1.8,1.3 l 0,12.4 c 2.8,-1.1 3.2,-2.1 4.9,-2.8 2.1,-0.7 4.4,-1.2 6.4,-1.2 z"
           id="path66"
           inkscape:connector-curvature="0"
           style="fill:#3fa9f5" /><path
           class="st0"
           d="m 85.1,118 -1.4,0 -1.4,0 0,-0.1 -21.6,-22.3 c -0.7,-0.7 -1,-1.5 -1.7,-2.4 -0.7,-0.9 -1.1,-2 -1.6,-3.1 -0.5,-1.1 -0.9,-2.4 -1.2,-3.6 -0.3,-1.3 -0.4,-3.1 -0.4,-4.4 0,-1.5 0.2,-1.9 0.6,-4.7 l -15.5,0 c -0.6,0 -0.9,1.5 -0.9,2.2 l 0,21.3 c 0,0.6 0.2,1.9 0.9,1.9 l 21.7,0 0,21.6 c 0,0.6 1.1,1 1.8,1 l 21.3,0 c 0.6,0 2.3,-0.3 2.3,-1 l 0,-9.4 -2.9,3 0,0 z"
           id="path68"
           inkscape:connector-curvature="0"
           style="fill:#3fa9f5" /><path
           class="st0"
           d="m 139.3,77.3 -21.8,0 0,-21.3 c 0,-0.6 -1,-1.3 -1.6,-1.3 l -21.3,0 c -0.6,0 -2.4,0.6 -2.4,1.3 l 0,21.3 -21,0 c -0.6,0 -1.5,1.5 -1.5,2.2 l 0,21.3 c 0,0.6 0.9,1.9 1.5,1.9 l 21,0 0,21.6 c 0,0.6 1.8,1 2.4,1 l 21.3,0 c 0.6,0 1.6,-0.3 1.6,-1 l 0,-21.6 21.8,0 c 0.6,0 0.7,-1.3 0.7,-1.9 l 0,-21.3 c 0,-0.6 -0.1,-2.2 -0.7,-2.2 z"
           id="path70"
           inkscape:connector-curvature="0"
           style="fill:#3fa9f5" /></g></g><g
       class="st7"
       id="g72"
       style="display:none"><path
         class="st8"
         d="M 130.7,64.7 C 126.1,55.6 117.6,50.4 107.5,50.4 l -0.1,0 c -8,0 -13.8,3.5 -17.3,6.5 -3.5,-3 -9.3,-6.5 -17.3,-6.5 l -0.2,0 c -10.1,0 -18.6,5.2 -23.2,14.3 -5.6,11 -4.1,25.4 3.6,35.9 7.8,10.7 16.9,16.5 28.4,23.9 l 0.6,0.4 c 1.4,0.9 2.9,1.9 4.5,2.9 l 2.4,1.5 c 0.4,0.3 0.9,0.4 1.4,0.4 0.5,0 1,-0.1 1.4,-0.4 l 2.4,-1.5 c 1.6,-1 3.1,-2 4.5,-2.9 l 0.5,-0.3 c 11.5,-7.4 20.5,-13.2 28.4,-23.9 7.3,-10.6 8.8,-25 3.2,-36 z M 55.2,87.8 58.4,95 c 0.4,0.9 1.4,1.6 2.4,1.6 1,0 2,-0.6 2.4,-1.6 l 4.4,-10.3 2.3,13.2 c 0.2,1.2 1.1,2 2.3,2.2 1.2,0.1 2.3,-0.5 2.7,-1.6 l 5,-11.5 1.8,5.9 c 0.3,1 1.2,1.7 2.2,1.8 1.1,0.1 2.1,-0.4 2.6,-1.3 l 3.6,-6.5 37.9,0 c -1,3.9 -2.7,7.6 -5,10.7 -7.3,9.9 -16,15.5 -27,22.6 l -0.5,0.3 c -1.5,0.9 -3,1.9 -4.5,2.9 l -1,0.6 -1,-0.6 c -1.6,-1 -3,-2 -4.5,-2.9 l -0.6,-0.4 C 72.9,113 64.2,107.4 56.9,97.5 54.8,94.6 53.2,91.3 52.2,87.8 l 3,0 z M 86.3,83 84.9,85.5 82.8,78.7 c -0.3,-1 -1.3,-1.8 -2.4,-1.9 l -0.1,0 c -1,0 -2,0.6 -2.4,1.6 L 73.6,88.4 71.2,75 c -0.2,-1.1 -1.1,-2 -2.3,-2.2 -0.1,0 -0.2,0 -0.3,0 -1.1,0 -2,0.6 -2.4,1.6 L 60.8,87.3 59.4,84.1 C 59,83.2 58,82.5 57,82.5 l -5.7,0 c -0.6,-5.6 0.3,-11 2.6,-15.6 3.7,-7.3 10.5,-11.6 18.6,-11.6 l 0.2,0 c 7.4,0 12.6,3.7 15.6,6.7 0.9,0.9 2.7,0.9 3.6,0 3,-3 8.1,-6.6 15.6,-6.7 l 0.1,0 c 8.1,0 14.9,4.2 18.6,11.6 2.2,4.3 3.1,9.4 2.7,14.6 l -40.3,0 c -1,0.1 -1.8,0.6 -2.3,1.5 z"
         id="path74"
         inkscape:connector-curvature="0"
         style="display:inline;fill:#3fa9f5" /></g><g
       class="st7"
       id="g76"
       style="display:none"><path
         class="st8"
         d="m 66.3,61.7 c -1.6,0 -3,-1.3 -3,-3 l 0,-12.3 c 0,-1.6 1.3,-3 3,-3 1.7,0 3,1.3 3,3 l 0,12.3 c -0.1,1.6 -1.4,3 -3,3 z"
         id="path78"
         inkscape:connector-curvature="0"
         style="display:inline;fill:#3fa9f5" /><path
         class="st8"
         d="m 102.6,61.7 c -1.6,0 -3,-1.3 -3,-3 l 0,-12.3 c 0,-1.6 1.3,-3 3,-3 1.6,0 3,1.3 3,3 l 0,12.3 c -0.1,1.6 -1.4,3 -3,3 z"
         id="path80"
         inkscape:connector-curvature="0"
         style="display:inline;fill:#3fa9f5" /><path
         class="st8"
         d="m 72.5,119.4 -3.5,0 0,-16 2.6,0 c 0.1,-0.7 0.3,-1.4 0.5,-2.1 l -3.1,0 0,-15.5 12.9,0 c 1.1,-1 2.3,-1.8 3.5,-2.6 l 0,-14.5 14.3,0 0,9.5 c 0.7,-0.1 1.4,-0.1 2.1,-0.1 l 0,-9.4 12.6,0 0,11.7 c 1.3,0.5 2.6,1.2 3.8,1.9 l 0,-23.2 c 0,-3.9 -3.1,-7 -7,-7 l -3,0 0,6.6 c 0,3.2 -2.6,5.7 -5.7,5.7 -3.2,0 -5.7,-2.6 -5.7,-5.7 l 0,-6.6 -24.8,0 0,6.6 c 0,3.2 -2.6,5.7 -5.7,5.7 -3.1,0 -5.7,-2.6 -5.7,-5.7 l 0,-6.6 -3,0 c -3.9,0 -7,3.1 -7,7 l 0,57.1 c 0,3.9 3.1,7 7,7 l 16.5,0 C 73.5,122 73,120.7 72.5,119.4 Z m -3.4,-50.7 14.3,0 0,15 -14.3,0 0,-15 z m -2.1,50.7 -9.4,0 c -1.8,0 -3.2,-1.4 -3.2,-3.2 l 0,-12.8 12.6,0 0,16 z m 0,-18.1 -12.6,0 0,-15.5 12.6,0 0,15.5 z m 0,-17.6 -12.6,0 0,-15 12.6,0 0,15 z"
         id="path82"
         inkscape:connector-curvature="0"
         style="display:inline;fill:#3fa9f5" /><polygon
         class="st8"
         points="98.4,96.7 98.4,105.5 89.6,105.5 89.6,113.9 98.4,113.9 98.4,122.7 106.8,122.7 106.8,113.9 115.6,113.9 115.6,105.5 106.8,105.5 106.8,96.7 "
         id="polygon84"
         style="display:inline;fill:#3fa9f5" /><path
         class="st8"
         d="m 102.6,136.6 c -14.8,0 -26.9,-12 -26.9,-26.9 0,-14.8 12,-26.9 26.9,-26.9 14.8,0 26.9,12 26.9,26.9 -0.1,14.8 -12.1,26.9 -26.9,26.9 z m 0,-47.6 c -11.4,0 -20.7,9.3 -20.7,20.7 0,11.4 9.3,20.7 20.7,20.7 11.4,0 20.7,-9.3 20.7,-20.7 C 123.3,98.3 114,89 102.6,89 Z"
         id="path86"
         inkscape:connector-curvature="0"
         style="display:inline;fill:#3fa9f5" /></g></g></svg>